<?xml version="1.0" encoding="UTF-8" standalone="no"?>
<!-- Created with Inkscape (http://www.inkscape.org/) -->

<svg
   version="1.1"
   id="svg894"
   width="512"
   height="512"
   viewBox="0 0 512 512"
   xmlns="http://www.w3.org/2000/svg"
   xmlns:svg="http://www.w3.org/2000/svg">
  <defs
     id="defs898" />
  <g
     id="g900">
    <path
       style="fill:#fbf4eb"
       d="M 127.04592,461.14673 C 69.250056,452.8561 24.12374,421.28485 4.4517552,375.37747 c -4.48445995,-10.46513 -5.20687995,-16.04439 -2.96498,-22.89861 1.598381,-4.88676 5.870692,-12.13662 10.5431038,-17.89101 l 2.029933,-2.5 -2.468492,-9.72663 C 8.3376912,309.5409 6.7952122,294.46914 8.1756972,288.98673 10.21504,280.88777 18.904482,273.66437 26.673474,273.60981 c 1.720156,-0.0121 3.609405,-0.60255 4.198332,-1.31217 0.699144,-0.84241 1.175476,-12.7295 1.372445,-34.25 0.28908,-31.58446 0.392038,-33.12858 2.467382,-37.00474 5.429962,-10.14165 16.921755,-16.36175 27.733123,-15.01096 6.067003,0.75803 14.583882,5.30384 17.376286,9.27446 5.558885,7.90437 5.647625,8.37089 6.330065,33.28145 0.63182,23.06299 1.34917,30.24588 4.46774,44.7362 l 1.55735,7.2362 3.18486,-1.42329 c 1.75167,-0.78281 9.934863,-4.37036 18.184863,-7.97233 8.25,-3.60198 14.98659,-6.89279 14.97019,-7.31291 -0.0164,-0.42013 -0.62416,-4.69281 -1.35059,-9.49486 -2.71865,-17.97158 2.62909,-37.15442 14.76861,-52.97641 1.98649,-2.58908 3.85216,-4.72658 4.14595,-4.75 0.29379,-0.0234 2.89677,2.34973 5.7844,5.27368 l 5.25024,5.31628 -4.4381,6.61837 c -5.13423,7.65648 -8.40093,15.74844 -9.77532,24.21447 -0.94788,5.83882 -0.33944,17.13333 1.04352,19.37102 0.48623,0.78673 3.66642,0.0667 10.51199,-2.37998 71.00677,-25.3788 142.36162,-35.63009 174.04385,-25.00423 3.87138,1.29841 7.38704,2.14558 7.81257,1.88258 0.42554,-0.26299 0.4852,-3.29407 0.13259,-6.73572 -1.23434,-12.04789 4.6448,-23.34556 14.78006,-28.40215 2.37602,-1.18543 32.13394,-14.78901 66.1287,-30.23018 43.09488,-19.57465 63.26515,-28.24736 66.61923,-28.64461 10.91517,-1.29274 21.44072,6.08 26.02349,18.22845 3.64954,9.67456 1.48953,19.92921 -5.6098,26.63248 -1.56287,1.47568 -32.31658,17.00068 -68.34158,34.5 l -65.5,31.81694 -7,-0.0391 c -5.2007,-0.0291 -8.06643,-0.59937 -11.14886,-2.21873 l -4.14886,-2.17961 1.89858,6.21873 c 5.65701,18.52935 7.10848,44.10346 3.5292,62.18244 -12.42724,62.77007 -62.94564,115.62969 -132.38518,138.52042 -23.2035,7.64902 -38.30878,10.1572 -63.74488,10.58461 -14.20145,0.23864 -24.07553,-0.0883 -30.5,-1.00987 z m 53.14815,-16.12337 c 23.23484,-3.2407 44.6382,-10.1508 66.85185,-21.5832 47.53735,-24.4654 81.2534,-65.93457 90.47915,-111.28513 1.73894,-8.54803 3.19123,-29.37783 2.224,-31.89838 -0.44727,-1.16557 -2.20371,0.0393 -7.20233,4.94042 -43.09399,42.2539 -157.77996,89.45669 -245.000823,100.83817 -17.376027,2.2674 -38.450193,2.99619 -48.930805,1.69212 -4.911943,-0.61118 -9.137515,-0.90452 -9.390158,-0.65188 -0.895779,0.89578 8.256279,12.1235 16.147144,19.80928 20.560804,20.02642 52.347989,34.52666 84.673822,38.62533 11.38291,1.44327 38.17509,1.18322 50.14815,-0.48673 z M 34.244298,366.20409 c -2.800454,-2.96107 -6.874927,-8.1427 -9.054384,-11.51475 l -3.962648,-6.13098 -1.976653,3.26474 c -4.365695,7.21062 -4.038978,11.46798 1.124995,14.65949 3.531846,2.1828 12.560288,4.9294 16.565368,5.03945 2.174486,0.0598 1.926137,-0.43 -2.696678,-5.31795 z m 62.801619,2.35013 c 11.390893,-1.85282 33.432613,-6.36181 36.932083,-7.55504 0.84158,-0.28696 -1.98316,-2.41717 -6.85053,-5.16619 C 116.95352,350.0869 103.27021,337.45103 96.343457,327.40545 78.585888,301.65243 70.045919,268.25353 70.045919,224.55862 c 0,-15.51216 -0.04939,-15.87602 -2.560281,-18.86004 -4.779597,-5.68023 -13.69757,-5.01493 -17.554251,1.30958 -1.731436,2.83936 -1.878284,5.5209 -1.88173,34.36181 -0.0041,34.04246 -0.227694,35.64429 -5.806786,41.59398 -3.188371,3.40016 -9.612667,6.57109 -13.375523,6.60194 -4.648533,0.0381 -5.979499,2.39997 -5.286273,9.38074 2.492257,25.09696 10.609955,44.75701 23.643947,57.26268 7.107844,6.81974 14.0272,10.74699 22.593558,12.82356 8.005134,1.94051 12.881787,1.85478 27.227337,-0.47865 z M 76.994349,363.22834 C 66.448151,354.94906 58.139089,342.84322 56.478473,333.33785 l -0.655136,-3.75 7.861291,0.0104 7.861291,0.0104 2.733191,5.87511 c 1.960818,4.21486 4.874921,7.87525 10.312117,12.95299 l 7.57892,7.07788 -4.09937,6.0366 c -2.25466,3.32013 -4.42011,6.03632 -4.81212,6.03597 -0.39201,-3.4e-4 -3.210944,-1.96184 -6.264308,-4.35888 z m 95.906961,-13.26443 c 18.03108,-5.47307 56.84133,-20.58923 69.68466,-27.14141 10.02071,-5.11218 22.91688,-26.30073 26.92293,-44.23465 3.5521,-15.90176 3.71215,-16.28584 8.98166,-21.55536 3.59631,-3.5963 6.43041,-5.43881 9.81966,-6.38396 14.16875,-3.9512 28.3592,5.61748 30.3988,20.49805 l 0.62573,4.56513 3.9085,-3.81193 c 5.21404,-5.08521 9.76963,-12.33348 10.47201,-16.66173 0.47866,-2.94962 0.13046,-3.93124 -2.1413,-6.03663 -10.76108,-9.97304 -48.53487,-10.02278 -97.01092,-0.12774 -27.85153,5.68511 -83.51712,22.20209 -83.51712,24.78103 0,0.54686 1.55482,3.15848 3.45516,5.80361 l 3.45516,4.80933 -5.99643,5.1948 c -6.81593,5.90474 -5.67442,6.27468 -12.57272,-4.0746 -2.01631,-3.025 -3.81022,-5.67979 -3.98646,-5.89953 -0.39346,-0.49058 -15.60863,5.74179 -28.10471,11.51214 -5.69888,2.63159 -9.250003,4.85128 -9.250003,5.78189 0,2.66642 7.991583,16.87745 13.717753,24.39359 10.91526,14.32731 26.76577,24.87973 44.57961,29.67871 6.97988,1.88036 6.71142,1.89805 16.55803,-1.09074 z m -28.85539,-36.37606 v -8 h 8 8 v 8 8 h -8 -8 z m 153.01731,-21.0577 c 3.06067,-2.81341 4.69053,-7.47417 5.63174,-16.10448 0.56443,-5.17555 0.3951,-5.88458 -1.97032,-8.25 -3.04919,-3.04919 -7.46646,-3.39846 -10.59587,-0.83782 -1.55295,1.2707 -2.79705,4.67485 -4.5424,12.42909 -2.01244,8.9409 -4.10024,15.19092 -8.23384,24.64876 -0.71758,1.64185 15.88685,-8.37063 19.71069,-11.88555 z m 73.07024,-61.22232 c 4.04135,-2.72346 5.87771,-6.02012 5.89771,-10.58763 0.0114,-2.60784 -0.89026,-4.27264 -3.99641,-7.37879 -3.76049,-3.7605 -4.29555,-3.9791 -8.56226,-3.49817 -4.89064,0.55124 -8.96364,3.49523 -10.56067,7.6333 -1.2142,3.14614 -0.50773,3.67426 2.29192,1.71331 5.32033,-3.72651 12.84216,0.0209 12.84216,6.398 0,1.94837 -0.90731,3.99822 -2.45455,5.54545 -2.12791,2.12792 -2.21413,2.45455 -0.64788,2.45455 0.99367,0 3.32916,-1.02601 5.18998,-2.28002 z m 72.99035,-35.17863 c 27.57763,-13.45226 50.75255,-25.26476 51.49982,-26.25 1.91999,-2.53142 1.73831,-5.75155 -0.58099,-10.29775 -2.10003,-4.11641 -4.54694,-5.9936 -7.81261,-5.9936 -1.70192,0 -101.58961,45.07216 -102.98902,46.47157 -0.29498,0.29497 0.38967,1.54704 1.52144,2.78237 2.81939,3.07739 5.97448,9.58213 6.81126,14.04257 0.38213,2.03692 0.85547,3.70349 1.05187,3.70349 0.1964,0 22.9206,-11.00639 50.49823,-24.45865 z M 96.045917,241.58785 v -8 h 8.000003 8 v 8 8 h -8 -8.000003 z m 8.000003,-72 v -8 h 8 8 v 8 8 h -8 -8 z m -88.000001,-8 v -8 h 8 8 v 8 8 h -8 -8 z M 62.53864,151.3 c -9.452406,-4.52156 -15.29781,-14.26662 -14.186414,-23.65062 1.824116,-15.40181 16.342848,-25.243 30.83525,-20.90097 8.282921,2.48162 16.824481,13.45553 16.848671,21.64662 0.0525,17.77129 -18.174649,30.23467 -33.497507,22.90497 z m 15.052734,-16.1667 c 1.547237,-1.54723 2.454545,-3.59708 2.454545,-5.54545 0,-1.94837 -0.907308,-3.99822 -2.454545,-5.54545 -1.547238,-1.54724 -3.597082,-2.45455 -5.545455,-2.45455 -1.948373,0 -3.998217,0.90731 -5.545455,2.45455 -1.547237,1.54723 -2.454545,3.59708 -2.454545,5.54545 0,1.94837 0.907308,3.99822 2.454545,5.54545 1.547238,1.54724 3.597082,2.45455 5.545455,2.45455 1.948373,0 3.998217,-0.90731 5.545455,-2.45455 z m 58.454546,16.11451 c 0,-5.19036 4.24986,-18.43717 8.44512,-26.32345 4.17397,-7.84624 16.00746,-24.33651 17.46399,-24.33651 0.36256,0 3.04897,2.41982 5.9698,5.37738 l 5.31058,5.37739 -4.84474,6.03112 c -9.02915,11.24019 -16.26701,26.07807 -16.32366,33.46411 l -0.0211,2.75 h -8 c -7.72083,0 -8,-0.0817 -8,-2.34004 z M 120.88427,96.406045 c -4.73898,-1.26198 -11.36308,-6.96628 -13.92806,-11.99404 -6.35904,-12.46475 -0.84714,-27.16353 12.30824,-32.82282 15.41057,-6.62945 32.82339,5.69304 32.7717,23.19148 -0.0127,4.29099 -3.95553,12.57584 -7.61375,15.99823 -6.2989,5.89284 -14.85727,7.93886 -23.53813,5.62715 z m 12.7071,-17.27274 c 4.9602,-4.9602 1.44542,-13.54546 -5.54545,-13.54546 -1.94837,0 -3.99822,0.90731 -5.54545,2.45455 -1.54724,1.54723 -2.45455,3.59708 -2.45455,5.54545 0,1.94837 0.90731,3.99822 2.45455,5.54546 1.54723,1.54723 3.59708,2.45454 5.54545,2.45454 1.94837,0 3.99822,-0.90731 5.54545,-2.45454 z"
       id="path1149" />
  </g>
</svg>
