<?xml version="1.0" encoding="UTF-8" standalone="no"?>
<!-- Created with Inkscape (http://www.inkscape.org/) -->

<svg
   version="1.1"
   id="svg961"
   width="546.1333"
   height="546.1333"
   viewBox="0 0 546.1333 546.1333"
   xmlns="http://www.w3.org/2000/svg"
   xmlns:svg="http://www.w3.org/2000/svg">
  <defs
     id="defs965" />
  <g
     id="g967">
    <path
       style="fill:#fbf4eb;stroke-width:1.06667"
       d="m 6.9269975,544.98076 c -3.954351,-1.62466 -6.35151502,-5.34446 -6.35151502,-9.85597 0,-3.49233 0.64361302,-4.8657 3.45925202,-7.38147 l 3.459253,-3.09084 h 34.5335665 34.53357 l 0.52785,-27.46667 c 0.54801,-28.51541 1.24542,-33.80214 6.22646,-47.19999 5.82528,-15.66869 18.219096,-33.9426 29.400916,-43.34986 6.8698,-5.77956 19.16838,-13.70084 25.6142,-16.49761 2.82137,-1.22417 22.16977,-8.45154 42.99643,-16.06084 20.82667,-7.6093 38.68144,-14.64282 39.67728,-15.63006 1.53839,-1.52508 1.84242,-4.44115 2.0221,-19.39496 l 0.21148,-17.6 -16.95544,-9.63959 c -20.09412,-11.42404 -27.08192,-17.63053 -32.93441,-29.25203 -5.17047,-10.26718 -6.91333,-19.08353 -6.93582,-35.0853 l -0.0185,-13.17693 -9.75204,-10.28974 c -12.09351,-12.7603 -17.0789,-19.43899 -22.3003,-29.87466 -15.49248,-30.96382 -12.34823,-69.42255 7.98307,-97.644942 2.57679,-3.5769 22.12652,-23.8378 43.44384,-45.0242 41.72449,-41.4682598 44.61588,-43.8002498 60.29832,-48.6323698 10.94026,-3.37093996 28.95615,-3.12661996 39.79377,0.53966 4.4,1.48848 10.29601,3.99542 13.10225,5.57097 11.43506,6.4201898 22.78772,19.7706198 27.43079,32.2579098 2.09239,5.62734 5.29552,9.15428 39.9463,43.98457 24.79149,24.919922 39.17827,40.210892 42.07849,44.723062 15.17494,23.60923 11.71005,53.04358 -8.69976,73.90483 -4.92099,5.02984 -9.95088,8.9833 -13.85808,10.89237 l -6.13333,2.99674 -0.0374,21.47483 c -0.0432,24.73776 -1.09142,31.274 -6.90076,43.02839 -5.83013,11.79646 -12.62875,17.86628 -33.06177,29.51757 l -17.06666,9.73174 -0.29329,16.70812 c -0.28227,16.07991 -0.20206,16.81056 2.13333,19.43236 1.82996,2.0544 11.86838,6.16529 40.82662,16.71915 21.12,7.69721 41.76,15.68496 45.86667,17.75056 19.70566,9.9117 36.465,26.49659 46.1338,45.65359 9.37663,18.57813 11.9841,32.65742 11.99323,64.75859 l 0.006,22.09192 35.17707,0.30808 35.17706,0.30807 2.93805,2.93936 c 4.0009,4.00268 3.9495,10.43712 -0.11584,14.50252 l -2.82476,2.82479 -265.3091,0.20239 C 128.44943,545.76618 8.1003305,545.46283 6.9269975,544.98076 Z M 142.92698,499.10498 c 0,-14.85311 0.50205,-27.91367 1.19934,-31.2 3.00626,-14.16856 13.06237,-24.98336 27.49316,-29.56739 2.23982,-0.7115 15.10949,-1.15177 33.66711,-1.15177 h 30.04126 l 2.93366,3.06207 c 3.2339,3.37547 3.96234,8.2374 1.83089,12.22007 -2.82211,5.27316 -4.05485,5.48335 -35.49102,6.05119 -32.49331,0.58694 -32.10117,0.50483 -37.60849,7.87492 -2.06757,2.76689 -2.21823,4.59902 -2.51641,30.60076 l -0.31718,27.65765 h 108.90101 108.90101 l -0.31718,-27.55218 -0.31717,-27.55218 -2.98847,-3.91561 c -5.29911,-6.94309 -6.12308,-7.10656 -36.15856,-7.17356 -30.92598,-0.069 -33.43535,-0.52395 -36.40445,-6.60012 -1.62671,-3.32902 -1.75088,-4.60147 -0.74612,-7.64596 2.32815,-7.05435 2.87951,-7.15398 37.66265,-6.80575 l 31.16828,0.31203 6.71092,3.09886 c 8.38712,3.87287 16.18364,12.09676 19.56554,20.63803 2.26687,5.72517 2.45381,8.01318 2.83228,34.66311 l 0.4052,28.53333 h 22.43923 22.43922 l -0.54113,-26.4 c -0.46855,-22.85935 -0.84975,-27.45762 -2.84223,-34.28593 -7.06087,-24.19786 -24.3388,-44.66326 -45.75572,-54.19682 -3.32932,-1.48202 -22.24118,-8.62374 -42.02635,-15.87048 -39.75966,-14.56283 -42.758,-15.87524 -47.80968,-20.92692 -5.80268,-5.80268 -7.55686,-11.25151 -8.21399,-25.51427 -0.32112,-6.96973 -0.7034,-12.67224 -0.84952,-12.67224 -0.14612,0 -3.82315,1.68944 -8.17117,3.75431 -13.73743,6.52387 -26.16903,6.1952 -40.42243,-1.06873 l -7.15794,-3.64788 -0.36778,14.61448 c -0.3985,15.83557 -1.20794,18.36375 -8.07954,25.23534 -4.36187,4.36188 -7.69832,5.80181 -44.70684,19.29444 -18.68976,6.81394 -37.62512,13.96085 -42.07858,15.88202 -21.65185,9.34033 -38.9542,27.98742 -46.22944,49.82243 -3.919496,11.76349 -4.828456,20.07719 -4.852226,44.38025 l -0.0211,21.6 h 22.399996 22.39999 z M 272.29672,457.67 c -3.62942,-0.54719 -7.76974,-6.15027 -7.76974,-10.51474 0,-2.70432 0.85952,-4.59306 3.11795,-6.85149 4.19176,-4.19178 9.48223,-4.26217 13.87558,-0.18462 7.86192,7.29678 1.61419,19.18486 -9.22379,17.55085 z m 7.27109,-136.92354 c 1.99421,-0.68164 17.40243,-9.10508 34.24049,-18.71876 43.98483,-25.11308 43.69231,-24.70967 44.30946,-61.10854 l 0.38883,-22.93333 -6.1898,-2.58186 c -5.47967,-2.28565 -10.13831,-6.50523 -40.60598,-36.77908 l -34.41616,-34.19721 -44.85858,44.77908 -44.85858,44.77907 0.39101,15.46666 c 0.36275,14.34895 0.60772,15.91565 3.38983,21.67953 1.64936,3.41708 4.55538,7.76942 6.45784,9.67188 3.55813,3.55813 63.39374,38.55366 68.60116,40.12216 4.27786,1.28851 9.04592,1.22339 13.15048,-0.1796 z m -13.44083,-35.95735 c -12.60032,-3.29347 -18.02774,-10.4153 -14.2522,-18.70169 1.7996,-3.94971 8.00211,-6.606 11.80127,-5.05401 1.64135,0.6705 4.42426,1.80432 6.18426,2.51961 2.41339,0.98083 3.92107,1.00556 6.13333,0.10069 9.83708,-4.02381 9.23775,-3.93303 13.28586,-2.01209 2.26527,1.07495 4.38058,3.10663 5.13778,4.93465 1.56516,3.77863 0.61414,9.71954 -1.91117,11.93888 -5.91478,5.19813 -18.78456,8.25907 -26.37913,6.274 z M 240.14774,151.58583 c 56.23357,-56.406352 61.70749,-62.209752 64.92421,-68.832152 6.27666,-12.92207 5.39773,-29.90781 -2.13644,-41.28828 l -3.05034,-4.60756 -0.64563,4.164 c -2.77472,17.89549 -8.24196,27.1481 -28.0529,47.47598 -8.97044,9.20449 -18.00107,17.537962 -20.0681,18.518832 -8.68541,4.1215 -17.69347,-3.90411 -14.32534,-12.762962 0.65149,-1.71356 8.82447,-10.84701 18.16217,-20.29658 13.18547,-13.34343 17.5931,-18.52537 19.73307,-23.19967 2.96001,-6.46553 4.50546,-18.0381 3.28071,-24.56657 -0.69182,-3.68767 -0.87776,-3.81429 -6.66324,-4.53714 -8.04059,-1.0046 -18.26324,0.84904 -26.86192,4.87078 -6.42245,3.00389 -10.74381,6.93959 -44.28003,40.32837 -43.47249,43.281342 -47.02774,47.790712 -52.02605,65.988212 -4.8735,17.74302 -2.21483,38.77156 6.98091,55.21508 4.05137,7.24454 19.98894,25.12966 22.39323,25.12966 0.67341,0 28.85947,-27.72 62.63569,-61.6 z M 217.94233,134.476 c -3.07278,-0.46447 -7.78404,-5.27313 -7.93818,-8.10228 -0.26667,-4.89479 0.35856,-6.63549 3.39596,-9.45455 4.39336,-4.07755 9.68382,-4.00716 13.87558,0.18462 7.40459,7.40457 1.19445,18.96354 -9.33336,17.37221 z m 158.58464,61.06354 c 4.888,-2.5467 13.7252,-12.67128 16.71825,-19.15371 2.43741,-5.27901 2.96026,-7.89858 2.98503,-14.95576 0.0522,-14.84005 -1.57077,-17.13848 -37.26084,-52.77055 -18.4334,-18.403452 -30.44244,-29.646702 -30.44244,-28.501192 0,2.91476 -5.18555,14.56168 -8.8631,19.906812 -1.81423,2.63689 -8.70513,10.36198 -15.31311,17.16684 l -12.01452,12.3725 33.29536,33.17571 c 24.2153,24.12828 34.16805,33.36887 36.49537,33.88399 1.76,0.38953 3.68,0.8735 4.26667,1.07545 1.62058,0.5579 7.13972,-0.64039 10.13333,-2.20009 z M 22.347984,364.56443 c -3.06515,-1.14032 -6.35432,-6.03373 -6.35432,-9.45355 0,-1.25351 1.50857,-5.17774 3.35238,-8.7205 6.0364,-11.59856 4.54729,-19.0823 -6.55397,-32.93789 -7.3461685,-9.16883 -10.3860025,-15.39964 -11.94312252,-24.48006 -1.506375,-8.7845 -0.176569,-17.42388 4.03073902,-26.1866 3.242308,-6.75288 14.6924635,-20.59116 18.1140435,-21.89204 4.00259,-1.52179 10.09955,0.95365 12.50048,5.07532 2.78397,4.77926 1.72958,8.41618 -4.7861,16.50878 -8.91209,11.06898 -11.03394,17.96122 -8.1733,26.54877 0.6643,1.99421 4.48056,7.95114 8.48058,13.23764 4.00001,5.2865 8.27171,11.87011 9.49266,14.63027 2.87049,6.48923 4.02537,15.708 2.97627,23.75792 -0.92454,7.09413 -5.80127,18.05239 -9.57805,21.52241 -2.97385,2.73229 -7.89966,3.75064 -11.55829,2.38953 z m 424.992976,0.12124 c -3.23431,-1.32392 -6.81399,-6.2709 -6.81399,-9.41665 0,-1.48268 1.1495,-4.65794 2.55446,-7.05615 7.16221,-12.22566 6.12641,-18.95277 -5.27005,-34.22705 -10.15849,-13.61506 -12.51991,-19.5277 -12.56728,-31.46666 -0.0525,-13.22224 4.22158,-22.91696 15.82065,-35.88565 4.94831,-5.5326 5.90415,-6.13596 9.55653,-6.03243 7.03476,0.1994 12.36932,6.33605 10.83211,12.46079 -0.33836,1.34815 -3.49737,6.18078 -7.02,10.73918 -11.47425,14.84804 -11.44945,22.55117 0.1191,36.99114 11.43271,14.27041 15.61166,26.54318 13.57268,39.8603 -1.10799,7.23656 -6.02228,18.15665 -9.6856,21.52241 -2.89346,2.65843 -7.94571,3.80137 -11.09861,2.51077 z M 97.353294,320.46866 c -5.02091,-4.22482 -5.32506,-7.76619 -1.32678,-15.44863 6.549736,-12.58491 5.552966,-18.61572 -5.48251,-33.17105 -4.19195,-5.529 -8.53848,-12.19144 -9.65897,-14.80541 -4.28146,-9.98825 -4.28369,-24.41764 -0.005,-34.3436 2.78451,-6.4601 14.46822,-21.67751 17.81422,-23.20204 7.151606,-3.2585 14.067346,0.34503 15.074606,7.8548 0.53106,3.95934 0.0999,4.92289 -5.48772,12.265 -8.2311,10.81557 -9.431726,13.39138 -9.431726,20.23477 0,6.86762 1.760956,10.71539 8.996426,19.65759 14.46895,17.88196 17.1758,34.6713 8.45134,52.42 -3.91768,7.97 -6.1593,10.07848 -11.47255,10.79114 -3.38869,0.45451 -4.73698,0.048 -7.471036,-2.25257 z M 521.783,320.23931 c -4.91262,-4.5275 -5.14835,-7.39129 -1.22073,-14.83134 4.0721,-7.71377 5.13464,-15.46212 2.86519,-20.8937 -0.88614,-2.12084 -4.74204,-7.95946 -8.56867,-12.9747 -9.679,-12.68549 -11.58916,-17.26363 -12.20899,-29.26149 -0.75055,-14.52854 2.15722,-21.7457 15.2105,-37.75279 7.67435,-9.41099 19.01192,-7.83147 20.44437,2.84825 0.53577,3.99451 0.10314,4.95256 -5.77889,12.79834 -8.436,11.25232 -9.01215,12.50896 -9.01215,19.6565 0,7.16931 1.03478,9.38467 9.72688,20.82411 7.69118,10.12217 10.12822,14.97948 11.95635,23.83037 1.78321,8.63347 0.0332,19.41791 -4.54477,28.00705 -4.13772,7.76315 -6.103,9.535 -11.3577,10.2398 -3.56421,0.47805 -4.69848,0.10197 -7.51139,-2.4904 z"
       id="path1028" />
  </g>
</svg>
