<?xml version="1.0" encoding="UTF-8" standalone="no"?>
<!-- Created with Inkscape (http://www.inkscape.org/) -->

<svg
   version="1.1"
   id="svg2"
   width="512"
   height="512"
   viewBox="0 0 512 512"
   xmlns="http://www.w3.org/2000/svg"
   xmlns:svg="http://www.w3.org/2000/svg">
  <defs
     id="defs6" />
  <g
     id="g8">
    <path
       style="fill:#fbf4eb"
       d="m 109.12539,510.60449 c -4.17571,-2.31442 -5.03662,-5.27834 -5.07463,-17.47085 l -0.0354,-11.36636 -3.97479,3.59098 c -4.774532,4.3135 -8.042132,5.29159 -12.084447,3.6172 -4.070874,-1.68621 -5.940762,-4.62965 -5.940762,-9.35151 0,-3.66078 0.756278,-4.69758 10.999997,-15.08018 l 11.000002,-11.14913 v -26.69732 c 0,-14.68353 -0.30304,-26.69732 -0.67342,-26.69732 -0.37038,0 -10.913822,5.91576 -23.429877,13.14612 l -22.756458,13.14612 -2.144756,8.10388 c -4.815147,18.19385 -6.023276,21.48058 -8.657418,23.55259 -3.576134,2.81299 -8.489914,2.63585 -12.142672,-0.43775 -3.424286,-2.88134 -4.356942,-6.34202 -3.017017,-11.19483 0.5217,-1.88944 0.807487,-3.83076 0.635082,-4.31403 -0.172405,-0.48328 -4.588463,1.56515 -9.813463,4.55205 -5.225,2.98691 -10.491326,5.43415 -11.702947,5.4383 -5.3446478,0.0183 -10.29705234,-4.74107 -10.29705234,-9.89574 0,-4.59823 2.44370554,-7.16757 12.16583434,-12.79129 5.414678,-3.13209 9.50496,-5.98126 9.089517,-6.33149 -0.415444,-0.35023 -2.594591,-1.15875 -4.84255,-1.79672 -5.693404,-1.61578 -7.9128018,-4.3838 -7.9128018,-9.86878 0,-3.6705 0.5078,-4.91839 2.8057638,-6.89501 3.824731,-3.2899 7.475373,-3.10895 22.863505,1.13324 l 12.86516,3.54667 22.982786,-13.23276 c 12.640532,-7.27801 22.982782,-13.51296 22.982782,-13.85543 0,-0.34247 -10.321659,-6.57982 -22.937024,-13.86077 l -22.937027,-13.2381 -13.09094,3.54686 c -15.625248,4.23352 -18.933416,4.39849 -22.729242,1.13345 -2.2979638,-1.97662 -2.8057638,-3.22451 -2.8057638,-6.89501 0,-5.48498 2.2193978,-8.253 7.9128018,-9.86878 2.247959,-0.63797 4.428931,-1.44832 4.846606,-1.80078 0.417674,-0.35245 -3.48904,-3.08909 -8.681587,-6.08142 C 0.47173616,327.95533 -2.0604734,323.9149 1.4403662,317.14503 c 1.530607,-2.95987 5.312249,-5.14968 8.8720478,-5.13748 1.211621,0.004 6.477947,2.45139 11.702947,5.4383 5.225,2.9869 9.641058,5.03533 9.813463,4.55205 0.172405,-0.48327 -0.113382,-2.42459 -0.635082,-4.31403 -1.339925,-4.85281 -0.407269,-8.31349 3.017017,-11.19483 3.652758,-3.0736 8.566538,-3.25074 12.142672,-0.43775 2.634142,2.07201 3.842271,5.35874 8.657418,23.55259 l 2.144756,8.10388 22.756458,13.14612 C 92.428118,358.08424 102.97156,364 103.34194,364 c 0.37038,0 0.67342,-12.01379 0.67342,-26.69732 V 310.60536 L 93.015358,299.45623 c -10.243719,-10.3826 -10.999997,-11.4194 -10.999997,-15.08018 0,-4.72186 1.869888,-7.6653 5.940762,-9.35151 4.042315,-1.67439 7.309915,-0.6963 12.084447,3.6172 l 3.97479,3.59098 V 271.0667 c 0,-12.3368 1.08239,-15.87195 5.47206,-17.87201 4.46147,-2.03279 7.49004,-1.43259 11.12794,2.20531 l 3.4,3.4 v 11.80295 11.80295 l 3.75,-3.59426 c 4.60353,-4.41234 7.27449,-5.28869 11.68379,-3.83349 4.22768,1.39526 6.56621,4.82858 6.56621,9.64022 0,3.35237 -1.00303,4.70535 -11,14.83786 l -11,11.14913 v 26.69732 c 0,14.68353 0.27642,26.69732 0.61428,26.69732 0.33785,0 10.87001,-5.92303 23.40479,-13.16228 l 22.79052,-13.16229 3.76374,-14.39064 c 3.21108,-12.27751 4.19079,-14.74997 6.67194,-16.83771 4.13158,-3.4765 9.06206,-3.2936 12.83165,0.476 3.1569,3.15689 3.71551,6.82707 1.96704,12.92364 -1.15167,4.01562 -1.45394,4.09473 10.46221,-2.73787 C 211.42197,314.29898 216.68072,312 218.20762,312 c 1.65007,0 4.09168,1.17539 6.01924,2.89766 2.63966,2.35854 3.24305,3.64607 3.24305,6.92013 0,5.2146 -1.80689,7.13545 -12.67541,13.47482 -4.80075,2.80018 -8.51045,5.30941 -8.24378,5.57609 0.26667,0.26667 2.61781,1.1928 5.22475,2.05808 8.29927,2.75462 10.5936,10.81041 4.74468,16.65934 -3.31149,3.31149 -7.09159,3.12732 -22.71956,-1.10693 l -12.99477,-3.52081 -22.89523,13.1666 c -12.59238,7.24163 -22.89523,13.46701 -22.89523,13.83418 0,0.36717 10.2862,6.60978 22.85821,13.87248 l 22.85821,13.20491 13.21494,-3.51828 c 15.8634,-4.22338 19.28694,-4.39088 22.57343,-1.10439 5.84892,5.84893 3.55459,13.90472 -4.74468,16.65934 -2.60694,0.86528 -4.95808,1.79141 -5.22475,2.05808 -0.26667,0.26668 3.44303,2.77591 8.24378,5.57609 10.86852,6.33937 12.67541,8.26022 12.67541,13.47482 0,3.27406 -0.60339,4.56159 -3.24305,6.92013 -1.92756,1.72227 -4.36917,2.89766 -6.01924,2.89766 -1.5269,0 -6.78565,-2.29898 -11.68609,-5.10885 -11.91615,-6.8326 -11.61388,-6.75349 -10.46221,-2.73787 1.74847,6.09657 1.18986,9.76675 -1.96704,12.92364 -3.76959,3.7696 -8.70007,3.9525 -12.83165,0.476 -2.48102,-2.08763 -3.4608,-4.55998 -6.67038,-16.83177 l -3.76219,-14.3847 -22.74628,-13.16822 C 135.57133,405.9257 125.03848,400 124.67544,400 c -0.36305,0 -0.66008,12.01379 -0.66008,26.69732 v 26.69732 l 11,11.14913 c 9.39022,9.51753 11,11.6179 11,14.35234 0,4.90055 -2.48493,8.7788 -6.46691,10.09297 -4.40795,1.45475 -6.75729,0.70661 -11.64363,-3.70792 l -3.88946,-3.51388 V 493.48364 505.2 l -3.4,3.4 c -3.69891,3.69891 -7.29952,4.32706 -11.48993,2.00449 z M 337.41532,508.6 c -2.45,-2.45 -3.4,-4.29412 -3.4,-6.6 0,-2.30588 0.95,-4.15 3.4,-6.6 2.45,-2.45 4.29412,-3.4 6.6,-3.4 2.30588,0 4.15,0.95 6.6,3.4 2.45,2.45 3.4,4.29412 3.4,6.6 0,2.30588 -0.95,4.15 -3.4,6.6 -2.45,2.45 -4.29412,3.4 -6.6,3.4 -2.30588,0 -4.15,-0.95 -6.6,-3.4 z m 77.55056,-51.89846 c -9.07224,-2.57347 -18.18156,-10.56607 -22.25397,-19.52587 -3.00686,-6.61544 -2.9977,-19.75558 0.0184,-26.3929 2.99104,-6.58219 10.50182,-14.25058 17.16049,-17.5206 4.80242,-2.35844 6.8669,-2.76217 14.12452,-2.76217 7.25762,0 9.3221,0.40373 14.12454,2.76217 6.65867,3.27002 14.16945,10.93841 17.16049,17.5206 3.02558,6.65821 3.02558,19.77625 0,26.43446 -2.93207,6.45242 -10.46699,14.23544 -16.76455,17.31655 -6.34889,3.10622 -16.85513,4.07249 -23.56992,2.16776 z m 15.80858,-20.69614 c 9.43412,-5.75205 9.43412,-18.25875 0,-24.0108 -11.68936,-7.12709 -25.89163,7.07518 -18.76454,18.76454 2.56739,4.21087 7.58393,7.23338 12.0054,7.23338 1.925,0 4.96661,-0.8942 6.75914,-1.98712 z m 66.35093,-81.40091 c -5.58731,-3.09681 -6.60344,-9.90157 -2.21241,-14.81599 2.39795,-2.68376 3.62279,-3.24305 7.10234,-3.24305 9.99437,0 13.62774,13.49297 4.85497,18.02955 -3.39665,1.75647 -6.6115,1.7662 -9.7449,0.0295 z m -156.68987,-0.74904 c -1.14389,-0.55505 -2.87553,-2.35625 -3.84809,-4.00267 -4.87731,-8.25663 5.00572,-18.16881 13.25609,-13.29519 10.99692,6.49604 2.08807,22.87614 -9.408,17.29786 z m -93.46964,-65.15391 c -9.07224,-2.57347 -18.18156,-10.56607 -22.25397,-19.52587 -3.00686,-6.61544 -2.9977,-19.75558 0.0184,-26.3929 2.99104,-6.58219 10.50182,-14.25058 17.16049,-17.5206 4.80242,-2.35844 6.8669,-2.76217 14.12452,-2.76217 7.25762,0 9.3221,0.40373 14.12454,2.76217 6.65867,3.27002 14.16945,10.93841 17.16049,17.5206 3.02558,6.65821 3.02558,19.77625 0,26.43446 -2.93207,6.45242 -10.46699,14.23544 -16.76455,17.31655 -6.34889,3.10622 -16.85513,4.07249 -23.56992,2.16776 z m 15.80858,-20.69614 c 9.43412,-5.75205 9.43412,-18.25875 0,-24.0108 -11.68936,-7.12709 -25.89163,7.07518 -18.76454,18.76454 2.56739,4.21087 7.58393,7.23338 12.0054,7.23338 1.925,0 4.96661,-0.8942 6.75914,-1.98712 z M 391.41532,256.6 l -3.4,-3.4 v -11.79617 -11.79616 l -3.25,3.07617 c -4.50315,4.2623 -7.38391,5.55548 -10.73573,4.8193 -4.66077,-1.02368 -8.01427,-5.1215 -8.01427,-9.79305 0,-3.77041 0.67573,-4.70208 11,-15.16632 l 11,-11.14913 v -26.69732 c 0,-14.68353 -0.27615,-26.69732 -0.61367,-26.69732 -0.33751,0 -10.87263,5.93436 -23.41138,13.18747 l -22.79771,13.18747 -3.75716,14.36545 c -3.20474,12.25327 -4.18476,14.72526 -6.66535,16.81253 -4.13158,3.4765 -9.06206,3.2936 -12.83165,-0.476 -3.1569,-3.15689 -3.71551,-6.82707 -1.96704,-12.92364 1.15167,-4.01562 1.45394,-4.09473 -10.46221,2.73787 C 300.60871,197.70102 295.34996,200 293.82306,200 c -1.65007,0 -4.09168,-1.17539 -6.01924,-2.89766 -2.64557,-2.36382 -3.24305,-3.64307 -3.24305,-6.94363 0,-5.25301 2.16386,-7.51508 13.01542,-13.60614 4.694,-2.63477 8.28352,-5.04151 7.97672,-5.34831 -0.30679,-0.3068 -2.69076,-1.26576 -5.2977,-2.13104 -8.29927,-2.75462 -10.5936,-10.81041 -4.74468,-16.65934 3.31182,-3.31182 7.0915,-3.12734 22.7282,1.10927 l 13.00341,3.52315 22.88659,-13.15463 c 12.58763,-7.23505 22.88659,-13.4863 22.88659,-13.89167 0,-0.40537 -10.29896,-6.65662 -22.88659,-13.89167 l -22.88659,-13.15463 -13.00341,3.52315 c -15.6367,4.23661 -19.41638,4.42109 -22.7282,1.10927 -5.84892,-5.84893 -3.55459,-13.90472 4.74468,-16.65934 2.60694,-0.86528 4.99091,-1.82424 5.2977,-2.13104 0.3068,-0.3068 -3.28272,-2.71354 -7.97672,-5.34831 -10.85156,-6.09106 -13.01542,-8.35313 -13.01542,-13.60614 0,-3.30056 0.59748,-4.57981 3.24305,-6.94363 C 289.73138,61.17539 292.17299,60 293.82306,60 c 1.5269,0 6.78565,2.29898 11.68609,5.10885 11.91615,6.83259 11.61388,6.75349 10.46221,2.73787 -1.74847,-6.09657 -1.18986,-9.76675 1.96704,-12.92364 3.76959,-3.7696 8.70007,-3.9525 12.83165,-0.47601 2.48059,2.08728 3.46061,4.55927 6.66535,16.81254 l 3.75716,14.36545 22.79771,13.18747 C 376.52902,106.06564 387.06414,112 387.40165,112 c 0.33752,0 0.61367,-12.0138 0.61367,-26.69732 V 58.60536 l -11,-11.14913 c -10.32427,-10.46424 -11,-11.39591 -11,-15.16632 0,-4.67155 3.3535,-8.76937 8.01427,-9.79305 3.35182,-0.73618 6.23258,0.557 10.73573,4.8193 l 3.25,3.07617 V 18.59617 6.8 l 3.4,-3.4 c 3.6379,-3.6379 6.66647,-4.2381 11.12794,-2.20532 4.38967,2.00007 5.47206,5.53522 5.47206,17.87202 v 11.16602 l 3.97479,-3.59098 c 4.77453,-4.31351 8.04213,-5.29159 12.08445,-3.6172 4.07087,1.68621 5.94076,4.62965 5.94076,9.35151 0,3.66078 -0.75628,4.69758 -11,15.08018 l -11,11.14913 v 26.69732 c 0,14.68352 0.28843,26.69732 0.64096,26.69732 0.35252,0 10.89013,-5.8941 23.41689,-13.098 l 22.77594,-13.098 2.15774,-8.152 c 4.83036,-18.24923 6.03472,-21.52749 8.6704,-23.60072 3.73535,-2.93822 8.63546,-2.66065 12.33489,0.69872 3.26778,2.9674 3.76195,5.31365 2.55629,12.13691 l -0.77517,4.38692 5.36103,-3.06007 c 2.94857,-1.68304 7.38603,-4.21423 9.86103,-5.62487 2.475,-1.41064 5.55557,-2.57022 6.84571,-2.57685 3.22901,-0.0166 7.76266,2.833 9.06908,5.70028 2.88437,6.33051 0.14161,10.76339 -10.32923,16.69417 -4.44706,2.51886 -8.70045,4.97928 -9.45198,5.46759 -0.98243,0.63835 0.0383,1.35443 3.6324,2.54819 6.65818,2.21149 8.73402,4.65223 8.73402,10.2693 0,3.6705 -0.5078,4.91839 -2.80576,6.89501 -3.79799,3.26689 -7.09692,3.09935 -22.65417,-1.15053 l -13.04631,-3.56394 -22.99688,13.30268 c -12.64828,7.31647 -22.99688,13.53782 -22.99688,13.82521 0,0.28739 10.3486,6.50874 22.99688,13.82521 l 22.99688,13.30268 13.04631,-3.56394 c 17.97113,-4.9093 21.29081,-4.69235 24.54688,1.60419 1.82148,3.52236 1.30416,8.18971 -1.21644,10.97494 -0.88315,0.97587 -3.85519,2.52146 -6.60453,3.43465 -3.59406,1.19375 -4.61483,1.90984 -3.6324,2.54819 0.75153,0.48831 5.00492,2.94873 9.45198,5.46759 10.77616,6.10372 13.40779,10.6511 9.98944,17.26146 -1.53186,2.96228 -5.31738,5.15242 -8.87205,5.13298 -1.21162,-0.007 -4.22795,-1.1662 -6.70295,-2.57684 -2.475,-1.41064 -6.91246,-3.94183 -9.86103,-5.62487 l -5.36103,-3.06007 0.77517,4.38691 c 1.20566,6.82327 0.71149,9.16952 -2.55629,12.13692 -3.69943,3.35937 -8.59954,3.63694 -12.33489,0.69871 -2.63568,-2.07322 -3.84004,-5.35148 -8.6704,-23.60071 l -2.15774,-8.152 -22.77594,-13.098 C 419.54641,153.8941 409.0088,148 408.65628,148 c -0.35253,0 -0.64096,12.01379 -0.64096,26.69732 v 26.69732 l 11,11.14913 c 10.24372,10.3826 11,11.4194 11,15.08018 0,4.72186 -1.86989,7.6653 -5.94076,9.35151 -4.04232,1.67439 -7.30992,0.6963 -12.08445,-3.6172 l -3.97479,-3.59098 v 11.0693 c 0,12.25727 -0.96246,15.57553 -5.14503,17.73842 -4.49057,2.32216 -7.71348,1.76649 -11.45497,-1.975 z M 3.3210852,175.58658 c -2.32979104,-2.004 -2.80576404,-3.20617 -2.80576404,-7.08658 0,-5.9774 3.52260504,-9.5 9.49999984,-9.5 5.977396,0 9.5,3.5226 9.5,9.5 0,5.9774 -3.522604,9.5 -9.5,9.5 -2.6687898,0 -4.7685448,-0.75701 -6.6942358,-2.41342 z m 157.9932648,-0.0897 c -3.3992,-2.3809 -4.69588,-7.61134 -2.93294,-11.83065 1.73355,-4.14896 4.18239,-5.66625 9.14509,-5.66625 5.06915,0 9.48882,4.42488 9.48882,9.5 0,7.47381 -9.523,12.32411 -15.70097,7.9969 z M 78.965882,120.70154 c -9.07224,-2.57347 -18.181556,-10.56607 -22.253972,-19.52587 -3.006855,-6.61544 -2.997703,-19.75559 0.01838,-26.3929 2.991038,-6.58219 10.501815,-14.25058 17.160489,-17.52061 8.130223,-3.99268 20.118849,-3.99268 28.249081,0 6.65867,3.27003 14.16945,10.93842 17.16049,17.52061 3.02558,6.65821 3.02558,19.77625 0,26.43446 -2.93207,6.45242 -10.46699,14.23544 -16.76455,17.31655 -6.348892,3.10622 -16.855131,4.07249 -23.569922,2.16776 z M 94.774458,100.0054 C 98.985328,97.438 102.00784,92.42147 102.00784,88 c 0,-4.42147 -3.022512,-9.43801 -7.233382,-12.0054 -11.689361,-7.1271 -25.891631,7.07517 -18.764539,18.76454 2.567396,4.21086 7.583934,7.23338 12.005402,7.23338 1.925,0 4.966617,-0.8942 6.759137,-1.98712 z M 161.12539,18.60449 C 152.15653,13.63343 156.12921,0 166.5466,0 c 1.34044,0 3.89654,1.30395 5.68022,2.89766 8.57672,7.6633 -1.04709,21.27953 -11.10143,15.70683 z"
       id="path1413" />
  </g>
</svg>
