<?xml version="1.0" encoding="UTF-8" standalone="no"?>
<!-- Created with Inkscape (http://www.inkscape.org/) -->

<svg
   version="1.1"
   id="svg827"
   width="512"
   height="512"
   viewBox="0 0 512 512"
   xmlns="http://www.w3.org/2000/svg"
   xmlns:svg="http://www.w3.org/2000/svg">
  <defs
     id="defs831" />
  <g
     id="g833">
    <path
       style="fill:#fbf4eb"
       d="m 350.05,509.25 c -2.28035,-2.1154 -6.32238,-11.03072 -17.51578,-38.63381 -8.57828,-21.15416 -14.55134,-37.24269 -14.55134,-39.19424 0,-4.46909 3.49846,-8.33002 8.23063,-9.08341 4.37719,-0.69687 7.97799,1.22769 10.1423,5.42088 3.25473,6.30582 29.62707,72.30181 29.62707,74.14087 0,5.39834 -4.85724,10.09971 -10.43456,10.09971 -1.39364,0 -3.86788,-1.2375 -5.49832,-2.75 z m -200.679,0.76993 c -3.05761,-1.23541 -6.3873,-5.87313 -6.39327,-8.90479 -0.007,-3.3564 29.62393,-73.89727 32.26525,-76.81327 5.78533,-6.38698 16.7399,-1.86865 16.7399,6.90454 0,1.26816 -6.90779,18.72801 -15.35065,38.79966 -13.62135,32.3828 -15.72208,36.7474 -18.64788,38.74393 -3.50173,2.38954 -5.21659,2.64238 -8.61335,1.26993 z m 101.72195,-20.41544 c -4.60401,-2.55181 -5.03679,-4.76101 -5.07463,-25.90415 -0.0386,-21.56571 0.51466,-24.26306 5.43662,-26.50565 3.46205,-1.57742 6.02259,-1.50738 9.43675,0.25815 4.73234,2.44719 5.2404,5.29621 4.90085,27.48236 l -0.30966,20.23294 -3.26578,2.91593 c -3.5569,3.17587 -7.23128,3.67807 -11.12415,1.52042 z M 394.88865,411.25 c -8.95459,-9.03644 -14.87268,-15.81198 -15.27802,-17.49158 -1.62438,-6.73093 5.43563,-13.77813 12.13067,-12.10866 3.21598,0.80193 30.28156,28.2081 31.58922,31.98672 2.1011,6.07136 -2.75465,12.36352 -9.5411,12.36352 -4.19156,0 -4.60102,-0.31954 -18.90077,-14.75 z M 90.758022,422.49062 c -3.494151,-1.95958 -4.775141,-4.41788 -4.775141,-9.1638 0,-3.57362 0.895688,-4.69223 14.749999,-18.42105 9.35168,-9.26697 15.78826,-14.8673 17.58687,-15.30194 4.34023,-1.04883 9.81445,2.06816 11.49002,6.54235 2.07067,5.52924 0.0683,8.52408 -15.82162,23.66379 -15.021118,14.31192 -17.707048,15.77809 -23.230128,12.68065 z m 149.224858,-7.4827 c -19.69467,-2.28243 -35.90823,-7.05297 -54.5,-16.0356 -49.94598,-24.13145 -83.26848,-72.78916 -88.547108,-129.29699 -2.63143,-28.16949 3.499348,-59.92682 16.535128,-85.65168 4.22919,-8.34592 11.38532,-10.24122 17.0981,-4.52844 3.45733,3.45733 3.16814,8.48734 -0.98638,17.15636 -4.53783,9.46886 -8.15937,20.47367 -10.77577,32.74437 -3.05773,14.34056 -3.05773,38.86756 0,53.20812 6.29999,29.54651 18.04186,51.41456 38.61591,71.91822 6.08307,6.06226 14.51333,13.37799 18.73393,16.25718 15.9224,10.86189 35.79322,19.12553 54.82619,22.80044 13.89544,2.68296 38.06787,2.49664 51.60406,-0.39777 29.58246,-6.32553 51.41882,-18.05224 71.91822,-38.62201 12.35574,-12.39815 19.19259,-21.78781 26.38287,-36.23393 C 390.981,298.04823 395.39356,279.08867 395.39356,256 c 0,-22.9863 -4.36832,-41.82347 -14.42091,-62.18619 -7.05059,-14.28179 -14.12408,-23.99268 -26.46749,-36.33609 -12.34203,-12.34204 -21.89058,-19.29954 -36.26726,-26.42598 -20.56443,-10.19366 -39.26995,-14.49657 -62.75502,-14.4358 -21.14126,0.0547 -36.97981,3.31942 -55.66761,11.47443 -8.61843,3.76093 -12.13791,3.75795 -15.90931,-0.0135 -3.18648,-3.18648 -3.77776,-7.107 -1.74477,-11.56893 2.0396,-4.47644 22.94902,-12.93206 41.82169,-16.9124 43.73432,-9.2238 91.43627,1.52104 128.01925,28.83629 11.73714,8.76372 28.29631,26.20053 36.30203,38.22607 20.12509,30.23025 29.9567,67.69383 26.80869,102.1552 -2.59714,28.43097 -12.30584,55.46134 -28.42014,79.12565 -7.54284,11.07687 -29.19376,32.35967 -40.66263,39.97126 -19.80673,13.1452 -40.93341,21.64684 -63.53786,25.56842 -11.08908,1.92382 -32.46885,2.69304 -42.50934,1.52944 z M 461.82833,353.65 c -19.61,-8.34199 -36.572,-15.99754 -37.69332,-17.01232 -6.25137,-5.65741 -1.60727,-16.62344 7.04821,-16.64283 3.53387,-0.008 73.95447,29.91823 76.77693,32.62736 3.82115,3.6677 3.47919,9.68725 -0.76577,13.48013 -2.248,2.00858 -4.23539,2.86963 -6.47728,2.80629 -1.77882,-0.0503 -19.27877,-6.91663 -38.88877,-15.25863 z M 5.0929529,364.60449 C 2.130223,362.96238 0.06496545,359.36523 0.01831665,355.76578 -0.05749035,349.91643 3.353868,348.00571 41.429054,332.57134 62.133927,324.1783 78.752417,318 80.62329,318 c 4.403842,0 8.272656,3.52983 9.021051,8.23063 0.703837,4.42093 -1.23248,7.97906 -5.559987,10.2169 -7.149382,3.69709 -72.203902,29.54868 -74.2784641,29.51703 -1.277655,-0.0195 -3.398477,-0.63152 -4.712937,-1.36007 z M 290.23802,356.78631 c -7.84497,-2.03284 -8.95626,-14.32331 -1.59822,-17.67585 4.31668,-1.96682 8.26769,-1.3397 11.42,1.81262 3.78815,3.78815 3.95361,8.69875 0.43404,12.88152 -2.84346,3.37926 -5.61359,4.18463 -10.25582,2.98171 z m 34.66794,-28.70939 c -4.60758,-4.60757 -4.05263,-9.01422 2.15056,-17.07692 18.01569,-23.41618 23.53172,-55.23178 14.35045,-82.77105 -3.15721,-9.47005 -3.13126,-13.24905 0.11323,-16.49355 3.38347,-3.38346 6.70516,-4.07875 10.97091,-2.29641 4.03233,1.68482 6.26788,5.99344 9.48745,18.2854 8.08199,30.85617 2.90688,62.66433 -14.43602,88.7291 -9.80042,14.72912 -16.22963,18.03039 -22.63658,11.62343 z m 118.36105,-60.74186 c -1.21872,-0.25587 -3.40333,-1.87644 -4.85469,-3.60128 -2.20009,-2.61467 -2.54857,-3.80896 -2.09596,-7.18336 0.35852,-2.67303 1.43166,-4.81181 3.16045,-6.29886 2.53546,-2.18091 3.27684,-2.25156 23.62758,-2.25156 12.49757,0 21.78946,0.41717 22.93388,1.02964 2.42529,1.29798 4.94461,6.08986 4.94461,9.40492 0,1.39364 -1.31227,4.00349 -2.91616,5.79966 l -2.91617,3.26578 -19.83383,0.15014 c -10.90861,0.0826 -20.83098,-0.0592 -22.04971,-0.31508 z M 24.476811,261.74844 c -1.741884,-1.49831 -2.801871,-3.62542 -3.168408,-6.35816 -0.478429,-3.56696 -0.152569,-4.5523 2.479805,-7.49843 L 26.818823,244.5 h 21.664058 21.664058 l 2.917971,3.26578 c 1.604884,1.79617 2.917971,4.40602 2.917971,5.79966 0,3.31506 -2.519316,8.10694 -4.944609,9.40492 C 69.893855,263.58283 60.601957,264 48.104386,264 27.753653,264 27.012274,263.9293 24.476811,261.74844 Z m 400.999999,-70 c -1.76179,-1.51543 -2.80179,-3.62478 -3.18096,-6.45173 -0.94781,-7.0665 0.74802,-8.0731 41.42023,-24.58603 C 483.64434,152.61981 500.83566,146 501.91903,146 c 5.36308,0 10.06385,4.87393 10.06385,10.43456 0,5.70689 -3.66654,7.74636 -41.3981,23.02716 C 449.55553,187.9783 433.32143,194 431.39054,194 c -1.97718,0 -4.34357,-0.90097 -5.91373,-2.25156 z M 41.74032,176.63281 C 22.081911,168.28739 4.9921389,160.4537 3.7630469,159.22461 c -1.5857314,-1.58573 -2.2347112,-3.4246 -2.2347112,-6.332 0,-3.38996 0.5816194,-4.61696 3.3691192,-7.10759 2.803051,-2.50453 3.975349,-2.9238 6.9772731,-2.49545 4.877933,0.69606 73.038289,29.42792 75.80628,31.95488 6.596024,6.02165 1.73162,16.97454 -7.398467,16.6587 -1.539813,-0.0533 -18.883813,-6.92492 -38.542221,-15.27034 z m 104.51602,-23.15935 c -3.11912,-3.11912 -3.45773,-3.95048 -2.93102,-7.19625 1.41473,-8.71794 11.054,-11.87472 16.7599,-5.48871 4.41964,4.94644 3.3652,11.88413 -2.24737,14.7865 -4.53637,2.34585 -7.71,1.76997 -11.58151,-2.10154 z m 240.93911,-21.98007 c -3.9155,-1.7012 -6.59813,-7.109 -5.56618,-11.22061 0.80144,-3.19321 28.25248,-30.32945 31.98722,-31.62041 6.04291,-2.08881 12.36639,2.75468 12.36639,9.47206 0,4.07543 -0.45378,4.6733 -13.67173,18.01301 -12.01452,12.12518 -18.04227,16.95885 -20.9794,16.82342 -0.46688,-0.0215 -2.32821,-0.68189 -4.1363,-1.46747 z M 120.01971,130.254 c -1.5244,-0.27786 -7.89624,-6.03342 -16.7185,-15.10149 C 87.865197,99.28641 86.456228,96.85291 89.404731,91.15113 91.379694,87.33197 93.754032,86 98.587022,86 c 3.459208,0 4.756608,1.01167 17.533298,13.67174 7.58871,7.51944 14.51651,15.18658 15.3951,17.03807 3.50669,7.3898 -3.02704,15.08781 -11.49571,13.54419 z M 325.48288,89.88954 c -3.2917,-1.89287 -5.45415,-5.20367 -5.47776,-8.38668 -0.03,-4.03727 29.52486,-74.31622 32.58317,-77.48013 3.74241,-3.87163 9.70237,-3.48107 13.60957,0.89185 2.49793,2.79567 2.92466,3.98325 2.50712,6.97727 -0.71388,5.11892 -29.5356,73.13708 -32.15694,75.88918 -2.5437,2.67056 -8.21007,3.75032 -11.06516,2.10851 z M 178.24902,87.36265 C 175.9206,85.15376 171.89165,76.24172 160.60718,48.33884 152.56381,28.45021 145.98288,11.21536 145.98288,10.03918 145.98288,4.65468 150.86571,0 156.51416,0 c 5.57023,0 7.68332,3.81879 22.91662,41.41511 8.47583,20.91867 14.5521,37.28432 14.5521,39.19424 0,4.67885 -3.51719,8.38208 -8.60972,9.06513 -3.55016,0.47618 -4.51545,0.16294 -7.12414,-2.31183 z m 71.49964,-12.28062 -3.26578,-2.91797 V 49.5 26.83595 l 3.26578,-2.91798 c 3.50613,-3.13272 6.58629,-3.62593 10.76216,-1.72328 4.93985,2.25075 5.47206,4.89702 5.47206,27.2086 0,22.21579 -0.4818,24.76026 -5.14503,27.17171 -4.19088,2.16719 -7.48985,1.72304 -11.08919,-1.49297 z"
       id="path1292" />
  </g>
</svg>
