<?xml version="1.0" encoding="UTF-8" standalone="no"?>
<!-- Created with Inkscape (http://www.inkscape.org/) -->

<svg
   width="91.967888mm"
   height="72.669609mm"
   viewBox="0 0 91.967886 72.669609"
   version="1.1"
   id="svg1048"
   xmlns="http://www.w3.org/2000/svg"
   xmlns:svg="http://www.w3.org/2000/svg">
  <defs
     id="defs1045" />
  <g
     id="layer1"
     transform="translate(-123.95568,-187.01356)">
    <path
       style="fill:#fbf4eb;fill-opacity:1;stroke-width:0.264583"
       d="m 169.14735,259.65431 c 0,-0.0708 1.51805,-0.88799 3.37344,-1.81605 10.82489,-5.41452 21.43963,-14.10332 27.38807,-22.41878 3.33082,-4.65621 6.78923,-12.6528 7.60443,-17.58303 0.65414,-3.95617 0.24814,-10.1083 -0.86421,-13.0954 -2.02002,-5.42458 -8.10215,-10.39461 -13.16622,-10.75881 -3.58387,-0.25774 -7.53527,1.5001 -10.27054,4.569 -2.19828,2.46642 -5.19584,8.22538 -6.18195,11.87688 l -0.35726,1.32292 -4.2259,1.38588 c -2.32425,0.76223 -4.52209,1.41707 -4.8841,1.45521 -0.58396,0.0615 -0.80621,-0.2142 -1.97029,-2.44422 -2.2098,-4.23328 -6.29754,-7.82672 -11.91773,-10.4766 -3.05051,-1.43829 -5.10916,-1.95882 -7.747,-1.95882 -4.41321,0 -7.50407,1.2022 -10.33952,4.02157 -4.3924,4.36747 -5.51026,10.35579 -3.4705,18.59131 1.95681,7.90069 11.60336,19.22308 23.84375,27.98599 2.52576,1.80819 6.75125,3.99642 9.87824,5.11557 l 2.38125,0.85226 -1.2811,0.19305 c -2.26608,0.34148 -8.03886,-0.0141 -10.44831,-0.64362 -5.01713,-1.31077 -10.19176,-4.28531 -16.17142,-9.29583 -5.18773,-4.34695 -10.30485,-10.55018 -12.81055,-15.5296 -1.92413,-3.8237 -3.19284,-8.96175 -3.5171,-14.24359 -0.27302,-4.44721 0.98723,-10.48898 2.84985,-13.66257 4.31781,-7.35678 10.19569,-11.40452 17.97166,-12.376 2.82938,-0.35348 5.51232,-0.0215 9.40396,1.16352 4.53744,1.38171 5.1815,1.69681 8.71134,4.26191 3.05948,2.22329 5.04236,4.05909 6.0833,5.63204 0.40364,0.60995 0.81145,1.10899 0.90625,1.10899 0.0948,0 0.3815,-0.56554 0.63713,-1.25677 1.3249,-3.58258 5.53526,-8.60914 9.02503,-10.77457 3.95592,-2.45468 8.20693,-3.84511 11.74813,-3.84259 0,0 6.05216,0.68816 8.06257,1.44487 2.88594,1.08627 4.61615,2.21605 7.2501,4.73413 3.19025,3.04989 5.68364,6.72341 7.20554,10.61593 1.48168,3.78965 1.86796,5.66585 2.04378,9.92692 0.34789,8.43122 -2.10461,14.97087 -8.68755,23.1656 -2.1804,2.71427 -6.9347,7.47221 -9.61386,9.62124 -5.18144,4.15618 -13.02207,8.58112 -18.76451,10.58993 -3.12751,1.09407 -9.6782,2.81471 -9.6782,2.54213 z m -1.19063,-12.33785 c -0.7276,-0.12286 -2.33494,-0.29419 -3.57187,-0.38073 -1.98317,-0.13875 -2.43658,-0.27245 -3.83646,-1.13135 -1.49804,-0.91911 -1.74405,-0.98198 -4.36562,-1.11563 -2.48853,-0.12687 -2.95704,-0.23433 -4.49446,-1.03085 -0.94397,-0.48907 -2.4806,-1.17689 -3.41471,-1.52849 -2.03201,-0.76485 -2.34704,-1.00157 -4.51265,-3.39087 -2.50146,-2.75986 -4.27042,-5.03862 -6.50324,-8.37749 -2.57088,-3.84437 -3.76299,-6.21426 -3.33914,-6.63811 0.23558,-0.23557 0.49934,-0.19651 1.11037,0.16442 l 0.80139,0.4734 1.2697,-0.81476 c 1.46183,-0.93805 1.63186,-0.95898 3.26642,-0.40203 1.0448,0.356 1.23407,0.53413 1.37699,1.29597 0.21403,1.14091 1.08774,1.40569 2.31803,0.70248 0.48208,-0.27554 1.35275,-0.65006 1.93484,-0.83227 0.58208,-0.1822 1.29318,-0.49294 1.58022,-0.69051 0.28704,-0.19758 0.73353,-0.35923 0.99219,-0.35923 0.25866,0 0.4703,-0.1318 0.4703,-0.29289 0,-0.16109 0.19073,-0.2197 0.42385,-0.13024 0.26993,0.10358 0.8838,-0.22244 1.69037,-0.89774 0.86379,-0.72321 1.52029,-1.06038 2.06465,-1.06038 0.52163,0 1.17466,-0.31457 1.88494,-0.908 1.18999,-0.9942 3.18464,-1.57665 5.44556,-1.59013 1.3827,-0.008 2.03943,0.25788 3.86569,1.56646 l 1.09991,0.78812 2.94116,-1.52764 c 2.93003,-1.52186 3.64257,-1.72326 4.39637,-1.24267 0.27691,0.17655 0.11697,0.20936 -0.52917,0.10856 -0.7661,-0.11952 -1.35019,0.0869 -3.38182,1.19519 -3.3877,1.84803 -3.52276,1.86724 -5.00542,0.7121 -1.43879,-1.12094 -2.86789,-1.57167 -4.25054,-1.34057 -2.17055,0.3628 -3.9283,1.00301 -4.76089,1.73403 -0.52642,0.4622 -1.17528,0.76913 -1.62598,0.76913 -0.47921,0 -1.23831,0.38882 -2.10258,1.07696 -0.74394,0.59233 -1.46037,1.01036 -1.59208,0.92896 -0.13172,-0.0814 -0.38553,0.028 -0.56402,0.24304 -0.1785,0.21508 -0.40946,0.33857 -0.51325,0.27442 -0.10379,-0.0641 -0.76532,0.17529 -1.47007,0.53208 -0.70475,0.35679 -1.44596,0.64871 -1.64713,0.64871 -0.20116,0 -0.82293,0.26312 -1.38169,0.5847 -0.85875,0.49423 -1.12114,0.53677 -1.69582,0.27492 -0.4206,-0.19163 -0.76345,-0.63224 -0.89899,-1.15533 -0.18719,-0.72236 -0.40572,-0.89996 -1.5,-1.21904 l -1.28088,-0.37349 -1.30596,0.81183 c -1.50611,0.93625 -1.60418,0.95231 -2.44623,0.40058 -0.94228,-0.61741 -0.9949,-0.12198 -0.16235,1.52856 1.77605,3.52104 5.81407,9.0898 9.63182,13.28309 1.60182,1.75938 2.19676,2.22424 3.3738,2.63616 0.78597,0.27505 2.48699,1.01919 3.78004,1.65364 2.21674,1.08766 2.48118,1.15388 4.63021,1.15936 2.3245,0.006 2.62303,0.0954 5.32191,1.59537 0.50933,0.28306 1.28323,0.51271 1.71979,0.51032 0.43657,-0.002 2.46183,0.19499 4.50058,0.43864 2.03876,0.24364 4.14438,0.3609 4.67915,0.26058 0.53478,-0.10033 1.71693,-0.73056 2.62701,-1.40052 1.53674,-1.13129 1.81613,-1.23582 3.91981,-1.46651 1.48457,-0.1628 2.87303,-0.515 4.02926,-1.02208 1.30074,-0.57047 2.1771,-0.7737 3.33627,-0.7737 1.24415,0 1.90836,-0.1734 3.18374,-0.83116 3.79572,-1.95761 11.07632,-9.54553 12.98426,-13.53234 1.22711,-2.56414 1.24578,-2.74942 0.27982,-2.77689 -0.45049,-0.0128 -1.13052,-0.22735 -1.51117,-0.47677 -1.03919,-0.6809 -4.08131,-1.39186 -7.26528,-1.69794 -1.56126,-0.15008 -3.14658,-0.38996 -3.52296,-0.53305 -0.37637,-0.1431 -1.09009,-0.26018 -1.58605,-0.26018 -0.81988,0 -2.20771,-0.49519 -4.15704,-1.48327 -3.42003,-1.73356 -3.92341,-1.95631 -4.4209,-1.95631 -0.26148,0 -0.89112,0.17369 -1.39919,0.38598 -0.84403,0.35265 -1.01155,0.34123 -1.94034,-0.13229 -1.22753,-0.62583 -1.91757,-0.65296 -2.69835,-0.10607 -0.5934,0.41563 -1.11674,0.32395 -1.11674,-0.19563 0,-0.18956 0.11804,-0.1834 0.36177,0.0189 0.2739,0.22732 0.43652,0.21017 0.66954,-0.0706 0.53146,-0.64038 1.66821,-0.69183 2.48203,-0.11234 0.57055,0.40627 0.97699,0.49145 1.72537,0.36161 2.6448,-0.45886 2.85923,-0.46154 3.20896,-0.0401 0.1916,0.23087 0.52081,0.41976 0.73157,0.41976 0.21077,0 1.05939,0.35276 1.88584,0.78392 2.39218,1.24799 3.80578,1.80674 4.94221,1.95347 0.58208,0.0752 2.1299,0.27056 3.43958,0.43423 3.82091,0.47748 7.57998,1.29724 8.53653,1.86163 1.00231,0.59137 1.92383,0.67244 2.38636,0.20991 1.3191,-1.3191 -0.27569,3.01948 -2.1278,5.78861 -1.5014,2.24478 -6.59523,7.64472 -9.06587,9.61067 -2.30835,1.8368 -4.12956,2.63511 -6.01888,2.63831 -1.13313,0.002 -1.98645,0.21084 -3.30725,0.80971 -1.28043,0.58058 -2.35887,0.85177 -3.84207,0.96614 -1.71449,0.13221 -2.26722,0.29717 -3.2798,0.97881 -2.88009,1.93881 -3.03773,2.00308 -4.84476,1.97495 -0.94588,-0.0147 -2.3151,-0.12729 -3.04271,-0.25015 z m -5.96428,-7.05657 c 0.14962,-0.25466 1.09455,-1.35056 2.09985,-2.43533 1.52626,-1.6469 1.89254,-1.91858 2.22009,-1.64674 0.32613,0.27066 0.59388,0.10132 1.5879,-1.00426 0.65759,-0.7314 1.31179,-1.32982 1.45379,-1.32982 0.14199,0 0.82556,0.66415 1.51905,1.47589 l 1.26089,1.47588 0.52912,-0.52912 0.52913,-0.52913 1.72515,2.1621 c 0.94884,1.18915 1.83925,2.31092 1.9787,2.49282 0.20147,0.26282 -1.33056,0.33073 -7.46109,0.33073 -7.2745,0 -7.6991,-0.0264 -7.44258,-0.46302 z m 14.29866,-0.19844 c -0.18116,-0.21828 -0.53835,-0.39687 -0.79375,-0.39687 -0.25541,0 -0.59808,-0.16111 -0.76151,-0.35802 -0.202,-0.2434 -0.69945,-0.32069 -1.55375,-0.24142 -1.16281,0.1079 -1.32445,0.046 -2.16534,-0.82943 -0.86077,-0.89612 -0.93463,-0.92258 -1.39994,-0.50148 -0.46521,0.42101 -0.54127,0.39451 -1.43605,-0.50027 l -0.94482,-0.94482 -0.9426,1.04334 c -0.7188,0.79562 -1.08159,1.00846 -1.52797,0.89643 -0.46034,-0.11554 -0.79336,0.10688 -1.559,1.04125 l -0.97361,1.18817 h 7.19386 c 6.36454,0 7.15589,-0.0457 6.86448,-0.39688 z m -1.74127,-2.24896 c -0.68596,-0.87312 -1.28499,-1.5875 -1.33116,-1.5875 -0.0462,0 -0.2047,0.22563 -0.35228,0.50139 -0.20527,0.38354 -0.16082,0.58564 0.18912,0.85989 0.41955,0.3288 0.42684,0.31466 0.088,-0.17065 -0.20319,-0.29104 0.154,0.0235 0.79375,0.69905 1.67327,1.76682 2.08029,1.56604 0.61254,-0.30218 z m -1.16915,0.85683 c 0,-0.11083 -0.9094,-1.18982 -2.0209,-2.39775 l -2.0209,-2.19624 -0.88951,0.86215 c -0.48924,0.47418 -0.88632,0.92809 -0.8824,1.00869 0.004,0.0806 0.35088,0.56119 0.77103,1.06799 l 0.76392,0.92146 0.56643,-0.51261 0.56644,-0.51262 0.898,0.98022 c 0.58606,0.63972 1.13245,0.98022 1.57295,0.98022 0.37122,0 0.67494,-0.0907 0.67494,-0.20151 z m -7.52392,-1.24206 c 0.62741,-0.95755 0.20285,-1.33322 -0.53598,-0.47428 -0.59759,0.69474 -0.64826,1.1241 -0.13267,1.1241 0.13358,0 0.43448,-0.29242 0.66865,-0.64982 z m -2.87087,-5.33526 c -0.2527,-0.2527 -0.24307,-9.09815 0.01,-9.08896 0.10914,0.004 1.00826,1.07553 1.99805,2.38125 0.98978,1.30572 1.88513,2.37404 1.98967,2.37404 0.10454,0 1.00233,-1.08441 1.99508,-2.40979 1.11759,-1.49205 1.89908,-2.31573 2.052,-2.16281 0.13902,0.13902 0.21511,2.14649 0.17406,4.5926 l -0.0729,4.34562 -0.75983,0.0868 c -0.41791,0.0478 -0.87742,-0.0307 -1.02112,-0.17445 -0.17199,-0.17198 -0.003,-0.24687 0.49525,-0.21912 0.4161,0.0232 0.7863,-0.0471 0.82268,-0.15628 0.0364,-0.10914 0.0661,-2.00635 0.0661,-4.21601 v -4.01759 l -1.78594,2.42043 c -0.98226,1.33123 -1.8596,2.42476 -1.94963,2.43007 -0.09,0.005 -0.983,-1.07228 -1.98437,-2.39466 l -1.82069,-2.40432 -0.0735,3.91405 c -0.0404,2.15273 -0.011,4.07691 0.0653,4.27596 0.0764,0.19905 0.34759,0.32217 0.6027,0.2736 0.38523,-0.0734 0.48623,-0.46592 0.59611,-2.31674 l 0.13229,-2.22843 1.13305,1.50344 c 0.62318,0.82689 1.22744,1.50343 1.3428,1.50343 0.11536,0 0.67705,-0.65228 1.2482,-1.4495 0.57115,-0.79723 1.10255,-1.45207 1.1809,-1.45521 0.0784,-0.003 0.1757,0.88726 0.21635,1.97867 0.051,1.36817 -0.0211,1.98437 -0.2321,1.98437 -0.20757,0 -0.27716,-0.51076 -0.21635,-1.58798 0.0493,-0.87339 0.0301,-1.58509 -0.0426,-1.58155 -0.0728,0.004 -0.54901,0.59639 -1.05833,1.31745 -0.50933,0.72106 -1.0052,1.3137 -1.10195,1.31697 -0.0967,0.003 -0.63253,-0.6175 -1.19062,-1.3795 l -1.01473,-1.38544 -0.13229,1.98076 -0.13229,1.98075 -0.67136,0.0783 c -0.36925,0.0431 -0.7562,-0.007 -0.85989,-0.11025 z m 9.18287,-0.19273 c -0.0753,-0.19634 -0.10138,-1.17861 -0.0579,-2.18282 0.0612,-1.4114 0.16923,-1.82583 0.47602,-1.82583 0.25587,0 0.42674,0.31101 0.48094,0.87532 0.0778,0.81014 0.14676,0.86925 0.92604,0.79375 0.73619,-0.0713 0.8524,-0.18961 0.92489,-0.94147 0.0514,-0.53263 0.22757,-0.85989 0.46302,-0.85989 0.29664,0 0.38011,0.43577 0.38011,1.98437 0,1.09141 0.0213,2.07367 0.0473,2.18281 0.026,0.10915 -0.14448,0.23538 -0.37892,0.28053 -0.31047,0.0598 -0.4491,-0.15582 -0.51035,-0.79375 -0.0743,-0.77383 -0.18425,-0.88549 -0.94399,-0.95875 l -0.8599,-0.0829 v 0.94281 c 0,0.67025 -0.11713,0.9428 -0.40518,0.9428 -0.22285,0 -0.46682,-0.16064 -0.54216,-0.35697 z m 1.8228,-1.70794 c 0.99011,0.0721 1.12407,0.16395 1.27478,0.87429 0.10541,0.49684 0.16427,0.10095 0.15736,-1.05833 -0.006,-1.01865 -0.0591,-1.46513 -0.11775,-0.99219 l -0.10671,0.85989 h -1.17386 -1.17386 v -0.94165 c 0,-0.5604 -0.10713,-0.87545 -0.26459,-0.77814 -0.30559,0.18887 -0.36294,3.38383 -0.0661,3.68514 0.10914,0.1108 0.23577,-0.23302 0.28141,-0.76404 l 0.083,-0.9655 z m -1.10577,-3.10545 c -0.71838,-0.31187 -0.83212,-0.45902 -0.58496,-0.75683 0.21315,-0.25683 0.63908,-0.32511 1.39529,-0.22368 0.78323,0.10506 1.03565,0.0605 0.90008,-0.15886 -0.10363,-0.16767 -0.35438,-0.30485 -0.55722,-0.30485 -0.90157,0 -1.71663,-0.62316 -1.71663,-1.31247 0,-0.9749 0.46103,-1.33402 1.70656,-1.32931 1.43788,0.005 1.84435,0.27173 1.38133,0.90494 -0.29774,0.40719 -0.44407,0.43147 -0.95443,0.15833 -0.39057,-0.20902 -0.69338,-0.23199 -0.86013,-0.0652 -0.16675,0.16676 0.14597,0.38497 0.8883,0.61983 0.99902,0.31607 1.15603,0.46927 1.22667,1.19694 0.0607,0.6254 -0.07,0.94029 -0.52189,1.25677 -0.73366,0.51388 -1.14657,0.51647 -2.30297,0.0144 z m 2.47927,-1.04734 c 0,-0.70313 -0.12995,-0.83487 -1.13822,-1.15389 -0.81458,-0.25774 -1.1126,-0.48343 -1.04813,-0.79375 0.067,-0.32255 0.34458,-0.41836 1.08363,-0.37404 0.59166,0.0355 0.92903,-0.0448 0.83407,-0.19844 -0.1953,-0.31601 -1.71584,-0.33369 -2.2019,-0.0256 -0.19463,0.12337 -0.31369,0.50516 -0.26458,0.84841 0.0677,0.47322 0.34516,0.6956 1.14763,0.91981 0.58209,0.16264 1.09487,0.48323 1.13952,0.71243 0.10797,0.55415 -0.84236,0.83338 -1.54906,0.45516 -0.64654,-0.34601 -1.09427,-0.092 -0.50884,0.28864 0.21406,0.13919 0.86546,0.22202 1.44754,0.18405 0.9842,-0.0642 1.05834,-0.12464 1.05834,-0.86278 z"
       id="path1264" />
  </g>
</svg>
