<?xml version="1.0" encoding="UTF-8" standalone="no"?>
<svg
   version="1.1"
   id="Livello_1"
   x="0px"
   y="0px"
   viewBox="0 0 287.21851 332.60078"
   xml:space="preserve"
   sodipodi:docname="logo-min.svg"
   inkscape:export-filename="/home/lelebus/Documents/projects/website-msh/public/logo-min.png"
   inkscape:export-xdpi="78.395103"
   inkscape:export-ydpi="78.395103"
   width="287.21851"
   height="332.60077"
   inkscape:version="1.1.2 (0a00cf5339, 2022-02-04)"
   xmlns:inkscape="http://www.inkscape.org/namespaces/inkscape"
   xmlns:sodipodi="http://sodipodi.sourceforge.net/DTD/sodipodi-0.dtd"
   xmlns="http://www.w3.org/2000/svg"
   xmlns:svg="http://www.w3.org/2000/svg"
   xmlns:rdf="http://www.w3.org/1999/02/22-rdf-syntax-ns#"
   xmlns:cc="http://creativecommons.org/ns#"
   xmlns:dc="http://purl.org/dc/elements/1.1/"><defs
   id="defs35" /><sodipodi:namedview
   id="namedview33"
   pagecolor="#505050"
   bordercolor="#eeeeee"
   borderopacity="1"
   inkscape:pageshadow="0"
   inkscape:pageopacity="0"
   inkscape:pagecheckerboard="0"
   showgrid="false"
   fit-margin-top="0"
   fit-margin-left="0"
   fit-margin-right="0"
   fit-margin-bottom="0"
   inkscape:zoom="1.990036"
   inkscape:cx="144.721"
   inkscape:cy="151.75604"
   inkscape:window-width="1920"
   inkscape:window-height="1131"
   inkscape:window-x="0"
   inkscape:window-y="32"
   inkscape:window-maximized="1"
   inkscape:current-layer="Livello_1" />
<style
   type="text/css"
   id="style2">
	.st0{enable-background:new    ;}
	.st1{fill:#0b1215;}
	.st2{fill:none;stroke:#0b1215;stroke-miterlimit:10;}
	.st3{fill:#0b1215;stroke:#0b1215;stroke-miterlimit:10;}
</style>
<title
   id="title4">Tavola disegno 1</title>
<g
   class="st0"
   id="g8"
   transform="translate(1.1178031,-28.9)">
	<path
   class="st1"
   d="m 173.1,31.4 v 166.7 h -28.7 v -84.4 l -47,62.7 -46.8,-62.7 v 84.4 H 21.8 V 31.4 h 1.8 l 73.7,96.2 73.9,-96.2 z"
   id="path6" />
</g>
<g
   class="st0"
   id="g12"
   transform="translate(1.1178031,-28.9)">
	<path
   class="st1"
   d="m 198.8,95.9 8.3,-11.6 c 4,2.6 8.1,4.9 12.3,6.8 4.2,1.9 8.7,2.8 13.3,2.8 2.5,0 4.6,-0.3 6.5,-0.9 1.9,-0.6 3.5,-1.3 4.8,-2.3 1.3,-1 2.3,-2 2.9,-3.2 0.7,-1.2 1,-2.4 1,-3.6 0,-1.5 -0.5,-2.8 -1.5,-3.9 -1,-1.1 -2.3,-1.9 -3.9,-2.6 -1.6,-0.7 -3.6,-1.3 -5.8,-1.8 -2.2,-0.5 -4.5,-0.9 -6.9,-1.3 -1.6,-0.3 -3.4,-0.6 -5.5,-1 -2.1,-0.4 -4.3,-0.9 -6.5,-1.6 -2.2,-0.7 -4.5,-1.5 -6.6,-2.6 -2.2,-1.1 -4.1,-2.4 -5.9,-4 -1.7,-1.6 -3.1,-3.6 -4.2,-5.8 -1.1,-2.2 -1.6,-4.9 -1.6,-7.9 0,-4.4 0.9,-8.1 2.8,-11 1.9,-2.9 4.3,-5.2 7.2,-6.9 2.9,-1.7 6.2,-2.9 9.8,-3.6 3.6,-0.7 7,-1 10.4,-1 3.3,0 6.3,0.2 8.9,0.6 2.6,0.4 5,1 7.3,1.8 2.2,0.8 4.4,1.8 6.6,3 2.1,1.2 4.4,2.6 6.9,4.3 L 251,50.1 c -3.8,-2.5 -7.4,-4.4 -10.9,-5.7 -3.5,-1.3 -7.1,-2 -11,-2 -1.3,0 -2.8,0.2 -4.5,0.5 -1.7,0.3 -3.2,0.8 -4.7,1.5 -1.5,0.7 -2.7,1.6 -3.7,2.6 -1,1.1 -1.5,2.4 -1.5,3.9 0,1.5 0.6,2.8 1.7,3.8 1.2,1 2.6,1.9 4.5,2.6 1.8,0.7 3.8,1.3 6,1.8 2.2,0.5 4.3,1 6.3,1.4 1.5,0.3 3.3,0.7 5.4,1 2.1,0.3 4.2,0.8 6.4,1.5 2.2,0.6 4.4,1.4 6.6,2.5 2.2,1 4.1,2.4 5.8,4 1.7,1.6 3.1,3.6 4.1,6 1.1,2.4 1.6,5.3 1.6,8.6 0,3.9 -0.7,7.4 -2.2,10.3 -1.5,2.9 -3.5,5.3 -6.2,7.2 -2.7,1.9 -5.9,3.3 -9.6,4.3 -3.7,1 -7.8,1.5 -12.3,1.5 -4.1,0 -7.8,-0.3 -10.9,-0.9 -3.2,-0.6 -6,-1.4 -8.6,-2.4 -2.6,-1 -5.1,-2.2 -7.4,-3.6 -2.2,-1.4 -4.6,-2.9 -7.1,-4.6 z"
   id="path10" />
</g>
<g
   class="st0"
   id="g16"
   transform="translate(1.1178031,-28.9)">
	<path
   class="st1"
   d="M 264.7,122.2 V 198 H 250 V 167.9 H 212.2 V 198 h -14.6 v -75.8 h 14.6 V 155 H 250 v -32.8 z"
   id="path14" />
</g>
<polygon
   class="st2"
   points="50.2,306.2 77,276.3 92.5,293.6 65.7,323.6 "
   id="polygon18"
   transform="translate(1.1178031,-28.9)" />
<path
   class="st3"
   d="m 66.817803,296.5 -17.1,-19.2 28.4,-31.7 17.2,19.2 z m -13.9,-19.2 13.9,15.6 25.2,-28.2 -13.9,-15.5 z"
   id="path20" />
<polygon
   class="st2"
   points="215.8,275 197.1,295.9 240.2,344.2 271,344.2 "
   id="polygon22"
   transform="translate(1.1178031,-28.9)" />
<path
   class="st3"
   d="m 274.5178,315.7 h -33.8 l -44.2,-49.5 20.4,-22.8 z m -32.7,-2.5 h 27.7 l -52.7,-66.1 -17,19.1 z"
   id="path24" />
<polygon
   class="st2"
   points="141.2,233.3 193.1,291.2 238.2,341.5 47.1,341.5 "
   id="polygon26"
   transform="translate(1.1178031,-28.9)" />
<path
   class="st3"
   d="M 242.0178,313.8 H 45.617803 L 142.3178,202.6 Z M 50.817803,311.4 H 236.6178 l -94.3,-105.2 z"
   id="path28" />
<polygon
   class="st3"
   points="138,312.7 156.1,292.5 189,329.4 228.2,329.4 242,344.7 273,344.7 285.1,360.8 0,361 49.4,305.7 64.7,322.8 105.7,274.9 "
   id="polygon30"
   transform="translate(1.1178031,-28.9)" />
<metadata
   id="metadata852"><rdf:RDF><cc:Work
       rdf:about=""><dc:title>Tavola disegno 1</dc:title></cc:Work></rdf:RDF></metadata></svg>
