<?xml version="1.0" encoding="UTF-8" standalone="no"?>
<!-- Created with Inkscape (http://www.inkscape.org/) -->

<svg
   version="1.1"
   id="svg827"
   width="1400"
   height="350"
   viewBox="0 0 1400 350"
   sodipodi:docname="logo-ink-2.svg"
   inkscape:version="1.1.2 (0a00cf5339, 2022-02-04)"
   xmlns:inkscape="http://www.inkscape.org/namespaces/inkscape"
   xmlns:sodipodi="http://sodipodi.sourceforge.net/DTD/sodipodi-0.dtd"
   xmlns="http://www.w3.org/2000/svg"
   xmlns:svg="http://www.w3.org/2000/svg">
  <defs
     id="defs831">
    <clipPath
       clipPathUnits="userSpaceOnUse"
       id="clipPath44">
      <path
         d="M 0,595.28 H 841.89 V 0 H 0 Z"
         id="path42" />
    </clipPath>
    <clipPath
       clipPathUnits="userSpaceOnUse"
       id="clipPath52">
      <path
         d="M 279.503,455.216 H 660.728 V 154.677 H 279.503 Z"
         id="path50" />
    </clipPath>
  </defs>
  <sodipodi:namedview
     id="namedview829"
     pagecolor="#505050"
     bordercolor="#eeeeee"
     borderopacity="1"
     inkscape:pageshadow="0"
     inkscape:pageopacity="0"
     inkscape:pagecheckerboard="0"
     showgrid="false"
     fit-margin-top="0"
     fit-margin-left="0"
     fit-margin-right="0"
     fit-margin-bottom="0"
     inkscape:zoom="0.85834194"
     inkscape:cx="761.93411"
     inkscape:cy="460.18956"
     inkscape:window-width="1920"
     inkscape:window-height="1131"
     inkscape:window-x="0"
     inkscape:window-y="32"
     inkscape:window-maximized="1"
     inkscape:current-layer="g833" />
  <g
     inkscape:groupmode="layer"
     inkscape:label="Image"
     id="g833"
     transform="translate(-67.943204,-25.225265)">
    <rect
       style="fill:#000000;stroke:#000000;stroke-width:0.985497"
       id="rect1533"
       width="9.0145035"
       height="349.0145"
       x="763.43597"
       y="25.718018" />
    <g
       id="g8"
       transform="matrix(0.81666532,0,0,-0.81666532,64.276163,536.13018)">
      <g
         id="g1954"
         transform="translate(162.59751,41.485714)">
        <g
           aria-label="MONACO SPORT HOTEL"
           transform="scale(1.0001647,-0.99983532)"
           id="text24"
           style="font-weight:500;font-size:49.2848px;font-family:'ITCKabel LT Medium';-inkscape-font-specification:ItcKabelLT-Medium;fill:#871431;stroke-width:1.11198">
          <path
             d="m 0.45867841,-534.91189 4.63277139,0.59142 3.8442145,-21.19247 10.2512387,21.34032 9.561251,-21.34032 4.041354,20.99533 4.829911,-0.49285 -7.146296,-34.30222 -11.335505,25.38167 -11.9269218,-25.33239 z"
             style="font-weight:normal;font-family:'ITC Kabel';-inkscape-font-specification:'ITC Kabel'"
             id="path4828" />
          <path
             d="m 40.576534,-551.71801 c 0,5.12562 1.774253,9.46268 5.076334,12.81405 3.302082,3.30208 7.49129,4.92848 12.715479,4.92848 5.224189,0 9.364112,-1.6264 12.666194,-4.92848 3.351367,-3.35137 5.076335,-7.68843 5.076335,-12.81405 0,-5.12562 -1.724968,-9.4134 -5.076335,-12.76476 -3.302082,-3.30209 -7.442005,-4.92848 -12.666194,-4.92848 -5.224189,0 -9.413397,1.62639 -12.715479,4.92848 -3.302081,3.35136 -5.076334,7.63914 -5.076334,12.76476 z m 17.791813,13.25761 c -7.29415,0 -12.715479,-5.47061 -12.715479,-13.25761 0,-7.787 5.421329,-13.25761 12.715479,-13.25761 7.294151,0 12.715479,5.47061 12.715479,13.25761 0,7.787 -5.421328,13.25761 -12.715479,13.25761 z"
             style="font-weight:normal;font-family:'ITC Kabel';-inkscape-font-specification:'ITC Kabel'"
             id="path4830" />
          <path
             d="m 81.335083,-534.32047 4.879196,-0.44357 v -22.67101 l 22.030301,23.50885 v -35.18934 l -4.92848,0.49284 v 22.62173 l -21.981017,-23.50885 z"
             style="font-weight:normal;font-family:'ITC Kabel';-inkscape-font-specification:'ITC Kabel'"
             id="path4832" />
          <path
             d="m 110.41311,-535.40474 4.48491,1.23212 5.91418,-11.97621 h 13.40546 l 5.91418,11.92692 4.73134,-1.23212 -17.20039,-34.20365 z m 12.37048,-14.83473 4.68206,-9.65982 4.73134,9.65982 z"
             style="font-weight:normal;font-family:'ITC Kabel';-inkscape-font-specification:'ITC Kabel'"
             id="path4834" />
          <path
             d="m 170.88559,-535.25689 0.6407,-5.27347 c -0.78855,0.44356 -1.52782,0.83784 -2.2671,1.13355 -1.52783,0.59142 -3.00637,0.78856 -4.68205,0.78856 -3.10495,0 -6.30846,-1.33069 -8.57556,-3.64708 -2.36567,-2.41495 -3.59779,-5.66775 -3.59779,-9.46268 0,-7.68843 5.37204,-13.15904 12.41977,-13.15904 2.36567,0 4.48492,0.59142 6.25917,1.6264 l -0.73927,-5.27348 c -1.97139,-0.59141 -3.84422,-0.88712 -5.71704,-0.88712 -4.73134,0 -9.01912,1.72496 -12.22263,4.92848 -3.35136,3.35136 -5.07633,7.63914 -5.07633,12.76476 0,6.30845 2.66138,11.48336 7.442,14.78544 2.75995,1.87282 6.20989,2.9078 10.10339,2.9078 2.16853,0 4.09063,-0.39427 6.01274,-1.23212 z"
             style="font-weight:normal;font-family:'ITC Kabel';-inkscape-font-specification:'ITC Kabel'"
             id="path4836" />
          <path
             d="m 175.61695,-551.71801 c 0,5.12562 1.77425,9.46268 5.07633,12.81405 3.30208,3.30208 7.49129,4.92848 12.71548,4.92848 5.22419,0 9.36411,-1.6264 12.66619,-4.92848 3.35137,-3.35137 5.07634,-7.68843 5.07634,-12.81405 0,-5.12562 -1.72497,-9.4134 -5.07634,-12.76476 -3.30208,-3.30209 -7.442,-4.92848 -12.66619,-4.92848 -5.22419,0 -9.4134,1.62639 -12.71548,4.92848 -3.30208,3.35136 -5.07633,7.63914 -5.07633,12.76476 z m 17.79181,13.25761 c -7.29415,0 -12.71548,-5.47061 -12.71548,-13.25761 0,-7.787 5.42133,-13.25761 12.71548,-13.25761 7.29415,0 12.71548,5.47061 12.71548,13.25761 0,7.787 -5.42133,13.25761 -12.71548,13.25761 z"
             style="font-weight:normal;font-family:'ITC Kabel';-inkscape-font-specification:'ITC Kabel'"
             id="path4838" />
          <path
             d="m 229.78099,-539.69252 c 2.51352,3.64708 6.06203,5.56918 10.39909,5.56918 6.20988,0 10.54695,-4.38634 10.54695,-9.85696 0,-5.86489 -3.00638,-8.27984 -9.21626,-10.59623 -3.84422,-1.42926 -6.06203,-2.46424 -6.06203,-5.66775 0,-2.71066 2.02068,-4.68206 5.07633,-4.68206 2.31639,0 4.28778,1.18284 6.5056,3.59779 l 3.15422,-3.44993 c -2.9078,-3.15423 -5.91417,-4.63277 -9.61053,-4.63277 -5.86489,0 -10.15267,4.09063 -10.15267,9.31482 0,5.32276 2.71066,7.63915 8.72341,9.80768 4.33706,1.57711 6.55488,2.61209 6.55488,6.11131 0,3.10495 -2.31639,5.37205 -5.61847,5.37205 -2.2671,0 -4.58349,-1.42926 -6.50559,-4.04136 z"
             style="font-weight:normal;font-family:'ITC Kabel';-inkscape-font-specification:'ITC Kabel'"
             id="path4840" />
          <path
             d="m 256.49335,-534.32047 4.87919,-0.44357 v -11.18765 h 2.66138 c 7.04773,0 11.53265,-4.5342 11.53265,-11.3355 0,-6.8013 -4.48492,-11.33551 -11.53265,-11.33551 h -7.54057 z m 4.87919,-29.96516 h 2.11925 c 4.48492,0 7.04773,2.66138 7.04773,6.99844 0,4.38634 -2.56281,6.94915 -7.04773,6.94915 h -2.11925 z"
             style="font-weight:normal;font-family:'ITC Kabel';-inkscape-font-specification:'ITC Kabel'"
             id="path4842" />
          <path
             d="m 280.49503,-551.71801 c 0,5.12562 1.77425,9.46268 5.07633,12.81405 3.30209,3.30208 7.49129,4.92848 12.71548,4.92848 5.22419,0 9.36411,-1.6264 12.6662,-4.92848 3.35136,-3.35137 5.07633,-7.68843 5.07633,-12.81405 0,-5.12562 -1.72497,-9.4134 -5.07633,-12.76476 -3.30209,-3.30209 -7.44201,-4.92848 -12.6662,-4.92848 -5.22419,0 -9.41339,1.62639 -12.71548,4.92848 -3.30208,3.35136 -5.07633,7.63914 -5.07633,12.76476 z m 17.79181,13.25761 c -7.29415,0 -12.71548,-5.47061 -12.71548,-13.25761 0,-7.787 5.42133,-13.25761 12.71548,-13.25761 7.29415,0 12.71548,5.47061 12.71548,13.25761 0,7.787 -5.42133,13.25761 -12.71548,13.25761 z"
             style="font-weight:normal;font-family:'ITC Kabel';-inkscape-font-specification:'ITC Kabel'"
             id="path4844" />
          <path
             d="m 321.25357,-534.32047 4.8792,-0.44357 v -16.26398 l 11.82835,17.05254 4.78062,-1.97139 -9.80767,-13.50404 c 4.18921,-1.23212 6.60416,-4.43563 6.60416,-8.92055 0,-6.20988 -4.23849,-10.25124 -11.3355,-10.25124 h -6.94916 z m 4.8792,-30.01445 h 1.9221 c 4.13993,0 6.5056,2.36567 6.5056,6.11132 0,3.74564 -2.36567,6.01274 -6.5056,6.01274 h -1.9221 z"
             style="font-weight:normal;font-family:'ITC Kabel';-inkscape-font-specification:'ITC Kabel'"
             id="path4846" />
          <path
             d="m 352.0073,-534.32047 4.8792,-0.44357 v -29.37374 h 7.93485 v -4.48492 h -19.91106 l -1.67568,4.48492 h 8.77269 z"
             style="font-weight:normal;font-family:'ITC Kabel';-inkscape-font-specification:'ITC Kabel'"
             id="path4848" />
          <path
             d="m 384.14096,-534.32047 4.8792,-0.44357 v -15.13043 H 405.432 v 15.574 l 4.92848,-0.44357 v -34.3515 l -4.92848,0.49284 v 14.24331 h -16.41184 v -14.73615 l -4.8792,0.49284 z"
             style="font-weight:normal;font-family:'ITC Kabel';-inkscape-font-specification:'ITC Kabel'"
             id="path4850" />
          <path
             d="m 416.37329,-551.71801 c 0,5.12562 1.77426,9.46268 5.07634,12.81405 3.30208,3.30208 7.49129,4.92848 12.71548,4.92848 5.22419,0 9.36411,-1.6264 12.66619,-4.92848 3.35137,-3.35137 5.07634,-7.68843 5.07634,-12.81405 0,-5.12562 -1.72497,-9.4134 -5.07634,-12.76476 -3.30208,-3.30209 -7.442,-4.92848 -12.66619,-4.92848 -5.22419,0 -9.4134,1.62639 -12.71548,4.92848 -3.30208,3.35136 -5.07634,7.63914 -5.07634,12.76476 z m 17.79182,13.25761 c -7.29415,0 -12.71548,-5.47061 -12.71548,-13.25761 0,-7.787 5.42133,-13.25761 12.71548,-13.25761 7.29415,0 12.71548,5.47061 12.71548,13.25761 0,7.787 -5.42133,13.25761 -12.71548,13.25761 z"
             style="font-weight:normal;font-family:'ITC Kabel';-inkscape-font-specification:'ITC Kabel'"
             id="path4852" />
          <path
             d="m 462.35603,-534.32047 4.87919,-0.44357 v -29.37374 h 7.93485 v -4.48492 h -19.91106 l -1.67568,4.48492 h 8.7727 z"
             style="font-weight:normal;font-family:'ITC Kabel';-inkscape-font-specification:'ITC Kabel'"
             id="path4854" />
          <path
             d="m 479.9014,-534.76404 h 18.58037 l 1.42926,-4.68205 h -15.13044 v -10.89195 h 11.13837 v -4.43563 h -11.13837 v -9.41339 h 13.99689 l -1.08427,-4.43564 H 479.9014 Z"
             style="font-weight:normal;font-family:'ITC Kabel';-inkscape-font-specification:'ITC Kabel'"
             id="path4856" />
          <path
             d="m 505.52951,-534.76404 h 17.29896 l 1.6264,-4.58348 h -13.99688 v -29.76802 l -4.92848,0.49284 z"
             style="font-weight:normal;font-family:'ITC Kabel';-inkscape-font-specification:'ITC Kabel'"
             id="path4858" />
        </g>
        <g
           id="g26"
           transform="matrix(1.1121602,0,0,1.1121602,313.25832,357.83222)">
          <path
             d="M 0,0 0.712,-0.361 2.527,-1.806 3.246,-2.529 3.968,-2.885 4.33,-3.251 H 4.689 6.14 L 7.221,-3.61 h 0.721 l 0.725,-0.364 1.081,-0.356 1.087,-0.727 2.531,-1.804 1.081,-0.718 1.084,-0.724 0.722,-0.365 0.722,-0.361 0.724,-0.356 1.084,-0.363 1.813,-0.359 1.078,-0.367 1.08,-0.356 0.728,-0.368 0.722,-0.356 1.447,-0.724 1.447,-0.722 1.081,-0.724 h 0.724 l 0.722,-0.356 h 1.081 0.725 0.725 1.084 0.725 l 2.169,-0.362 h 1.077 l 0.725,-0.364 0.725,-0.358 h 0.715 l 1.091,-0.362 1.077,-0.359 1.088,-0.363 h 2.168 0.721 l 0.726,-0.359 h 0.725 l 1.44,-0.364 1.446,-0.358 h 1.447 0.721 1.081 l 1.091,-0.369 h 1.441 1.446 1.446 1.444 l 1.443,-0.356 h 1.45 l 1.081,-0.354 h 1.088 l 1.084,-0.367 2.165,-0.356 1.806,-0.727 1.808,-0.362 1.444,-0.358 1.806,-0.359 1.447,-0.366 1.446,-0.356 h 0.715 l 0.725,-0.367 1.091,-0.359 0.718,-0.361 1.812,-1.084 1.082,-0.722 0.724,-0.357 0.723,-0.368 0.355,-0.357 1.094,-0.365 1.438,-0.36 1.086,-0.366 h 0.722 0.36 0.359 0.722 l 0.369,0.366 v 0.36 l 0.721,0.365 0.715,0.725 0.365,0.357 0.36,0.363 h 0.362 l 0.726,0.359"
             style="fill:none;stroke:#050301;stroke-width:2.628;stroke-linecap:round;stroke-linejoin:round;stroke-miterlimit:10;stroke-dasharray:none;stroke-opacity:1"
             id="path28" />
        </g>
        <g
           id="g30"
           transform="matrix(1.1121602,0,0,1.1121602,95.847238,335.344)">
          <path
             d="M 0,0 0.364,-0.357 H 0.727 L 1.086,0 1.448,0.362 H 1.811 2.168 2.534 2.89 3.252 L 3.618,0 4.337,-0.717 5.422,-1.438 6.144,-1.806 6.505,-2.165 H 7.227 7.95 8.316 9.033 9.4 10.12 l 1.083,0.727 0.725,0.721 1.082,0.717 0.723,0.722 1.805,1.09 0.721,0.355 1.089,0.725 0.719,0.357 h 0.362 l 1.084,0.364 h 1.088 1.084 0.722 L 23.489,3.249 25.293,2.522 27.467,2.167 28.544,1.812 29.268,1.445 30.352,1.089 31.073,0.722 31.797,0 v -0.357 l 0.366,-0.36 v -1.089 -0.72 l 0.358,-1.806 v -1.082 l 0.363,-0.364 v -0.361 l 0.359,-0.366 0.361,-0.356 h 0.363 l 0.359,-0.359 h 0.721 0.725 l 0.724,-0.364 0.721,-0.727 h 0.361 l 0.363,-0.354 h 0.362 0.363 l 0.357,0.354 0.363,0.367 0.721,0.36 1.444,1.079 1.448,0.727 1.445,1.089 1.447,0.72 1.445,0.359 1.804,0.359 1.446,0.363 1.807,0.723 1.802,0.727 1.448,0.721 1.092,0.717 1.078,0.722 1.084,0.367 0.364,0.356 0.724,0.367 h 0.362 l 0.355,-0.367 h 0.721 l 0.369,-0.356 h 0.356 l 0.369,0.356 0.356,0.722 0.357,0.725 0.365,0.357 0.362,0.364 h 0.361 0.359 l 0.366,-0.364 h 0.722 0.359 0.725 0.356 l 0.723,0.364 0.367,0.36 0.722,0.721 0.718,0.72 0.724,0.727 1.087,0.721 1.808,1.446 0.722,0.714 0.728,0.724 0.712,0.727 0.723,0.362 0.725,0.356 0.723,0.361 h 0.722 0.725 1.445 0.716 0.722 0.729 l 0.363,0.365 0.721,0.356 h 0.72 l 0.723,0.368 0.364,0.356 1.086,1.087 1.077,1.08 1.086,1.082 1.447,1.089 1.089,0.717 1.806,0.718 1.443,0.371 0.722,0.356 1.081,0.362 1.086,0.361 1.084,0.359 h 1.441 l 1.449,0.363 3.257,0.361 1.076,0.362 1.449,0.356 h 1.086 l 0.721,0.366 h 0.725 1.084 0.716 0.725 1.092 l 0.723,-0.366 2.16,-0.356 1.806,-0.723 1.088,-0.363 1.082,-0.359 0.725,-0.723 1.082,-0.727 1.447,-1.079 1.809,-1.445 0.717,-0.724 0.724,-0.358 1.083,-1.08 1.446,-0.725 0.36,-0.362 h 0.724 l 0.366,-0.356 h 0.718 0.729 l 0.714,0.356 0.362,0.362 h 0.727 l 1.081,0.361 0.726,0.364 0.724,0.719 1.084,0.361 1.076,0.726 1.449,0.72 1.446,0.725 1.082,0.717 1.449,0.718 1.446,0.727 1.079,0.723 0.725,0.359 0.723,0.363 0.724,0.361 1.083,0.718 1.081,0.366 1.091,0.721 h 0.722 l 0.355,0.361 0.725,0.356 0.363,0.366 0.722,0.725 h 1.087 l 0.359,0.356 h 0.355 l 1.088,-0.356 h 1.084 l 1.084,-0.364 0.723,-0.361 h 0.362 l 0.359,-0.366 0.725,-0.717 0.726,-1.087 0.351,-1.079 0.37,-0.722 v -0.723 l 0.356,-0.727 v -0.356 h 0.368 v -0.362 h 0.357 0.366 v 0.362 l 0.719,0.356 1.084,0.727 0.724,0.362 0.36,0.361 0.362,0.359 0.362,0.363 0.36,0.361 h 0.365 0.359 l 0.359,0.362 h 0.36 1.084 l 0.722,0.356 h 0.725 0.361 l 0.36,0.366 h 0.366 l 0.358,-0.366 h 0.36 l 0.366,-0.356 1.081,-0.723 0.365,-0.363 0.36,-0.359 0.363,-0.361 0.355,-0.362 0.363,-0.356 h 0.721 l 0.366,-0.371 1.44,-0.718 h 0.366 l 0.722,-0.361 h 0.362 0.722 0.366 0.356 l 1.084,0.361 2.168,0.718 1.806,0.727 2.171,1.082 h 1.081 l 1.081,0.363 h 1.088 l 0.721,-0.363 0.728,-0.359"
             style="fill:none;stroke:#050301;stroke-width:2.628;stroke-linecap:round;stroke-linejoin:round;stroke-miterlimit:10;stroke-dasharray:none;stroke-opacity:1"
             id="path32" />
        </g>
        <g
           id="g34"
           transform="matrix(1.1121602,0,0,1.1121602,154.92208,254.61196)">
          <path
             d="m 0,0 2.526,-1.08 2.896,-1.089 2.884,-1.079 2.895,-1.081 1.446,-0.362 1.44,-0.727 1.091,-0.719 1.44,-0.715 1.449,-0.726 1.445,-0.722 2.527,-1.446 1.448,-0.717 1.446,-0.726 1.443,-0.719 1.445,-0.361 0.721,-0.356 0.358,-0.37 h 0.728 l 0.722,-0.355 h 0.723 0.725 0.722 0.723 1.804 1.449 l 2.89,0.355 h 1.802 1.449 1.449 l 1.44,-0.355 h 1.81 l 1.446,-0.362 0.72,-0.361 h 0.723 l 0.722,-0.363 h 0.727 l 0.721,-0.359 0.724,-0.362 0.723,-0.362 0.725,-0.353 0.357,-0.369 0.721,-0.357 1.45,-1.087 1.081,-0.718 1.08,-1.086 0.724,-0.356 0.723,-0.364 0.723,-0.361 0.359,-0.364 h 0.726 l 0.719,-0.356 0.725,-0.36 h 0.726 l 1.444,-0.365 1.439,-0.354 h 1.45 l 1.806,-0.367 h 1.45 1.441 3.253 l 3.249,-0.358 h 1.45 1.441 l 1.813,-0.363 1.442,-0.362 2.891,-0.361 2.887,-0.359 3.253,-0.724 h 1.447 l 1.446,-0.355 h 1.447 1.444 1.446 1.443 l 1.806,0.355 h 0.723 0.724 l 0.722,0.363 0.725,0.361 h 0.718 l 0.718,0.359 0.726,0.361 0.724,0.362 0.726,0.363 0.359,0.358 1.446,0.721 1.085,0.725 1.446,1.081 1.088,1.088 2.523,1.799 1.084,0.724 1.444,1.079 0.728,0.362 0.36,0.362 0.718,0.359 h 0.732 l 0.717,0.363 0.723,0.361 h 0.718 l 0.725,0.362 h 0.725 0.722 l 1.446,0.355 h 1.447 1.44 3.253 l 1.446,0.37 h 1.447 1.08 l 0.726,0.356 h 0.725 l 0.718,0.361 h 0.728 l 0.722,0.362 1.44,0.722 1.088,0.361 1.439,0.717 2.894,1.446 1.446,0.722 1.443,0.364 0.367,0.362 0.721,0.355 h 0.722 l 0.725,0.36 h 1.44 l 1.809,0.364 h 1.447 1.443 1.447 1.084 l 1.443,0.355 h 1.45 0.356 0.728 0.357 0.721 l 0.365,0.367 h 0.722 l 0.719,0.36 0.722,0.362 h 0.365 l 0.725,0.356 0.36,0.366 0.724,0.359 h 0.725 l 0.353,0.361 0.725,0.359 1.091,0.359 0.715,0.367 0.724,0.722 1.088,0.361 m 56.726,69.699 v -0.359 -0.362 l -0.362,-0.358 -0.364,-1.089 -0.362,-1.083 -0.359,-0.723 -0.366,-1.08 -0.359,-1.08 -0.355,-1.09 -0.37,-1.083 -0.721,-2.169 -1.081,-2.164 -1.081,-2.167 -0.367,-1.084 -0.358,-1.086 -0.726,-0.722 -0.362,-1.083 -0.712,-0.722 -0.372,-1.079 -0.722,-0.727 -0.355,-1.083 -1.447,-1.804 -1.081,-1.445 -1.45,-1.806 -0.721,-0.723 -0.36,-1.084 -0.721,-0.727 -0.726,-1.084 -1.084,-0.719 -0.722,-1.082 -0.724,-0.723 -0.722,-1.083 -0.724,-1.087 -1.082,-1.081 -0.725,-1.082 -1.08,-0.724 -0.722,-1.083 -1.088,-1.089 -1.084,-1.436 -1.084,-1.091 -1.088,-1.079 -1.077,-1.081 -1.084,-1.446 -1.088,-1.089 -1.443,-1.439 -1.088,-1.09 -1.443,-1.438 -1.444,-1.089 -1.084,-1.44 L 198.369,13 196.926,11.553 195.12,10.471 193.673,9.028 191.867,7.58 190.417,6.136 188.615,4.695 186.809,3.247 185,2.17 183.19,0.725 181.029,-0.719 M 0,0 H -0.725 L -1.086,0.36 -1.445,0.725 -1.808,1.082 V 1.448 H -2.167 L -2.531,1.804 -2.893,2.17 h -0.359 v 0.36 l -0.361,0.355 -0.723,0.362 -0.365,0.362 v 0.363 h -0.356 l -0.359,0.359 v 0.364 h -0.365 v 0.36 l -0.358,0.365 -0.725,0.357 -0.725,0.721 -0.359,0.725 -0.725,0.357 -0.361,0.724 -0.359,0.362 -0.725,0.717 -0.366,0.367 -0.357,0.357 -0.358,0.724 -0.367,0.362 -0.356,0.36 -0.722,0.724 -0.725,0.723 -0.725,0.723 -0.72,0.72 -1.086,1.806 -0.722,0.723 -0.723,0.718 -0.725,0.72 -0.722,1.09 -0.721,0.721 -0.72,1.083 -1.087,1.079 -0.724,0.728 -0.722,1.077 -1.084,1.09 -0.723,1.082 -0.725,1.084 -1.803,2.163 -1.807,2.532 -1.802,2.168 -1.449,2.164 -1.807,2.527 -1.444,2.172 -1.802,2.528 -1.45,2.167 -1.445,2.165 -2.89,4.697 -1.445,2.527 -1.449,2.17 -1.444,2.525 -0.721,1.086 -0.724,1.081 -0.719,1.445 -0.728,1.085 -0.356,1.439 -0.723,1.091 -0.363,1.445 -0.722,1.081 -0.362,1.45 -0.364,1.438"
             style="fill:none;stroke:#050301;stroke-width:2.628;stroke-linecap:round;stroke-linejoin:round;stroke-miterlimit:10;stroke-dasharray:none;stroke-opacity:1"
             id="path36" />
        </g>
        <g
           id="g38"
           transform="matrix(1.1121602,0,0,1.1121602,-260.34374,-1.9353614)">
          <g
             id="g40"
             clip-path="url(#clipPath44)">
            <g
               id="g46">
              <g
                 id="g48" />
              <g
                 id="g60">
                <g
                   clip-path="url(#clipPath52)"
                   id="g58">
                  <g
                     transform="translate(365.5215,403.9941)"
                     id="g56">
                    <path
                       d="M 0,0 -1.459,-0.365 H -3.248 L -5.073,-0.73 -6.861,-1.095 h -1.825 l -1.788,-0.365 -1.825,-0.366 -1.788,-0.73 -1.46,-0.328 -1.825,-0.73 -1.788,-0.365 -1.46,-0.73 -1.423,-0.731 -1.825,-0.693 -1.423,-0.731 -1.459,-0.73 -1.46,-1.095 -1.424,-1.059 -1.459,-0.73 -1.059,-1.095 -1.46,-1.059 -1.459,-1.095 -1.059,-1.096 -1.459,-1.424 -1.096,-1.095 -1.423,-1.058 -1.095,-1.461 -1.094,-1.46 -1.424,-1.424 -1.094,-1.095 -1.095,-1.424 -0.694,-1.46 -1.095,-1.789 -1.094,-1.461 -0.73,-1.423 -0.694,-1.826 -1.095,-1.423 -0.73,-1.826 -0.364,-1.424 -0.73,-1.825 -0.73,-1.789 -0.329,-1.461 -0.365,-1.789 -0.365,-1.788 -0.365,-1.826 -0.364,-1.789 -0.366,-1.825 v -1.424 l -0.364,-1.826 v -1.788 l -0.366,-1.826 v -1.789 -1.789 -1.825 -1.424 -1.825 -1.789 l 0.366,-1.79 v -1.788 -1.461 l 0.364,-1.825 0.366,-3.614 0.364,-3.213 0.365,-1.826 0.365,-1.789 0.365,-1.46 0.329,-1.789 0.365,-1.825 0.365,-1.789 0.365,-1.46 0.365,-1.789 0.729,-1.461 0.365,-1.789 0.73,-1.424 0.365,-1.825 0.694,-1.46 0.73,-1.789 0.364,-1.461 0.73,-1.424 0.73,-1.46 0.694,-1.387 0.73,-1.826 1.094,-1.46 1.46,-2.884 1.788,-2.884 1.825,-2.848 1.789,-2.957 1.824,-2.847 1.788,-2.921 2.154,-2.52 1.824,-2.884 2.154,-2.884 2.189,-2.519 2.154,-2.884 2.189,-2.885 2.153,-2.555 2.518,-2.519 2.19,-2.483 2.153,-2.555 2.153,-2.519 2.19,-2.52 2.519,-2.19 1.094,-1.424 1.095,-1.059 1.423,-1.46 1.095,-1.095 1.46,-1.424 1.423,-1.095 1.095,-1.461 1.423,-1.424 2.92,-2.555 1.423,-1.424 1.46,-1.095 1.423,-1.388 1.46,-1.132 1.095,-1.058 1.423,-1.46 1.46,-1.096 1.095,-1.094 2.518,-1.79 2.518,-2.154 2.19,-2.154 1.423,-0.694 1.46,-1.131 2.518,-2.155 2.518,-2.153 2.92,-2.19 2.518,-1.789 2.883,-2.191 2.555,-1.789 1.423,-1.096 1.46,-1.058 1.058,-0.694 1.46,-1.131 2.518,-1.424 1.46,-1.059 1.46,-0.766 1.423,-0.695 1.46,-1.095 1.423,-0.73 1.46,-0.73 1.788,-1.059 1.46,-0.731 1.094,-0.729 0.731,-0.365 1.058,-0.365 0.73,-0.366 1.095,-0.657 1.058,-0.365 0.73,-0.364 1.095,-0.768 1.094,-0.328 1.059,-0.731 1.46,-0.365 1.095,-0.729 1.058,-0.329 1.46,-0.767 1.46,-0.365 1.423,-0.694 1.46,-0.73 1.788,-0.365 0.729,-0.365 0.731,-0.365 1.095,-0.329 0.693,-0.401 1.095,-0.328 0.73,-0.366 1.095,-0.365 h 1.058 l 0.73,-0.365 1.095,-0.365 1.094,-0.366 1.059,-0.364 -10.475,-1.059 -10.473,-0.365 -10.474,0.694 -10.109,1.46 -10.146,2.519 -9.744,3.285 -1.095,0.366 -1.058,0.329 -1.095,0.729 -1.095,0.365 -0.73,0.366 -1.058,0.365 -0.73,0.328 -0.73,0.365 -0.73,0.403 -0.693,0.364 -0.73,0.365 -0.365,0.329 h -0.73 l -0.365,0.328 -0.73,0.366 -0.365,0.365 h -0.328 l -0.73,0.365 -0.73,0.365 -0.73,0.364 -0.73,0.366 -1.423,1.058 -1.095,0.731 -2.518,1.461 -2.555,1.424 -2.518,1.825 -1.423,0.766 -1.095,1.023 -1.46,0.766 -1.423,1.059 -1.095,0.693 -1.46,1.096 -1.423,1.095 -1.459,1.058 -1.789,1.096 -1.46,1.096 -2.883,2.153 -3.248,2.52 -2.883,2.153 -2.92,2.593 -2.518,2.117 -2.883,2.154 -2.518,2.556 -2.919,2.518 -1.424,1.096 -1.095,1.424 -1.459,1.424 -1.424,1.132 -2.555,2.847 -2.518,2.884 -1.423,1.461 -1.459,1.424 -1.096,1.46 -1.058,1.424 -1.46,1.095 -1.094,1.424 -2.154,2.92 -2.189,2.885 -1.059,1.424 -1.459,1.497 -1.095,1.386 -1.059,1.461 -2.554,2.92 -2.154,3.213 -2.152,3.25 -1.096,1.424 -1.094,1.825 -1.058,1.424 -1.096,1.825 -1.094,1.424 -0.73,1.825 -1.058,1.424 -0.73,1.789 -1.095,1.825 -0.73,1.461 -0.73,1.789 -0.694,1.826 -1.094,1.423 -0.73,1.789 -0.73,1.826 -0.694,1.789 -0.73,1.789 -0.364,1.825 -0.73,1.789 -0.73,1.825 -0.365,1.789 -0.693,1.825 -0.366,1.79 -0.73,1.825 -0.364,1.424 -0.366,1.825 -0.364,1.789 -0.365,1.789 -0.73,3.249 -0.329,3.615 -0.364,1.825 -0.366,1.789 -0.364,1.789 -0.365,2.19 v 1.789 l -0.365,1.826 -0.365,2.154 v 1.789 l -0.365,1.825 v 2.155 l -0.365,1.788 v 2.191 1.789 2.154 1.825 2.154 l 0.365,1.789 v 1.826 l 0.365,2.153 v 1.826 l 0.365,1.789 0.365,2.154 0.365,1.825 0.364,1.789 0.73,3.615 0.694,3.979 0.365,1.789 0.729,1.825 0.366,1.789 0.364,1.789 0.73,1.826 0.694,1.789 0.365,1.825 0.729,1.789 0.73,1.826 0.73,1.788 1.095,1.789 0.694,1.461 1.095,1.788 0.73,1.461 1.058,1.789 1.095,1.46 1.095,1.789 1.095,1.46 1.058,1.424 1.094,1.461 1.096,1.423 1.058,1.461 1.094,1.46 1.096,1.424 1.058,1.46 1.094,1.424 1.46,1.46 1.095,1.059 1.423,1.46 1.095,1.424 1.424,1.096 1.459,1.46 1.46,1.059 1.424,1.46 1.459,1.059 1.424,1.095 1.46,1.461 1.459,1.058 1.789,1.095 1.459,1.096 1.423,0.693 1.825,1.096 1.423,1.095 1.825,0.694 1.789,1.095 1.459,0.73 1.825,0.73 1.789,0.694 1.824,1.095 1.424,0.365 1.824,0.73 1.788,0.694 1.825,0.73 1.789,0.365 1.824,0.73 1.788,0.366 1.825,0.365 1.788,0.328 1.825,0.365 1.789,0.365 1.824,0.366 1.788,0.364 h 2.19 l 1.788,0.366 h 1.825 l 1.788,0.365 h 1.825 1.788 2.19 1.788 l 1.825,-0.365 h 1.788 l 1.825,-0.366 1.788,-0.364 1.825,-0.366 2.153,-0.365 1.825,-0.365 1.788,-0.328 3.613,-0.731 3.613,-1.095 3.613,-1.059 3.613,-1.095 3.613,-1.095 3.613,-1.424 1.788,-0.365 1.825,-0.73 1.825,-0.73 1.423,-0.694 1.825,-0.73 1.423,-1.096 1.825,-0.73 1.788,-0.693 1.46,-1.096 1.423,-1.095 1.825,-1.058 1.459,-1.096 1.424,-1.095 1.824,-1.059 2.884,-2.19 2.883,-2.154 3.248,-2.52 2.883,-2.153 1.46,-1.096 1.46,-1.46 1.058,-1.059 1.46,-1.46 1.459,-1.059 1.424,-1.46 1.095,-1.095 1.423,-1.424 1.094,-1.461 1.096,-1.424 1.095,-1.46 1.057,-1.424 1.096,-1.46 1.095,-1.789 2.153,-2.884 h 0.364 l 3.614,9.017 4.342,8.653 5.402,8.287 6.168,7.959 6.86,6.864 7.591,6.462 8.285,5.44 8.32,4.673 9.087,3.505 -0.036,0.109 8.65,2.884 8.685,1.789 8.65,1.096 h 9.05 l 8.686,-1.096 8.649,-1.423 8.686,-2.885 8.321,-3.249 7.554,-4.344 0.365,0.365 8.686,-6.864 7.956,-7.557 7.59,-7.959 6.497,-8.653 6.13,-9.383 5.074,-9.747 3.977,-10.076 3.614,-10.478 2.153,-10.844 1.46,-11.172 0.364,-10.806 -0.729,-10.843 -1.46,-11.172 -2.518,-10.441 -3.248,-10.515 -4.343,-10.441 -5.073,-9.383 -6.131,-9.383 -9.38,-12.997 -10.108,-12.267 -11.204,-11.901 -11.57,-11.172 -12.297,-10.441 -12.628,-9.419 -13.394,-8.982 -14.087,-7.995 -14.452,-7.229 -14.816,-6.498 -15.182,-5.404 -15.511,-4.308 -15.473,-3.577 -0.074,0.328 15.876,7.557 15.911,8.653 15.182,9.383 14.817,10.113 14.087,10.843 13.358,11.537 13.028,12.266 12.262,12.997 0.182,-0.146 8.504,10.661 7.955,11.135 7.227,11.902 6.131,12.267 5.803,12.632 4.306,12.997 3.978,13.362 -0.364,0.365 1.824,11.172 0.729,11.171 -0.364,11.574 -1.46,11.536 -2.153,10.807 -0.366,0.365 -3.248,8.324 -4.707,7.557 -5.073,7.229 -6.131,6.499 -7.226,5.768 -7.153,4.746 -0.073,-0.073 -6.496,3.249 -6.861,2.556 -7.226,1.423 -6.861,0.366 -0.036,0.292 -7.19,-1.388 -7.226,-2.154 -6.898,-2.884 -6.131,-3.979 -6.131,-4.673 -5.073,-5.404 -4.707,-5.804 v -0.366 l -6.861,-11.171 -6.131,-11.902 -5.073,-12.267 -3.467,-12.668 -0.109,0.036 -39.415,-12.632 -6.131,12.267 -0.73,1.46 -0.73,1.424 -1.058,1.461 -0.73,1.423 -1.095,1.46 -0.73,1.424 -1.058,1.461 -1.095,1.46 -1.095,1.424 -1.058,1.059 -1.095,1.46 -1.095,1.095 -1.424,1.424 -1.094,1.095 -1.46,1.059 -1.059,1.46 -1.459,1.096 -1.46,1.059 -1.424,1.095 -1.459,1.424 -1.423,1.095 -1.46,1.095 -1.46,1.059 -1.423,1.095 -1.825,1.096 -1.423,1.058 -1.46,0.73 -1.46,1.095 -1.423,0.731 -1.46,1.058 -1.423,0.731 -1.46,0.73 -1.46,0.694 -1.058,0.73 -2.883,1.46 -2.555,1.059 -2.883,1.46 -1.46,0.73 -1.423,0.731 -1.46,0.328 -1.423,0.73 -1.46,0.73 -1.788,0.366 -1.46,0.729 -1.825,0.366 -1.423,0.328 -1.825,0.73 -1.788,0.366 -1.825,0.365 -1.788,0.365 H 12.627 L 10.839,-0.365 9.014,0 H 7.226 5.401 3.613 1.789 Z"
                       style="fill:#871431;fill-opacity:1;fill-rule:nonzero;stroke:none"
                       id="path54" />
                  </g>
                </g>
              </g>
            </g>
          </g>
        </g>
        <g
           id="g62"
           transform="matrix(1.1121602,0,0,1.1121602,278.28822,356.21936)">
          <path
             d="M 0,0 H 1.81 Z"
             style="fill:none;stroke:#050301;stroke-width:2.628;stroke-linecap:round;stroke-linejoin:round;stroke-miterlimit:10;stroke-dasharray:none;stroke-opacity:1"
             id="path64" />
        </g>
        <g
           id="g66"
           transform="matrix(1.1121602,0,0,1.1121602,278.28822,356.21936)">
          <path
             d="M 0,0 0.725,-0.718 Z"
             style="fill:none;stroke:#050301;stroke-width:2.628;stroke-linecap:round;stroke-linejoin:round;stroke-miterlimit:10;stroke-dasharray:none;stroke-opacity:1"
             id="path68" />
        </g>
        <g
           id="g70"
           transform="matrix(1.1121602,0,0,1.1121602,296.77355,355.4205)">
          <path
             d="M 0,0 H 3.978 0.726 Z"
             style="fill:none;stroke:#050301;stroke-width:2.628;stroke-linecap:round;stroke-linejoin:round;stroke-miterlimit:10;stroke-dasharray:none;stroke-opacity:1"
             id="path72" />
        </g>
        <g
           id="g74"
           transform="matrix(1.1121602,0,0,1.1121602,296.77355,355.4205)">
          <path
             d="M 0,0 H 4.696 3.978 Z"
             style="fill:none;stroke:#050301;stroke-width:2.628;stroke-linecap:round;stroke-linejoin:round;stroke-miterlimit:10;stroke-dasharray:none;stroke-opacity:1"
             id="path76" />
        </g>
        <g
           id="g78"
           transform="matrix(1.1121602,0,0,1.1121602,238.10498,351.00767)">
          <path
             d="M 0,0 H 7.587 Z"
             style="fill:none;stroke:#050301;stroke-width:2.628;stroke-linecap:round;stroke-linejoin:round;stroke-miterlimit:10;stroke-dasharray:none;stroke-opacity:1"
             id="path80" />
        </g>
        <g
           id="g82"
           transform="matrix(1.1121602,0,0,1.1121602,238.10498,351.00767)">
          <path
             d="M 0,0 H 7.953 7.587 Z"
             style="fill:none;stroke:#050301;stroke-width:2.628;stroke-linecap:round;stroke-linejoin:round;stroke-miterlimit:10;stroke-dasharray:none;stroke-opacity:1"
             id="path84" />
        </g>
        <g
           id="g86"
           transform="matrix(1.1121602,0,0,1.1121602,347.40831,342.17344)">
          <path
             d="M 0,0 H 1.45 Z"
             style="fill:none;stroke:#050301;stroke-width:2.628;stroke-linecap:round;stroke-linejoin:round;stroke-miterlimit:10;stroke-dasharray:none;stroke-opacity:1"
             id="path88" />
        </g>
        <g
           id="g90"
           transform="matrix(1.1121602,0,0,1.1121602,167.3796,339.36257)">
          <path
             d="M 0,0 H 3.254 Z"
             style="fill:none;stroke:#050301;stroke-width:2.628;stroke-linecap:round;stroke-linejoin:round;stroke-miterlimit:10;stroke-dasharray:none;stroke-opacity:1"
             id="path92" />
        </g>
        <g
           id="g94"
           transform="matrix(1.1121602,0,0,1.1121602,412.10912,328.10962)">
          <path
             d="M 0,0 H 2.887 0.725 Z"
             style="fill:none;stroke:#050301;stroke-width:2.628;stroke-linecap:round;stroke-linejoin:round;stroke-miterlimit:10;stroke-dasharray:none;stroke-opacity:1"
             id="path96" />
        </g>
        <g
           id="g98"
           transform="matrix(1.1121602,0,0,1.1121602,230.23623,338.43725)">
          <path
             d="m 0,0 h 0.445 l 14.01,-18.418 z"
             style="fill:#bcbec3;fill-opacity:1;fill-rule:evenodd;stroke:none"
             id="path100" />
        </g>
        <g
           id="g102"
           transform="matrix(1.1121602,0,0,1.1121602,266.28101,338.4377)">
          <path
             d="M 0,0 0.878,-18.418 V 0 Z"
             style="fill:#bcbec3;fill-opacity:1;fill-rule:nonzero;stroke:none"
             id="path104" />
        </g>
        <g
           id="g106"
           transform="matrix(1.1121602,0,0,1.1121602,259.94703,317.95338)">
          <path
             d="M 0,0 H 6.573 Z"
             style="fill:#bcbec3;fill-opacity:1;fill-rule:nonzero;stroke:none"
             id="path108" />
        </g>
        <g
           id="g110"
           transform="matrix(1.1121602,0,0,1.1121602,285.7606,316.00665)">
          <path
             d="M 0,0 3.065,-3.512 H 0 Z"
             style="fill:#bcbec3;fill-opacity:1;fill-rule:evenodd;stroke:none"
             id="path112" />
        </g>
        <g
           id="g114"
           transform="matrix(1.1121602,0,0,1.1121602,285.7606,316.00665)">
          <path
             d="M 0,0 H 3.065 V -3.512 Z"
             style="fill:#bcbec3;fill-opacity:1;fill-rule:evenodd;stroke:none"
             id="path116" />
        </g>
        <g
           id="g118"
           transform="matrix(1.1121602,0,0,1.1121602,246.79807,305.27386)">
          <path
             d="M 0,0 H 3.064 L 1.751,-2.188 Z"
             style="fill:#bcbec3;fill-opacity:1;fill-rule:evenodd;stroke:none"
             id="path120" />
        </g>
        <g
           id="g122"
           transform="matrix(1.1121602,0,0,1.1121602,285.7606,305.27386)">
          <path
             d="M 0,0 3.065,-7.015 H 0 Z"
             style="fill:#bcbec3;fill-opacity:1;fill-rule:evenodd;stroke:none"
             id="path124" />
        </g>
        <g
           id="g126"
           transform="matrix(1.1121602,0,0,1.1121602,285.7606,305.27386)">
          <path
             d="M 0,0 H 3.065 V -7.015 Z"
             style="fill:#bcbec3;fill-opacity:1;fill-rule:evenodd;stroke:none"
             id="path128" />
        </g>
        <g
           id="g130"
           transform="matrix(1.1121602,0,0,1.1121602,285.7606,297.4725)">
          <path
             d="M 0,0 V 7.015 H -3.94 -8.32 V 0 m -3.062,0 v 8.772 7.893 h 1.75 1.312 V 13.153 9.65 m 8.32,0 v 3.503 3.512 H 1.753 3.065 V 8.327 0 M -23.21,0 v 9.207 9.208 m -20.586,0 V 9.207 0 m -6.129,0 v 18.415 18.418 m 32.41,0 h 0.436 0.441 V 18.415 m -6.572,0 -10.072,-13.589 m 16.644,13.589 V 0 m -16.644,15.786 15.767,21.047 M -23.21,0 h 6.572 M -33.282,4.826 -43.796,18.415 M -49.925,0 h 6.129 M 0,0 h 3.065 m -14.447,0 h 3.062 m -41.159,36.833 h -0.446 m 16.643,-21.047 -16.197,21.047"
             style="fill:none;stroke:#050301;stroke-width:2.628;stroke-linecap:round;stroke-linejoin:round;stroke-miterlimit:10;stroke-dasharray:none;stroke-opacity:1"
             id="path132" />
        </g>
        <g
           id="g134"
           transform="matrix(1.1121602,0,0,1.1121602,279.91887,338.92115)">
          <path
             d="M 0,0 H 2.63 Z"
             style="fill:#bcbec3;fill-opacity:1;fill-rule:nonzero;stroke:none"
             id="path136" />
        </g>
        <g
           id="g138"
           transform="matrix(1.1121602,0,0,1.1121602,277.48157,338.4377)">
          <path
             d="M 0,0 H 6.133 L 2.192,0.435 Z"
             style="fill:#bcbec3;fill-opacity:1;fill-rule:nonzero;stroke:none"
             id="path140" />
        </g>
        <g
           id="g142"
           transform="matrix(1.1121602,0,0,1.1121602,279.91887,338.92115)">
          <path
             d="M 0,0 3.941,-0.435 2.63,0 Z"
             style="fill:#bcbec3;fill-opacity:1;fill-rule:nonzero;stroke:none"
             id="path144" />
        </g>
        <g
           id="g146"
           transform="matrix(1.1121602,0,0,1.1121602,277.48157,338.4377)">
          <path
             d="M 0,0 H -0.877 7.444 Z"
             style="fill:#bcbec3;fill-opacity:1;fill-rule:nonzero;stroke:none"
             id="path148" />
        </g>
        <g
           id="g150"
           transform="matrix(1.1121602,0,0,1.1121602,284.302,338.4377)">
          <path
             d="M 0,0 H -6.133 1.311 Z"
             style="fill:#bcbec3;fill-opacity:1;fill-rule:nonzero;stroke:none"
             id="path152" />
        </g>
        <g
           id="g154"
           transform="matrix(1.1121602,0,0,1.1121602,276.5071,338.43725)">
          <path
             d="M 0,0 H 8.32 L 9.639,-1.313 Z"
             style="fill:#bcbec3;fill-opacity:1;fill-rule:evenodd;stroke:none"
             id="path156" />
        </g>
        <g
           id="g158"
           transform="matrix(1.1121602,0,0,1.1121602,275.04828,336.97732)">
          <path
             d="M 0,0 H -0.441 11.826 Z"
             style="fill:#bcbec3;fill-opacity:1;fill-rule:nonzero;stroke:none"
             id="path160" />
        </g>
        <g
           id="g162"
           transform="matrix(1.1121602,0,0,1.1121602,287.22676,336.97732)">
          <path
             d="M 0,0 H -10.95 0.876 Z"
             style="fill:#bcbec3;fill-opacity:1;fill-rule:nonzero;stroke:none"
             id="path164" />
        </g>
        <g
           id="g166"
           transform="matrix(1.1121602,0,0,1.1121602,274.07736,335.50693)">
          <path
             d="M 0,0 H -0.445 4.818 Z"
             style="fill:#bcbec3;fill-opacity:1;fill-rule:nonzero;stroke:none"
             id="path168" />
        </g>
        <g
           id="g170"
           transform="matrix(1.1121602,0,0,1.1121602,283.32708,335.02548)">
          <path
             d="M 0,0 H 3.065 L -2.184,0.433 Z"
             style="fill:#bcbec3;fill-opacity:1;fill-rule:nonzero;stroke:none"
             id="path172" />
        </g>
        <g
           id="g174"
           transform="matrix(1.1121602,0,0,1.1121602,280.89779,335.50693)">
          <path
             d="M 0,0 5.25,-0.433 5.691,0 Z"
             style="fill:#bcbec3;fill-opacity:1;fill-rule:nonzero;stroke:none"
             id="path176" />
        </g>
        <g
           id="g178"
           transform="matrix(1.1121602,0,0,1.1121602,284.302,334.53402)">
          <path
             d="M 0,0 1.754,-0.878 2.189,0 Z"
             style="fill:#bcbec3;fill-opacity:1;fill-rule:nonzero;stroke:none"
             id="path180" />
        </g>
        <g
           id="g182"
           transform="matrix(1.1121602,0,0,1.1121602,284.302,334.53402)">
          <path
             d="M 0,0 H 2.189 L -0.877,0.442 Z"
             style="fill:#bcbec3;fill-opacity:1;fill-rule:nonzero;stroke:none"
             id="path184" />
        </g>
        <g
           id="g186"
           transform="matrix(1.1121602,0,0,1.1121602,283.32708,335.02548)">
          <path
             d="M 0,0 3.065,-0.442 V 0 Z"
             style="fill:#bcbec3;fill-opacity:1;fill-rule:nonzero;stroke:none"
             id="path188" />
        </g>
        <g
           id="g190"
           transform="matrix(1.1121602,0,0,1.1121602,285.27692,325.27128)">
          <path
             d="M 0,0 H 3.5 Z"
             style="fill:#bcbec3;fill-opacity:1;fill-rule:nonzero;stroke:none"
             id="path192" />
        </g>
        <g
           id="g194"
           transform="matrix(1.1121602,0,0,1.1121602,275.53173,325.27106)">
          <path
             d="M 0,0 2.188,-1.313 H -0.876 Z"
             style="fill:#bcbec3;fill-opacity:1;fill-rule:evenodd;stroke:none"
             id="path196" />
        </g>
        <g
           id="g198"
           transform="matrix(1.1121602,0,0,1.1121602,275.53173,325.27106)">
          <path
             d="M 0,0 2.188,-1.313 Z"
             style="fill:#bcbec3;fill-opacity:1;fill-rule:evenodd;stroke:none"
             id="path200" />
        </g>
        <g
           id="g202"
           transform="matrix(1.1121602,0,0,1.1121602,283.32708,323.31844)">
          <path
             d="M 0,0 H -2.184 4.818 Z"
             style="fill:#bcbec3;fill-opacity:1;fill-rule:nonzero;stroke:none"
             id="path204" />
        </g>
        <g
           id="g206"
           transform="matrix(1.1121602,0,0,1.1121602,283.32708,323.31844)">
          <path
             d="M 0,0 H 4.818 Z"
             style="fill:#bcbec3;fill-opacity:1;fill-rule:nonzero;stroke:none"
             id="path208" />
        </g>
        <g
           id="g210"
           transform="matrix(1.1121602,0,0,1.1121602,273.58189,323.31844)">
          <path
             d="m 0,0 h 6.578 l -5.7,0.442 z"
             style="fill:#bcbec3;fill-opacity:1;fill-rule:nonzero;stroke:none"
             id="path212" />
        </g>
        <g
           id="g214"
           transform="matrix(1.1121602,0,0,1.1121602,274.55781,323.8099)">
          <path
             d="M 0,0 5.701,-0.442 3.064,0 Z"
             style="fill:#bcbec3;fill-opacity:1;fill-rule:nonzero;stroke:none"
             id="path216" />
        </g>
        <g
           id="g218"
           transform="matrix(1.1121602,0,0,1.1121602,275.53173,320.88114)">
          <path
             d="m 0,0 h 0.877 9.198 z"
             style="fill:#bcbec3;fill-opacity:1;fill-rule:nonzero;stroke:none"
             id="path220" />
        </g>
        <g
           id="g222"
           transform="matrix(1.1121602,0,0,1.1121602,275.53173,320.88114)">
          <path
             d="M 0,0 H 10.075 Z"
             style="fill:#bcbec3;fill-opacity:1;fill-rule:nonzero;stroke:none"
             id="path224" />
        </g>
        <g
           id="g226"
           transform="matrix(1.1121602,0,0,1.1121602,278.46049,319.90622)">
          <path
             d="m 0,0 h 5.693 l -7.45,0.877 z"
             style="fill:#bcbec3;fill-opacity:1;fill-rule:nonzero;stroke:none"
             id="path228" />
        </g>
        <g
           id="g230"
           transform="matrix(1.1121602,0,0,1.1121602,276.50665,320.88114)">
          <path
             d="M 0,0 7.45,-0.877 9.198,0 Z"
             style="fill:#bcbec3;fill-opacity:1;fill-rule:nonzero;stroke:none"
             id="path232" />
        </g>
        <g
           id="g234"
           transform="matrix(1.1121602,0,0,1.1121602,280.89779,319.42176)">
          <path
             d="M 0,0 H 2.625 Z"
             style="fill:#bcbec3;fill-opacity:1;fill-rule:nonzero;stroke:none"
             id="path236" />
        </g>
        <g
           id="g238"
           transform="matrix(1.1121602,0,0,1.1121602,280.89779,319.42176)">
          <path
             d="M 0,0 H 2.625 L -2.191,0.436 Z"
             style="fill:#bcbec3;fill-opacity:1;fill-rule:nonzero;stroke:none"
             id="path240" />
        </g>
        <g
           id="g242"
           transform="matrix(1.1121602,0,0,1.1121602,278.46049,319.90622)">
          <path
             d="M 0,0 4.817,-0.436 5.693,0 Z"
             style="fill:#bcbec3;fill-opacity:1;fill-rule:nonzero;stroke:none"
             id="path244" />
        </g>
        <g
           id="g246"
           transform="matrix(1.1121602,0,0,1.1121602,286.25262,333.55743)">
          <path
             d="m 0,0 1.752,3.075 m -2.194,-25.87 h -8.321 m -3.061,13.153 2.184,2.191 M 1.752,3.075 H 0.876 V 3.509 H 0.435 0 V 3.946 H -0.442 V 4.388 H -0.877 -1.312 L -1.754,4.823 H -2.189 -2.631 -3.065 -3.507 -3.941 -4.383 -4.814 -5.254 -5.695 -6.13 -6.571 -7.006 -7.451 L -7.887,4.388 H -8.328 -8.763 V 3.946 H -9.197 -9.64 V 3.509 h -0.434 V 3.075 h -0.442 v -0.44 h -0.431 V 2.198 L -11.393,1.753 V 1.32 0.878 0.443 0 -0.435 -0.872 -1.31 -1.751 l 0.446,-0.442 v -0.433 h 0.431 v -0.445 h 0.442 v -0.433 h 0.434 v -0.444 h 0.443 l 0.434,-0.435 h 0.435 0.441 l 0.436,-0.435 h 0.445 0.435 0.441 v -0.441 h 0.435 0.441 0.44 0.431 0.442 l 0.876,-0.439 h 0.434 0.442 V -6.14 h 0.435 0.442 v -0.436 h 0.435 V -7.017 -7.451 -7.886 -8.33 h -0.435 v -0.434 h -0.442 l -0.435,-0.443 h -0.442 -0.434 -0.442 -0.434 -0.442 -0.431 -0.44 -0.441 -0.435 l -0.441,0.443 h -0.435 -0.445 l -0.436,0.434 h -0.441 l -0.435,0.444 -0.434,0.435 H -9.64"
             style="fill:none;stroke:#050301;stroke-width:2.628;stroke-linecap:round;stroke-linejoin:round;stroke-miterlimit:10;stroke-dasharray:none;stroke-opacity:1"
             id="path248" />
        </g>
        <g
           id="g250"
           transform="matrix(1.1121602,0,0,1.1121602,273.58189,275.52135)">
          <path
             d="M 0,0 H 1.318 L 0.878,0.444 Z"
             style="fill:#bcbec3;fill-opacity:1;fill-rule:nonzero;stroke:none"
             id="path252" />
        </g>
        <g
           id="g254"
           transform="matrix(1.1121602,0,0,1.1121602,273.10244,274.54743)">
          <path
             d="M 0,0 H 2.627 L 0.431,0.876 Z"
             style="fill:#bcbec3;fill-opacity:1;fill-rule:nonzero;stroke:none"
             id="path256" />
        </g>
        <g
           id="g258"
           transform="matrix(1.1121602,0,0,1.1121602,273.58189,275.52135)">
          <path
             d="M 0,0 2.196,-0.876 1.318,0 Z"
             style="fill:#bcbec3;fill-opacity:1;fill-rule:nonzero;stroke:none"
             id="path260" />
        </g>
        <g
           id="g262"
           transform="matrix(1.1121602,0,0,1.1121602,237.05255,271.13688)">
          <path
             d="M 0,0 1.318,-1.313 H -1.31 Z"
             style="fill:#bcbec3;fill-opacity:1;fill-rule:evenodd;stroke:none"
             id="path264" />
        </g>
        <g
           id="g266"
           transform="matrix(1.1121602,0,0,1.1121602,235.59606,269.67606)">
          <path
             d="M 0,0 H 2.628 L 4.376,-1.321 Z"
             style="fill:#bcbec3;fill-opacity:1;fill-rule:evenodd;stroke:none"
             id="path268" />
        </g>
        <g
           id="g270"
           transform="matrix(1.1121602,0,0,1.1121602,273.10211,274.54721)">
          <path
             d="M 0,0 9.635,-7.891 H 7.01 Z"
             style="fill:#bcbec3;fill-opacity:1;fill-rule:evenodd;stroke:none"
             id="path272" />
        </g>
        <g
           id="g274"
           transform="matrix(1.1121602,0,0,1.1121602,273.10211,274.54721)">
          <path
             d="M 0,0 H 2.627 L 9.635,-7.891 Z"
             style="fill:#bcbec3;fill-opacity:1;fill-rule:evenodd;stroke:none"
             id="path276" />
        </g>
        <g
           id="g278"
           transform="matrix(1.1121602,0,0,1.1121602,224.87995,257.9728)">
          <path
             d="M 0,0 H 62.623 Z"
             style="fill:#bcbec3;fill-opacity:1;fill-rule:nonzero;stroke:none"
             id="path280" />
        </g>
        <g
           id="g282"
           transform="matrix(1.1121602,0,0,1.1121602,224.87995,257.48834)">
          <path
             d="M 0,0 H 62.623 L 0,0.436 Z"
             style="fill:#bcbec3;fill-opacity:1;fill-rule:nonzero;stroke:none"
             id="path284" />
        </g>
        <g
           id="g286"
           transform="matrix(1.1121602,0,0,1.1121602,224.87995,257.9728)">
          <path
             d="M 0,0 62.623,-0.436 V 0 Z"
             style="fill:#bcbec3;fill-opacity:1;fill-rule:nonzero;stroke:none"
             id="path288" />
        </g>
        <g
           id="g290"
           transform="matrix(1.1121602,0,0,1.1121602,271.14938,265.7716)">
          <path
             d="M 0,0 -7.006,7.455 -11.383,3.511"
             style="fill:none;stroke:#050301;stroke-width:2.628;stroke-linecap:round;stroke-linejoin:round;stroke-miterlimit:10;stroke-dasharray:none;stroke-opacity:1"
             id="path292" />
        </g>
        <g
           id="g294"
           transform="matrix(1.1121602,0,0,1.1121602,286.73586,262.36127)">
          <path
             d="M 0,0 -10.95,12.276"
             style="fill:none;stroke:#050301;stroke-width:2.628;stroke-linecap:round;stroke-linejoin:round;stroke-miterlimit:10;stroke-dasharray:none;stroke-opacity:1"
             id="path296" />
        </g>
        <g
           id="g298"
           transform="matrix(1.1121602,0,0,1.1121602,271.14938,265.7716)">
          <path
             d="M 0,0 H 8.766"
             style="fill:none;stroke:#050301;stroke-width:2.628;stroke-linecap:round;stroke-linejoin:round;stroke-miterlimit:10;stroke-dasharray:none;stroke-opacity:1"
             id="path300" />
        </g>
        <g
           id="g302"
           transform="matrix(1.1121602,0,0,1.1121602,224.87962,257.4879)">
          <path
             d="M 0,0 V 0.436 L 17.085,19.284"
             style="fill:none;stroke:#050301;stroke-width:2.628;stroke-linecap:round;stroke-linejoin:round;stroke-miterlimit:10;stroke-dasharray:none;stroke-opacity:1"
             id="path304" />
        </g>
        <g
           id="g306"
           transform="matrix(1.1121602,0,0,1.1121602,246.79807,275.52146)">
          <path
             d="M 0,0 -5.696,-6.577"
             style="fill:none;stroke:#050301;stroke-width:2.628;stroke-linecap:round;stroke-linejoin:round;stroke-miterlimit:10;stroke-dasharray:none;stroke-opacity:1"
             id="path308" />
        </g>
        <g
           id="g310"
           transform="matrix(1.1121602,0,0,1.1121602,286.73586,262.36127)">
          <path
             d="M 0,0 H 2.63"
             style="fill:none;stroke:#050301;stroke-width:2.628;stroke-linecap:round;stroke-linejoin:round;stroke-miterlimit:10;stroke-dasharray:none;stroke-opacity:1"
             id="path312" />
        </g>
        <g
           id="g314"
           transform="matrix(1.1121602,0,0,1.1121602,258.48988,269.67606)">
          <path
             d="M 0,0 -7.448,8.325"
             style="fill:none;stroke:#050301;stroke-width:2.628;stroke-linecap:round;stroke-linejoin:round;stroke-miterlimit:10;stroke-dasharray:none;stroke-opacity:1"
             id="path316" />
        </g>
        <g
           id="g318"
           transform="matrix(1.1121602,0,0,1.1121602,240.46287,268.20656)">
          <path
             d="M 0,0 -3.066,2.635"
             style="fill:none;stroke:#050301;stroke-width:2.628;stroke-linecap:round;stroke-linejoin:round;stroke-miterlimit:10;stroke-dasharray:none;stroke-opacity:1"
             id="path320" />
        </g>
        <g
           id="g322"
           transform="matrix(1.1121602,0,0,1.1121602,289.66073,262.36127)">
          <path
             d="M 0,0 H 1.311"
             style="fill:none;stroke:#050301;stroke-width:2.628;stroke-linecap:round;stroke-linejoin:round;stroke-miterlimit:10;stroke-dasharray:none;stroke-opacity:1"
             id="path324" />
        </g>
        <g
           id="g326"
           transform="matrix(1.1121602,0,0,1.1121602,277.48124,279.42815)">
          <path
             d="M 0,0 V 0.436"
             style="fill:none;stroke:#050301;stroke-width:2.628;stroke-linecap:round;stroke-linejoin:round;stroke-miterlimit:10;stroke-dasharray:none;stroke-opacity:1"
             id="path328" />
        </g>
        <g
           id="g330"
           transform="matrix(1.1121602,0,0,1.1121602,259.46736,289.1769)">
          <path
             d="m 0,0 -11.392,-12.278 -2.623,3.069"
             style="fill:none;stroke:#050301;stroke-width:2.628;stroke-linecap:round;stroke-linejoin:round;stroke-miterlimit:10;stroke-dasharray:none;stroke-opacity:1"
             id="path332" />
        </g>
        <g
           id="g334"
           transform="matrix(1.1121602,0,0,1.1121602,277.48124,279.42815)">
          <path
             d="M 0,0 -3.938,-4.389"
             style="fill:none;stroke:#050301;stroke-width:2.628;stroke-linecap:round;stroke-linejoin:round;stroke-miterlimit:10;stroke-dasharray:none;stroke-opacity:1"
             id="path336" />
        </g>
        <g
           id="g338"
           transform="matrix(1.1121602,0,0,1.1121602,280.89813,265.7716)">
          <path
             d="M 0,0 -19.27,21.045"
             style="fill:none;stroke:#050301;stroke-width:2.628;stroke-linecap:round;stroke-linejoin:round;stroke-miterlimit:10;stroke-dasharray:none;stroke-opacity:1"
             id="path340" />
        </g>
        <g
           id="g342"
           transform="matrix(1.1121602,0,0,1.1121602,294.52643,257.4879)">
          <path
             d="M 0,0 V 0.436 L -15.326,19.728"
             style="fill:none;stroke:#050301;stroke-width:2.628;stroke-linecap:round;stroke-linejoin:round;stroke-miterlimit:10;stroke-dasharray:none;stroke-opacity:1"
             id="path344" />
        </g>
        <g
           id="g346"
           transform="matrix(1.1121602,0,0,1.1121602,273.10211,322.83387)">
          <path
             d="M 0,0 0.877,-0.443 V -0.879 H 1.309 V -1.321 H 1.75 2.185 v -0.435 h 0.442 0.435 v -0.437 h 0.434 0.442 l 0.435,-0.44 H 4.818 5.253 5.694 L 6.129,-3.068 H 6.57 7.01 7.441 7.883 8.317 8.759 9.193 9.635 10.07 l 0.442,0.435 h 0.435 0.435 v 0.44 h 0.442 l 0.435,0.437 0.441,0.435 0.435,0.442 h 0.441 V -0.443 0 h 0.436 v 0.436 0.442 h 0.435 V 1.312 1.756 2.191 2.625 3.066 3.502 L 14.012,3.944 V 4.383 L 13.576,4.824 V 5.259 H 13.135 V 5.694 H 12.7 V 6.138 H 12.259 L 11.824,6.571 H 11.382 L 10.947,7.016 H 10.512 10.07 L 9.635,7.449 H 9.193 8.759 8.317 L 7.01,7.891 H 6.129 L 5.694,8.332 H 5.253 4.818 V 8.771 H 4.373 3.938 v 0.436 0.435 0.443 0.436 l 0.435,0.441 h 0.445 v 0.433 H 5.253 5.694 6.129 6.57 7.01 7.441 7.883 8.317 8.759 9.193 v -0.433 h 0.442 0.435 v -0.441 h 0.442 l 0.435,-0.436 0.877,-0.443"
             style="fill:none;stroke:#050301;stroke-width:2.628;stroke-linecap:round;stroke-linejoin:round;stroke-miterlimit:10;stroke-dasharray:none;stroke-opacity:1"
             id="path348" />
        </g>
        <g
           id="g350"
           transform="matrix(1.1121602,0,0,1.1121602,224.87962,257.4879)">
          <path
             d="M 0,0 H 62.623"
             style="fill:none;stroke:#050301;stroke-width:2.628;stroke-linecap:round;stroke-linejoin:round;stroke-miterlimit:10;stroke-dasharray:none;stroke-opacity:1"
             id="path352" />
        </g>
      </g>
      <g
         id="g10"
         transform="matrix(1.1121602,0,0,1.1121602,200.25041,119.4964)" />
    </g>
    <g
       id="g3681"
       transform="matrix(3.8117399,0,0,-3.8117399,792.21439,903.8503)">
      <g
         id="g1430"
         transform="translate(99.6533,226.6113)">
        <path
           d="m 0,0 c 0,0 6.973,0.962 9.405,0.962 2.433,0 16.38,-1.368 25.788,-3.315 9.408,-1.946 15.245,-5.189 18.165,-10.378 2.92,-5.191 5.109,-7.218 5.757,-7.218 0.649,0 -0.08,2.757 0.407,3.568 0.484,0.811 2.513,2.676 4.783,2.189 2.272,-0.486 2.002,-1.974 3.243,-2.595 1.46,-0.73 3.046,-0.161 3.046,-0.161 0,0 -1.827,-0.516 -2.314,-2.448 -0.488,-1.932 -1.786,-3.715 -2.758,-4.527 0,0 -0.406,-1.783 0.161,-3.486 0.308,-0.92 4.137,-15.656 -3.08,-29.276 -6.053,-11.42 -13.705,-24.329 -19.706,-30.41 0,0 16.342,20.302 10.745,44.03 L 49.14,-44.52 v 0.851 c 0,0 7.664,1.466 12.895,8.214 5.23,6.748 1.095,12.586 1.095,12.586 0,0 -4.745,-0.242 -7.177,-3.405 -2.432,-3.163 -8.028,-7.177 -8.028,-7.177 0,0 -2.38,12.109 -9.245,17.638 -1.256,1.01 -4.521,4.18 -9.488,6.811 C 21.612,-4.984 8.515,-0.853 0,0"
           style="fill:#050606;fill-opacity:1;fill-rule:nonzero;stroke:none"
           id="path1432" />
      </g>
      <g
         id="g1434"
         transform="translate(62.9189,175.1582)">
        <path
           d="m 0,0 c 0,0 0,-1.946 1.581,-2.676 0,0 -6.69,-3.041 -8.272,-4.865 -1.58,-1.826 -0.729,-5.231 3.042,-5.477 3.771,-0.242 9.244,2.921 11.434,2.557 0,0 -3.045,-1.423 -5.17,-2.008 -5.292,-1.461 -8.029,-0.851 -12.346,-1.918 -2.307,-0.567 -6.751,-4.297 -13.38,-7.819 -6.63,-3.523 -13.32,-6.564 -13.32,-6.564 0,0 22.807,16.422 23.293,17.333 0,0 -7.43,-0.207 -16.42,-0.667 -4.744,-0.244 -13.701,2.312 -13.701,2.312 0,0 19.808,0.688 27.932,2.615 C -4.562,-4.622 0,0 0,0"
           style="fill:#050606;fill-opacity:1;fill-rule:nonzero;stroke:none"
           id="path1436" />
      </g>
      <g
         id="g1438"
         transform="translate(75.9941,169.8525)">
        <path
           d="m 0,0 c 0.39,-0.56 0.657,-1.117 0.8,-1.67 0.143,-0.554 0.215,-1.239 0.215,-2.06 v -0.215 c 0.546,0 1.142,0.147 1.786,0.439 0.644,0.294 1.094,0.614 1.348,0.968 0.253,0.35 0.381,0.846 0.381,1.484 0,0.559 -0.189,1.034 -0.566,1.425 C 3.585,0.762 3.117,0.957 2.558,0.957 2.05,0.957 1.62,0.881 1.269,0.732 0.917,0.583 0.494,0.338 0,0 m -3.906,-1.387 c 0.443,0 0.891,0.081 1.347,0.244 0.455,0.163 0.931,0.408 1.426,0.733 -0.326,0.501 -0.716,0.892 -1.172,1.176 -0.455,0.284 -0.95,0.425 -1.484,0.425 -0.469,0 -0.892,-0.151 -1.27,-0.453 -0.377,-0.301 -0.566,-0.656 -0.566,-1.062 0,-0.341 0.176,-0.604 0.528,-0.787 0.351,-0.183 0.748,-0.276 1.191,-0.276 m -2.499,0.455 c 0,0.301 0.091,0.602 0.273,0.903 0.182,0.3 0.423,0.602 0.723,0.903 0.299,0.301 0.65,0.523 1.054,0.667 0.403,0.145 0.872,0.217 1.406,0.217 0.586,0 1.094,-0.125 1.523,-0.377 0.429,-0.251 0.846,-0.633 1.25,-1.147 0.69,0.521 1.269,0.905 1.737,1.153 0.469,0.247 0.99,0.371 1.563,0.371 0.703,0 1.308,-0.261 1.815,-0.781 C 5.447,0.455 5.702,-0.17 5.702,-0.898 5.702,-1.575 5.493,-2.132 5.076,-2.567 4.659,-3.003 4.067,-3.392 3.299,-3.73 L 2.713,-3.926 c 0.079,-0.052 0.141,-0.103 0.186,-0.156 0.045,-0.052 0.134,-0.162 0.264,-0.332 0.156,-0.273 0.273,-0.55 0.352,-0.83 0.077,-0.279 0.223,-0.828 0.438,-1.643 0.215,-0.812 0.381,-1.39 0.498,-1.736 0.118,-0.344 0.277,-0.608 0.479,-0.791 0.202,-0.183 0.373,-0.322 0.517,-0.42 0.144,-0.098 0.332,-0.145 0.566,-0.145 0.339,0 0.626,0.095 0.86,0.291 0.091,0.065 0.162,0.06 0.215,-0.019 v -0.195 l -0.274,-0.156 c -0.247,-0.158 -0.462,-0.264 -0.644,-0.324 -0.182,-0.057 -0.404,-0.087 -0.664,-0.087 -0.313,0 -0.603,0.051 -0.869,0.147 -0.267,0.098 -0.55,0.298 -0.849,0.596 C 3.487,-9.428 3.247,-8.972 3.064,-8.359 2.883,-7.747 2.71,-7.072 2.548,-6.338 2.385,-5.604 2.271,-5.14 2.206,-4.951 2.141,-4.762 2.017,-4.57 1.835,-4.374 1.691,-4.257 1.594,-4.198 1.542,-4.198 H 1.015 C 0.924,-5.3 0.644,-6.305 0.175,-7.215 -0.293,-8.127 -0.854,-8.82 -1.504,-9.297 c -0.652,-0.478 -1.247,-0.827 -1.788,-1.042 -0.539,-0.215 -1.115,-0.325 -1.727,-0.325 -0.795,0 -1.484,0.203 -2.07,0.606 -0.586,0.404 -0.878,0.99 -0.878,1.757 0,0.794 0.285,1.469 0.858,2.022 0.571,0.552 1.278,0.83 2.12,0.83 0.157,0 0.302,-0.016 0.434,-0.05 0.131,-0.032 0.277,-0.088 0.434,-0.166 v -0.176 c -0.091,-0.064 -0.15,-0.097 -0.176,-0.097 -0.208,0.091 -0.341,0.143 -0.399,0.157 -0.06,0.011 -0.167,0.02 -0.323,0.02 -0.495,0 -0.918,-0.191 -1.27,-0.568 -0.351,-0.377 -0.527,-0.827 -0.527,-1.346 0,-0.664 0.3,-1.216 0.899,-1.651 0.599,-0.437 1.236,-0.653 1.914,-0.653 0.897,0 1.698,0.382 2.4,1.151 0.47,0.456 0.818,1.103 1.046,1.941 0.228,0.842 0.342,1.736 0.342,2.689 0,0.689 -0.049,1.32 -0.147,1.893 -0.097,0.574 -0.303,1.126 -0.615,1.66 -0.768,-0.52 -1.413,-0.898 -1.933,-1.131 -0.521,-0.235 -1.14,-0.353 -1.855,-0.353 -0.404,0 -0.778,0.106 -1.123,0.315 -0.345,0.209 -0.517,0.502 -0.517,0.882"
           style="fill:#050606;fill-opacity:1;fill-rule:nonzero;stroke:none"
           id="path1440" />
      </g>
      <g
         id="g1442"
         transform="translate(86.9282,164.7139)">
        <path
           d="m 0,0 c 0,0.132 0.055,0.254 0.164,0.363 0.108,0.112 0.227,0.166 0.354,0.166 0.153,0 0.281,-0.05 0.384,-0.155 C 1.003,0.27 1.055,0.146 1.055,0 1.055,-0.14 1.003,-0.266 0.902,-0.368 0.799,-0.473 0.671,-0.526 0.518,-0.526 0.377,-0.526 0.256,-0.473 0.154,-0.368 0.051,-0.266 0,-0.14 0,0 m -0.351,-2.362 c 0.013,0.025 0.03,0.065 0.048,0.117 0.02,0.053 0.05,0.091 0.088,0.117 l 0.899,0.451 c 0.064,0.026 0.109,0.026 0.136,0 0.026,-0.027 0.039,-0.105 0.039,-0.236 v -1.915 -0.41 c 0,-0.105 0.021,-0.188 0.059,-0.246 0.039,-0.059 0.091,-0.127 0.156,-0.203 0,-0.068 -0.019,-0.122 -0.058,-0.167 C 0.977,-4.899 0.885,-4.979 0.742,-5.09 0.599,-5.2 0.452,-5.302 0.303,-5.393 0.154,-5.483 0.052,-5.529 0,-5.529 c -0.064,0 -0.11,0.078 -0.137,0.233 -0.013,0.041 0.013,0.131 0.079,0.274 0.012,0.118 0.023,0.279 0.03,0.489 0.006,0.21 0.015,0.399 0.028,0.567 v 0.353 0.392 c 0,0.168 -0.039,0.319 -0.117,0.45 -0.078,0.126 -0.156,0.265 -0.234,0.409"
           style="fill:#050606;fill-opacity:1;fill-rule:nonzero;stroke:none"
           id="path1444" />
      </g>
      <g
         id="g1446"
         transform="translate(93.1768,163.1523)">
        <path
           d="M 0,0 C 0.196,0 0.369,-0.055 0.519,-0.165 0.667,-0.276 0.742,-0.416 0.742,-0.584 0.73,-0.715 0.694,-0.834 0.635,-0.937 0.577,-1.041 0.502,-1.093 0.411,-1.093 c -0.222,0 -0.332,0.13 -0.332,0.391 0,0.181 -0.137,0.273 -0.411,0.273 -0.09,0 -0.214,-0.062 -0.371,-0.185 -0.156,-0.123 -0.233,-0.283 -0.233,-0.479 0,-0.26 0.119,-0.488 0.361,-0.682 0.241,-0.196 0.478,-0.379 0.713,-0.548 C 0.32,-2.479 0.489,-2.647 0.646,-2.83 0.801,-3.013 0.879,-3.274 0.879,-3.611 0.879,-3.896 0.801,-4.168 0.646,-4.422 0.489,-4.676 0.274,-4.908 0,-5.124 -0.273,-5.341 -0.569,-5.49 -0.888,-5.574 -1.207,-5.658 -1.503,-5.701 -1.776,-5.701 l -0.059,0.137 c 0,0.078 0.026,0.148 0.079,0.215 0.442,0 0.845,0.11 1.21,0.33 0.364,0.221 0.546,0.535 0.546,0.94 0,0.415 -0.211,0.801 -0.634,1.151 -0.423,0.352 -0.683,0.615 -0.781,0.792 -0.097,0.173 -0.147,0.373 -0.147,0.594 0,0.247 0.056,0.463 0.166,0.645 0.111,0.182 0.277,0.364 0.499,0.545 C -0.559,-0.115 -0.26,0 0,0"
           style="fill:#050606;fill-opacity:1;fill-rule:nonzero;stroke:none"
           id="path1448" />
      </g>
      <g
         id="g1450"
         transform="translate(98.8589,162.4893)">
        <path
           d="m 0,0 v -1.055 c 0,-0.507 0.014,-0.849 0.039,-1.025 0.025,-0.176 0.124,-0.264 0.293,-0.264 0.09,0 0.137,-0.058 0.137,-0.177 l -0.06,-0.154 -0.703,-0.527 c -0.09,-0.09 -0.168,-0.136 -0.233,-0.136 -0.158,0 -0.264,0.092 -0.323,0.283 -0.057,0.187 -0.087,0.471 -0.087,0.849 0,0.312 0.016,0.735 0.049,1.269 0.031,0.534 0.048,0.839 0.048,0.916 L -1.464,0 c 0,0.025 -0.01,0.053 -0.03,0.079 -0.02,0.025 -0.035,0.045 -0.049,0.059 0,0.102 0.033,0.174 0.096,0.214 h 0.676 c 0.088,0.208 0.177,0.393 0.261,0.557 0.081,0.161 0.191,0.358 0.326,0.586 0.136,0.228 0.263,0.419 0.38,0.576 0.117,0.154 0.213,0.291 0.292,0.409 0.078,0.078 0.148,0.078 0.215,0 C 0.742,2.416 0.761,2.362 0.761,2.325 0.578,2.013 0.416,1.666 0.273,1.289 L 0,0.352 H 0.956 C 1.021,0.261 1.055,0.201 1.055,0.176 1.014,0.07 0.982,0.012 0.958,0 Z"
           style="fill:#050606;fill-opacity:1;fill-rule:nonzero;stroke:none"
           id="path1452" />
      </g>
      <g
         id="g1454"
         transform="translate(105.147,159.5215)">
        <path
           d="m 0,0 c 0.299,0 0.546,0.153 0.741,0.459 0.196,0.305 0.293,0.654 0.293,1.044 0,0.404 -0.088,0.781 -0.263,1.133 -0.175,0.351 -0.4,0.528 -0.674,0.528 -0.299,0 -0.566,-0.187 -0.8,-0.558 -0.235,-0.371 -0.352,-0.731 -0.352,-1.084 0,-0.403 0.09,-0.758 0.274,-1.063 C -0.599,0.153 -0.338,0 0,0 M 0.839,3.69 C 1.138,3.69 1.383,3.52 1.571,3.183 1.761,2.843 1.854,2.479 1.854,2.089 1.854,1.49 1.667,0.937 1.29,0.429 0.912,-0.08 0.481,-0.333 0,-0.333 c -0.521,0 -0.97,0.16 -1.347,0.478 -0.377,0.321 -0.568,0.74 -0.568,1.261 0,0.3 0.059,0.557 0.177,0.771 0.117,0.214 0.265,0.395 0.45,0.547 0.183,0.148 0.348,0.269 0.497,0.36 0.15,0.091 0.354,0.192 0.615,0.304 C 0.085,3.499 0.273,3.576 0.39,3.622 0.507,3.668 0.657,3.69 0.839,3.69"
           style="fill:#050606;fill-opacity:1;fill-rule:nonzero;stroke:none"
           id="path1456" />
      </g>
      <g
         id="g1458"
         transform="translate(111.8447,161.1494)">
        <path
           d="m 0,0 v -0.599 -0.292 c 0,-0.168 0.043,-0.281 0.127,-0.338 0.085,-0.058 0.186,-0.102 0.302,-0.127 0.117,-0.025 0.307,-0.038 0.567,-0.038 0.047,-0.027 0.085,-0.045 0.112,-0.059 0.03,-0.014 0.045,-0.031 0.045,-0.06 0,-0.14 -0.067,-0.213 -0.195,-0.213 -0.167,0 -0.326,-0.003 -0.474,-0.011 -0.147,-0.008 -0.298,-0.024 -0.455,-0.053 -0.154,-0.027 -0.31,-0.065 -0.463,-0.107 -0.156,-0.042 -0.278,-0.064 -0.369,-0.064 -0.168,0 -0.252,0.067 -0.252,0.198 0.052,0.092 0.105,0.203 0.156,0.335 0.054,0.131 0.079,0.289 0.079,0.474 v 1.027 c 0,0.287 -0.052,0.559 -0.156,0.808 -0.079,0.104 -0.151,0.21 -0.214,0.315 0,0.053 0.008,0.096 0.028,0.129 0.018,0.032 0.034,0.055 0.047,0.068 l 0.758,0.495 h 0.167 c 0.065,0 0.112,-0.034 0.143,-0.101 C -0.016,1.723 0,1.646 0,1.555 V 1.261 0.48 c 0.378,0.528 0.687,0.893 0.928,1.1 0.241,0.203 0.446,0.308 0.614,0.308 0.184,0 0.345,-0.086 0.49,-0.255 C 2.173,1.464 2.246,1.261 2.246,1.028 2.246,0.585 2.118,0.243 1.865,0.003 1.612,-0.239 1.374,-0.404 1.153,-0.495 c -0.092,0.04 -0.138,0.074 -0.138,0.101 -0.038,0.051 -0.025,0.13 0.04,0.234 0.104,0.078 0.217,0.166 0.342,0.263 0.124,0.096 0.185,0.224 0.185,0.379 0,0.105 -0.04,0.208 -0.118,0.311 C 1.387,0.897 1.289,0.949 1.172,0.949 1.002,0.949 0.82,0.861 0.625,0.688 0.429,0.514 0.221,0.284 0,0"
           style="fill:#050606;fill-opacity:1;fill-rule:nonzero;stroke:none"
           id="path1460" />
      </g>
      <g
         id="g1462"
         transform="translate(120.105,161.5137)">
        <path
           d="m 0,0 c 0,0.338 -0.043,0.56 -0.126,0.664 -0.085,0.104 -0.179,0.179 -0.284,0.225 -0.105,0.046 -0.194,0.066 -0.273,0.066 -0.377,0 -0.713,-0.146 -1.005,-0.438 -0.292,-0.292 -0.44,-0.602 -0.44,-0.928 0,-0.274 0.08,-0.518 0.244,-0.732 0.162,-0.213 0.368,-0.323 0.614,-0.323 0.377,0 0.683,0.137 0.919,0.411 C -0.117,-0.781 0,-0.431 0,0 m -2.949,-1.055 c 0,0.286 0.069,0.529 0.205,0.723 0.136,0.195 0.353,0.452 0.645,0.77 0.292,0.32 0.599,0.583 0.918,0.79 0.318,0.209 0.666,0.312 1.044,0.312 0.286,0 0.56,-0.033 0.82,-0.104 C 0.944,1.362 1.074,1.269 1.074,1.151 1.074,1.072 1.022,0.97 0.917,0.838 0.813,0.709 0.762,0.605 0.762,0.526 v -1.385 c 0,-0.286 0.058,-0.47 0.175,-0.548 0.157,0.025 0.28,0.025 0.371,0 L 1.406,-1.466 C 1.406,-1.547 1.313,-1.657 1.13,-1.799 0.947,-1.94 0.766,-2.079 0.589,-2.215 0.526,-2.31 0.466,-2.39 0.409,-2.457 0.352,-2.524 0.285,-2.559 0.208,-2.559 0.069,-2.559 0,-2.448 0,-2.227 v 1.074 c -0.131,-0.143 -0.235,-0.25 -0.307,-0.322 -0.073,-0.072 -0.175,-0.157 -0.307,-0.254 -0.131,-0.097 -0.299,-0.222 -0.505,-0.372 -0.204,-0.149 -0.445,-0.224 -0.721,-0.224 -0.317,0 -0.581,0.128 -0.792,0.382 -0.212,0.253 -0.317,0.548 -0.317,0.888"
           style="fill:#050606;fill-opacity:1;fill-rule:nonzero;stroke:none"
           id="path1464" />
      </g>
      <g
         id="g1466"
         transform="translate(126.061,161.2393)">
        <path
           d="m 0,0 v -0.684 c 0,-0.09 0.012,-0.213 0.039,-0.371 0.026,-0.156 0.038,-0.273 0.038,-0.351 0,-0.065 -0.126,-0.168 -0.381,-0.312 -0.253,-0.142 -0.432,-0.216 -0.534,-0.216 -0.106,0 -0.159,0.104 -0.159,0.314 0,0.091 0.027,0.227 0.079,0.409 0.052,0.182 0.08,0.332 0.08,0.45 v 1.308 c 0,0.156 -0.057,0.306 -0.167,0.45 -0.112,0.141 -0.166,0.227 -0.166,0.253 0,0.065 0.035,0.124 0.107,0.176 0.073,0.052 0.186,0.127 0.338,0.223 0.152,0.099 0.281,0.17 0.388,0.215 0.105,0.045 0.197,0.07 0.278,0.07 0.091,0 0.137,-0.085 0.137,-0.255 L 0,0.605 V 0.254 c 0.182,0.169 0.374,0.334 0.577,0.499 0.201,0.161 0.401,0.313 0.605,0.458 0.2,0.143 0.433,0.3 0.692,0.468 0.261,0.17 0.455,0.255 0.586,0.255 0.17,0 0.254,-0.052 0.254,-0.157 C 2.714,1.582 2.698,1.358 2.664,1.104 2.632,0.851 2.616,0.678 2.616,0.587 v -0.802 c 0,-0.247 0.011,-0.407 0.03,-0.477 0.018,-0.072 0.058,-0.147 0.117,-0.225 0.06,-0.079 0.087,-0.149 0.087,-0.216 0,-0.115 -0.159,-0.278 -0.478,-0.487 -0.317,-0.21 -0.517,-0.314 -0.596,-0.314 -0.091,0 -0.137,0.074 -0.137,0.216 l 0.059,0.447 0.059,0.491 V 0.312 0.587 C 1.757,0.82 1.692,0.938 1.561,0.938 1.394,0.938 1.197,0.866 0.975,0.724 0.754,0.579 0.429,0.339 0,0"
           style="fill:#050606;fill-opacity:1;fill-rule:nonzero;stroke:none"
           id="path1468" />
      </g>
      <g
         id="g1470"
         transform="translate(133.6177,162.4893)">
        <path
           d="m 0,0 v -1.055 c 0,-0.507 0.012,-0.849 0.038,-1.025 0.026,-0.176 0.125,-0.264 0.294,-0.264 0.091,0 0.137,-0.058 0.137,-0.177 L 0.41,-2.675 -0.293,-3.202 c -0.092,-0.09 -0.17,-0.136 -0.233,-0.136 -0.159,0 -0.266,0.092 -0.324,0.283 -0.058,0.187 -0.087,0.471 -0.087,0.849 0,0.312 0.015,0.735 0.048,1.269 0.033,0.534 0.049,0.839 0.049,0.916 L -1.465,0 c 0,0.025 -0.01,0.053 -0.029,0.079 -0.021,0.025 -0.037,0.045 -0.05,0.059 0,0.102 0.032,0.174 0.097,0.214 h 0.675 c 0.09,0.208 0.177,0.393 0.261,0.557 0.083,0.161 0.193,0.358 0.326,0.586 0.137,0.228 0.263,0.419 0.38,0.576 0.117,0.154 0.215,0.291 0.292,0.409 0.078,0.078 0.15,0.078 0.214,0 C 0.741,2.416 0.76,2.362 0.76,2.325 0.578,2.013 0.415,1.666 0.272,1.289 L 0,0.352 H 0.955 C 1.02,0.261 1.054,0.201 1.054,0.176 1.015,0.07 0.982,0.012 0.956,0 Z"
           style="fill:#050606;fill-opacity:1;fill-rule:nonzero;stroke:none"
           id="path1472" />
      </g>
      <g
         id="g1474"
         transform="translate(139.2002,162.5273)">
        <path
           d="M 0,0 C -0.193,0 -0.339,-0.085 -0.438,-0.256 -0.535,-0.428 -0.584,-0.631 -0.584,-0.869 V -1.54 l 1.044,0.514 c 0.228,0.117 0.343,0.274 0.343,0.473 0,0.145 -0.087,0.273 -0.264,0.385 C 0.362,-0.056 0.185,0 0,0 m 1.641,-0.234 c 0.052,-0.026 0.157,-0.026 0.313,0 l 0.215,-0.2 -2.637,-1.401 0.333,-0.43 c 0.131,-0.154 0.256,-0.275 0.381,-0.359 0.124,-0.086 0.251,-0.128 0.382,-0.128 0.181,0 0.37,0.053 0.565,0.157 0.234,0.155 0.403,0.266 0.507,0.33 0,0.036 0.052,0.061 0.157,0.079 0.079,-0.081 0.079,-0.146 0,-0.198 C 1.765,-2.518 1.67,-2.631 1.574,-2.723 1.476,-2.814 1.341,-2.911 1.173,-3.01 1.004,-3.109 0.835,-3.19 0.665,-3.249 0.497,-3.31 0.301,-3.339 0.079,-3.339 c -0.456,0 -0.819,0.191 -1.092,0.569 -0.274,0.38 -0.41,0.825 -0.41,1.335 0,0.236 0.032,0.446 0.097,0.628 0.194,0.315 0.447,0.583 0.751,0.805 0.305,0.223 0.55,0.376 0.734,0.461 C 0.34,0.543 0.523,0.587 0.705,0.587 0.913,0.587 1.12,0.464 1.33,0.214 1.433,0.059 1.538,-0.09 1.641,-0.234"
           style="fill:#050606;fill-opacity:1;fill-rule:nonzero;stroke:none"
           id="path1476" />
      </g>
      <g
         id="g1478"
         transform="translate(36.0122,197.3379)">
        <path
           d="M 0,0 C 1.072,0 2.025,0.282 2.863,0.847 3.698,1.412 4.338,2.009 4.78,2.639 5.222,3.269 5.475,3.636 5.541,3.739 5.607,3.842 5.696,4.008 5.809,4.233 5.245,4.383 4.667,4.504 4.075,4.597 3.483,4.69 2.886,4.737 2.285,4.737 1.138,4.737 0.104,4.492 -0.817,4.004 -1.738,3.515 -2.198,2.866 -2.198,2.059 -2.198,1.494 -1.997,1.011 -1.592,0.606 -1.188,0.202 -0.657,0 0,0 m -3.242,2.087 c 0,0.526 0.244,1.071 0.733,1.635 0.489,0.564 1.025,1.025 1.607,1.382 0.583,0.356 1.283,0.62 2.101,0.789 0.818,0.169 1.649,0.253 2.496,0.253 0.507,0 1.019,-0.025 1.535,-0.076 0.519,-0.051 1.02,-0.12 1.51,-0.205 1.165,2.72 2.339,5.448 3.524,8.188 0.921,1.688 1.884,3.024 2.89,4.009 1.006,0.985 2.185,1.477 3.539,1.477 0.807,0 1.503,-0.281 2.086,-0.845 0.582,-0.564 0.873,-1.259 0.873,-2.087 0,-0.676 -0.131,-1.236 -0.394,-1.677 -0.263,-0.442 -0.724,-0.992 -1.382,-1.649 l -0.31,0.028 c -0.075,0.13 -0.112,0.225 -0.112,0.282 0.376,0.376 0.643,0.704 0.803,0.986 0.16,0.282 0.24,0.63 0.24,1.044 0,0.62 -0.245,1.142 -0.733,1.565 -0.489,0.422 -1.062,0.633 -1.72,0.633 -1.335,0 -2.326,-0.474 -2.975,-1.423 -0.648,-0.95 -1.316,-2.002 -2.002,-3.158 C 10.381,12.082 9.634,10.582 8.826,8.741 8.018,6.898 7.566,5.874 7.472,5.667 7.98,5.555 9.141,5.221 10.955,4.666 c 1.813,-0.555 3.359,-0.832 4.637,-0.832 1.034,0 1.918,0.16 2.651,0.48 0.734,0.32 1.504,0.856 2.312,1.608 0.132,0.074 0.226,0.112 0.282,0.112 0.056,0 0.08,-0.043 0.07,-0.127 C 20.898,5.822 20.893,5.742 20.893,5.667 20.724,5.272 20.527,4.938 20.301,4.666 20.076,4.394 19.755,4.031 19.343,3.581 18.929,3.13 18.332,2.745 17.552,2.425 16.772,2.104 15.827,1.945 14.719,1.945 13.384,1.945 12.012,2.171 10.602,2.622 9.192,3.074 7.849,3.524 6.57,3.977 5.687,2.603 4.648,1.504 3.454,0.677 2.26,-0.15 1.025,-0.563 -0.253,-0.563 c -0.808,0 -1.509,0.234 -2.1,0.704 -0.593,0.47 -0.889,1.119 -0.889,1.946"
           style="fill:#871431;fill-opacity:1;fill-rule:nonzero;stroke:none"
           id="path1480" />
      </g>
      <g
         id="g1482"
         transform="translate(61.4731,202.6387)">
        <path
           d="m 0,0 c 0,0.489 -0.061,0.808 -0.183,0.959 -0.123,0.15 -0.259,0.258 -0.409,0.324 -0.15,0.066 -0.282,0.099 -0.395,0.099 -0.545,0 -1.029,-0.212 -1.451,-0.635 -0.423,-0.423 -0.635,-0.869 -0.635,-1.339 0,-0.394 0.117,-0.747 0.352,-1.057 0.235,-0.31 0.531,-0.465 0.888,-0.465 0.545,0 0.987,0.197 1.325,0.592 C -0.169,-1.128 0,-0.62 0,0 m -4.257,-1.522 c 0,0.413 0.098,0.761 0.296,1.043 0.197,0.282 0.507,0.653 0.93,1.114 0.423,0.46 0.865,0.841 1.325,1.141 0.46,0.301 0.964,0.452 1.509,0.452 0.413,0 0.808,-0.052 1.184,-0.155 C 1.363,1.969 1.55,1.833 1.55,1.664 1.55,1.551 1.476,1.4 1.325,1.213 1.175,1.024 1.1,0.874 1.1,0.762 V -1.24 c 0,-0.414 0.084,-0.677 0.253,-0.79 0.226,0.038 0.404,0.038 0.536,0 L 2.031,-2.114 C 2.031,-2.231 1.897,-2.393 1.632,-2.597 1.367,-2.802 1.106,-3.002 0.85,-3.197 0.758,-3.333 0.672,-3.449 0.589,-3.547 0.507,-3.645 0.412,-3.693 0.302,-3.693 0.101,-3.693 0,-3.533 0,-3.214 v 1.551 c -0.19,-0.207 -0.338,-0.362 -0.443,-0.466 -0.105,-0.103 -0.253,-0.225 -0.442,-0.366 -0.191,-0.141 -0.434,-0.32 -0.729,-0.536 -0.296,-0.216 -0.643,-0.324 -1.043,-0.324 -0.457,0 -0.839,0.183 -1.144,0.549 -0.304,0.368 -0.456,0.794 -0.456,1.284"
           style="fill:#871431;fill-opacity:1;fill-rule:nonzero;stroke:none"
           id="path1484" />
      </g>
      <g
         id="g1486"
         transform="translate(102.1387,193.123)">
        <path
           d="m 0,0 c 0,0.45 0.178,0.867 0.536,1.251 0.356,0.382 0.746,0.575 1.169,0.575 0.502,0 0.923,-0.18 1.26,-0.541 C 3.302,0.923 3.469,0.495 3.469,0 3.469,-0.497 3.302,-0.925 2.965,-1.285 2.628,-1.646 2.207,-1.827 1.705,-1.827 1.24,-1.827 0.84,-1.646 0.505,-1.285 0.167,-0.925 0,-0.497 0,0 m -1.157,-8.187 c 0.043,0.09 0.097,0.225 0.161,0.406 0.064,0.18 0.162,0.315 0.29,0.406 l 2.956,1.559 c 0.208,0.089 0.356,0.089 0.445,0 0.087,-0.092 0.132,-0.362 0.132,-0.813 v -6.637 -1.422 c 0,-0.361 0.066,-0.643 0.194,-0.846 0.127,-0.203 0.298,-0.442 0.514,-0.711 0,-0.227 -0.066,-0.418 -0.192,-0.575 -0.13,-0.159 -0.431,-0.429 -0.901,-0.813 C 1.969,-18.018 1.487,-18.368 0.997,-18.684 0.503,-19 0.171,-19.156 0,-19.156 c -0.215,0 -0.365,0.269 -0.45,0.812 -0.043,0.135 0.042,0.451 0.258,0.948 0.042,0.406 0.073,0.97 0.097,1.692 0.018,0.723 0.051,1.376 0.095,1.964 v 1.219 1.355 c 0,0.587 -0.128,1.105 -0.385,1.557 -0.257,0.451 -0.514,0.925 -0.772,1.422"
           style="fill:#871431;fill-opacity:1;fill-rule:nonzero;stroke:none"
           id="path1488" />
      </g>
      <g
         id="g1490"
         transform="translate(113.8325,180.7744)">
        <path
           d="m 0,0 v -2.08 -1.006 c 0,-0.582 0.138,-0.974 0.417,-1.175 0.277,-0.2 0.611,-0.346 0.997,-0.434 0.385,-0.09 1.005,-0.135 1.863,-0.135 0.152,-0.091 0.276,-0.158 0.371,-0.203 0.095,-0.045 0.144,-0.113 0.144,-0.202 0,-0.497 -0.215,-0.744 -0.638,-0.744 -0.55,0 -1.073,-0.013 -1.561,-0.038 C 1.105,-6.042 0.605,-6.104 0.096,-6.202 -0.415,-6.3 -0.922,-6.423 -1.432,-6.57 c -0.511,-0.148 -0.913,-0.221 -1.209,-0.221 -0.554,0 -0.83,0.228 -0.83,0.684 0.173,0.317 0.343,0.704 0.514,1.16 0.172,0.456 0.257,1.002 0.257,1.639 v 3.554 c 0,1.002 -0.17,1.936 -0.512,2.802 -0.259,0.363 -0.494,0.728 -0.708,1.093 0,0.181 0.033,0.33 0.094,0.443 0.061,0.115 0.113,0.193 0.155,0.24 l 2.489,1.708 h 0.559 c 0.206,0 0.362,-0.113 0.466,-0.338 C -0.052,5.968 0,5.697 0,5.383 V 4.368 1.663 C 1.241,3.485 2.257,4.752 3.053,5.465 3.843,6.176 4.519,6.532 5.076,6.532 5.675,6.532 6.21,6.238 6.682,5.653 7.153,5.066 7.388,4.368 7.388,3.557 7.388,2.022 6.972,0.839 6.136,0.006 5.3,-0.829 4.519,-1.404 3.792,-1.719 3.489,-1.578 3.341,-1.461 3.341,-1.367 3.212,-1.187 3.255,-0.918 3.47,-0.558 3.811,-0.288 4.187,0.015 4.594,0.353 5,0.689 5.204,1.127 5.204,1.668 5.204,2.027 5.076,2.387 4.818,2.746 4.562,3.105 4.242,3.285 3.855,3.285 3.297,3.285 2.699,2.983 2.056,2.381 1.414,1.775 0.727,0.981 0,0"
           style="fill:#871431;fill-opacity:1;fill-rule:nonzero;stroke:none"
           id="path1492" />
      </g>
      <g
         id="g1494"
         transform="translate(126.231,193.123)">
        <path
           d="m 0,0 c 0,0.45 0.18,0.867 0.536,1.251 0.357,0.382 0.746,0.575 1.167,0.575 0.505,0 0.925,-0.18 1.26,-0.541 C 3.3,0.923 3.469,0.495 3.469,0 3.469,-0.497 3.3,-0.925 2.963,-1.285 2.628,-1.646 2.208,-1.827 1.703,-1.827 c -0.464,0 -0.862,0.181 -1.2,0.542 C 0.167,-0.925 0,-0.497 0,0 m -1.156,-8.187 c 0.041,0.09 0.096,0.225 0.159,0.406 0.066,0.18 0.161,0.315 0.29,0.406 l 2.956,1.559 c 0.209,0.089 0.358,0.089 0.446,0 0.089,-0.092 0.131,-0.362 0.131,-0.813 v -6.637 -1.422 c 0,-0.361 0.064,-0.643 0.193,-0.846 0.129,-0.203 0.3,-0.442 0.513,-0.711 0,-0.227 -0.063,-0.418 -0.191,-0.575 -0.13,-0.159 -0.429,-0.429 -0.9,-0.813 C 1.97,-18.018 1.489,-18.368 0.995,-18.684 0.503,-19 0.171,-19.156 0,-19.156 c -0.214,0 -0.363,0.269 -0.45,0.812 -0.043,0.135 0.043,0.451 0.257,0.948 0.043,0.406 0.074,0.97 0.096,1.692 0.022,0.723 0.054,1.376 0.097,1.964 v 1.219 1.355 c 0,0.587 -0.128,1.105 -0.385,1.557 -0.257,0.451 -0.514,0.925 -0.771,1.422"
           style="fill:#871431;fill-opacity:1;fill-rule:nonzero;stroke:none"
           id="path1496" />
      </g>
      <g
         id="g1498"
         transform="translate(142.7412,182.0312)">
        <path
           d="m 0,0 c 0,1.173 -0.139,1.938 -0.417,2.3 -0.278,0.359 -0.588,0.619 -0.932,0.777 -0.341,0.157 -0.642,0.237 -0.899,0.237 -1.241,0 -2.345,-0.507 -3.307,-1.522 -0.964,-1.015 -1.446,-2.086 -1.446,-3.213 0,-0.946 0.266,-1.792 0.803,-2.535 0.534,-0.745 1.21,-1.116 2.023,-1.116 1.241,0 2.249,0.473 3.02,1.42 C -0.385,-2.705 0,-1.488 0,0 m -9.7,-3.652 c 0,0.991 0.225,1.826 0.674,2.503 0.45,0.675 1.157,1.565 2.121,2.67 0.964,1.106 1.97,2.018 3.02,2.74 1.049,0.72 2.195,1.082 3.436,1.082 0.943,0 1.842,-0.124 2.699,-0.372 C 3.107,4.723 3.534,4.396 3.534,3.99 3.534,3.72 3.363,3.358 3.021,2.907 2.678,2.457 2.507,2.097 2.507,1.826 v -4.802 c 0,-0.992 0.193,-1.623 0.579,-1.893 0.514,0.09 0.92,0.09 1.222,0 L 4.629,-5.072 C 4.629,-5.354 4.326,-5.739 3.721,-6.229 3.116,-6.721 2.521,-7.2 1.938,-7.667 1.729,-7.995 1.532,-8.274 1.346,-8.509 1.158,-8.743 0.939,-8.859 0.688,-8.859 0.231,-8.859 0,-8.476 0,-7.71 v 3.72 c -0.433,-0.497 -0.77,-0.869 -1.008,-1.115 -0.239,-0.249 -0.576,-0.542 -1.009,-0.88 -0.434,-0.339 -0.987,-0.767 -1.659,-1.286 -0.675,-0.518 -1.467,-0.777 -2.377,-0.777 -1.042,0 -1.911,0.44 -2.606,1.319 -0.695,0.879 -1.041,1.904 -1.041,3.077"
           style="fill:#871431;fill-opacity:1;fill-rule:nonzero;stroke:none"
           id="path1500" />
      </g>
      <g
         id="g1502"
         transform="translate(69.3047,206.9053)">
        <path
           d="m 0,0 c -1.115,-2.806 -1.863,-1.921 -1.327,0.311 0.535,2.231 1.591,6.704 4.592,8.012 3.691,1.609 7.804,-0.174 11.089,-0.781 3.284,-0.609 8.211,-1.383 8.94,-0.653 0.73,0.73 1.323,2.974 2.737,2.847 0.729,-0.065 1.58,-1.647 1.217,-3.532 -0.367,-1.886 -1.156,-3.771 -2.191,-3.771 0,0 -7.359,-10.522 -10.825,-15.144 -3.467,-4.623 -10.948,-13.26 -10.339,-13.807 0.607,-0.546 7.541,-2.371 9.426,-3.222 1.886,-0.852 8.52,-2.103 9.671,0 1.763,3.222 0.972,4.622 2.128,5.413 1.156,0.79 2.98,-0.436 2.98,-2.62 0,-2.185 -3.405,-6.624 -8.636,-7.842 -5.23,-1.216 -17.82,5.231 -19.462,4.44 -1.642,-0.791 -1.764,-3.102 -2.797,-3.102 -1.035,0 -2.617,3.042 -1.339,5.049 1.278,2.006 2.615,1.455 4.684,3.832 0.823,0.945 15.368,20.341 19.461,26.07 0.203,0.285 1.014,1.136 -0.851,1.338 C 17.293,3.041 9.71,4.541 7.399,4.622 5.089,4.703 1.886,4.744 0,0"
           style="fill:#871431;fill-opacity:1;fill-rule:nonzero;stroke:none"
           id="path1504" />
      </g>
      <g
         id="g1506"
         transform="translate(88.7671,225.5156)">
        <path
           d="m 0,0 c -1.342,-1.431 -9.184,-5.595 -10.461,-6.142 -1.277,-0.547 -1.216,-1.521 1.885,-0.365 3.102,1.154 8.941,3.345 8.941,3.345 0,0 4.622,-4.184 5.413,-3.886 C 6.568,-6.75 2.615,-1.824 2.31,-0.486 2.007,0.853 0.912,0.974 0,0"
           style="fill:#871431;fill-opacity:1;fill-rule:nonzero;stroke:none"
           id="path1508" />
      </g>
    </g>
  </g>
</svg>
