<?xml version="1.0" encoding="UTF-8" standalone="no"?>
<!-- Created with Inkscape (http://www.inkscape.org/) -->

<svg
   version="1.1"
   id="svg2"
   xml:space="preserve"
   width="700"
   height="700"
   viewBox="0 0 699.99999 700"
   sodipodi:docname="logo.svg"
   inkscape:version="1.1.2 (0a00cf5339, 2022-02-04)"
   xmlns:inkscape="http://www.inkscape.org/namespaces/inkscape"
   xmlns:sodipodi="http://sodipodi.sourceforge.net/DTD/sodipodi-0.dtd"
   xmlns="http://www.w3.org/2000/svg"
   xmlns:svg="http://www.w3.org/2000/svg"><sodipodi:namedview
     id="namedview177"
     pagecolor="#505050"
     bordercolor="#eeeeee"
     borderopacity="1"
     inkscape:pageshadow="0"
     inkscape:pageopacity="0"
     inkscape:pagecheckerboard="0"
     showgrid="false"
     inkscape:zoom="1.0271429"
     inkscape:cx="350.48677"
     inkscape:cy="349.5132"
     inkscape:window-width="1920"
     inkscape:window-height="1131"
     inkscape:window-x="0"
     inkscape:window-y="32"
     inkscape:window-maximized="1"
     inkscape:current-layer="g8" /><defs
     id="defs6"><clipPath
       clipPathUnits="userSpaceOnUse"
       id="clipPath44"><path
         d="M 0,595.28 H 841.89 V 0 H 0 Z"
         id="path42" /></clipPath><clipPath
       clipPathUnits="userSpaceOnUse"
       id="clipPath52"><path
         d="M 279.503,455.216 H 660.728 V 154.677 H 279.503 Z"
         id="path50" /></clipPath></defs><g
     id="g8"
     transform="matrix(1.3333333,0,0,-1.3333333,0,793.70667)"><g
       id="g10"
       transform="matrix(1.1121602,0,0,1.1121602,200.25041,119.4964)"><path
         d="M 8.0089877,0 H 22.927988 l -12.029,-8.552 4.668,-13.59 -11.9650003,8.377 -11.974,-8.377 4.714,13.59 L -15.767012,0 H -0.90701233 L 3.6019877,13.247 Z"
         style="fill:#fab20b;fill-opacity:1;fill-rule:nonzero;stroke:none"
         id="path12" /></g><g
       id="g14"
       transform="matrix(1.1121602,0,0,1.1121602,267.43044,119.10759)"><path
         d="m 0,0 h 14.913 l -12.026,-8.552 4.668,-13.57 -11.966,8.351 -11.964,-8.351 4.707,13.57 L -23.797,0 h 14.889 l 4.497,13.24 z"
         style="fill:#fab20b;fill-opacity:1;fill-rule:nonzero;stroke:none"
         id="path16" /></g><g
       id="g18"
       transform="matrix(1.1121602,0,0,1.1121602,325.69718,118.94255)"><path
         d="m 0,0 h 14.915 l -12.019,-8.548 4.67,-13.599 -11.971,8.376 -11.976,-8.376 4.723,13.599 L -23.795,0 h 14.878 l 4.512,13.24 z"
         style="fill:#fab20b;fill-opacity:1;fill-rule:nonzero;stroke:none"
         id="path20" /></g><g
       aria-label="MONACO SPORT HOTEL"
       transform="scale(1.0001647,-0.99983532)"
       id="text24"
       style="font-weight:500;font-size:49.2848px;font-family:'ITCKabel LT Medium';-inkscape-font-specification:ItcKabelLT-Medium;fill:#000000;stroke-width:1.11198"><path
         d="m 0.45867841,-534.91189 4.63277139,0.59142 3.8442145,-21.19247 10.2512387,21.34032 9.561251,-21.34032 4.041354,20.99533 4.829911,-0.49285 -7.146296,-34.30222 -11.335505,25.38167 -11.9269218,-25.33239 z"
         style="font-weight:normal;font-family:'ITC Kabel';-inkscape-font-specification:'ITC Kabel';fill:#000000"
         id="path4828" /><path
         d="m 40.576534,-551.71801 c 0,5.12562 1.774253,9.46268 5.076334,12.81405 3.302082,3.30208 7.49129,4.92848 12.715479,4.92848 5.224189,0 9.364112,-1.6264 12.666194,-4.92848 3.351367,-3.35137 5.076335,-7.68843 5.076335,-12.81405 0,-5.12562 -1.724968,-9.4134 -5.076335,-12.76476 -3.302082,-3.30209 -7.442005,-4.92848 -12.666194,-4.92848 -5.224189,0 -9.413397,1.62639 -12.715479,4.92848 -3.302081,3.35136 -5.076334,7.63914 -5.076334,12.76476 z m 17.791813,13.25761 c -7.29415,0 -12.715479,-5.47061 -12.715479,-13.25761 0,-7.787 5.421329,-13.25761 12.715479,-13.25761 7.294151,0 12.715479,5.47061 12.715479,13.25761 0,7.787 -5.421328,13.25761 -12.715479,13.25761 z"
         style="font-weight:normal;font-family:'ITC Kabel';-inkscape-font-specification:'ITC Kabel';fill:#000000"
         id="path4830" /><path
         d="m 81.335083,-534.32047 4.879196,-0.44357 v -22.67101 l 22.030301,23.50885 v -35.18934 l -4.92848,0.49284 v 22.62173 l -21.981017,-23.50885 z"
         style="font-weight:normal;font-family:'ITC Kabel';-inkscape-font-specification:'ITC Kabel';fill:#000000"
         id="path4832" /><path
         d="m 110.41311,-535.40474 4.48491,1.23212 5.91418,-11.97621 h 13.40546 l 5.91418,11.92692 4.73134,-1.23212 -17.20039,-34.20365 z m 12.37048,-14.83473 4.68206,-9.65982 4.73134,9.65982 z"
         style="font-weight:normal;font-family:'ITC Kabel';-inkscape-font-specification:'ITC Kabel';fill:#000000"
         id="path4834" /><path
         d="m 170.88559,-535.25689 0.6407,-5.27347 c -0.78855,0.44356 -1.52782,0.83784 -2.2671,1.13355 -1.52783,0.59142 -3.00637,0.78856 -4.68205,0.78856 -3.10495,0 -6.30846,-1.33069 -8.57556,-3.64708 -2.36567,-2.41495 -3.59779,-5.66775 -3.59779,-9.46268 0,-7.68843 5.37204,-13.15904 12.41977,-13.15904 2.36567,0 4.48492,0.59142 6.25917,1.6264 l -0.73927,-5.27348 c -1.97139,-0.59141 -3.84422,-0.88712 -5.71704,-0.88712 -4.73134,0 -9.01912,1.72496 -12.22263,4.92848 -3.35136,3.35136 -5.07633,7.63914 -5.07633,12.76476 0,6.30845 2.66138,11.48336 7.442,14.78544 2.75995,1.87282 6.20989,2.9078 10.10339,2.9078 2.16853,0 4.09063,-0.39427 6.01274,-1.23212 z"
         style="font-weight:normal;font-family:'ITC Kabel';-inkscape-font-specification:'ITC Kabel';fill:#000000"
         id="path4836" /><path
         d="m 175.61695,-551.71801 c 0,5.12562 1.77425,9.46268 5.07633,12.81405 3.30208,3.30208 7.49129,4.92848 12.71548,4.92848 5.22419,0 9.36411,-1.6264 12.66619,-4.92848 3.35137,-3.35137 5.07634,-7.68843 5.07634,-12.81405 0,-5.12562 -1.72497,-9.4134 -5.07634,-12.76476 -3.30208,-3.30209 -7.442,-4.92848 -12.66619,-4.92848 -5.22419,0 -9.4134,1.62639 -12.71548,4.92848 -3.30208,3.35136 -5.07633,7.63914 -5.07633,12.76476 z m 17.79181,13.25761 c -7.29415,0 -12.71548,-5.47061 -12.71548,-13.25761 0,-7.787 5.42133,-13.25761 12.71548,-13.25761 7.29415,0 12.71548,5.47061 12.71548,13.25761 0,7.787 -5.42133,13.25761 -12.71548,13.25761 z"
         style="font-weight:normal;font-family:'ITC Kabel';-inkscape-font-specification:'ITC Kabel';fill:#000000"
         id="path4838" /><path
         d="m 229.78099,-539.69252 c 2.51352,3.64708 6.06203,5.56918 10.39909,5.56918 6.20988,0 10.54695,-4.38634 10.54695,-9.85696 0,-5.86489 -3.00638,-8.27984 -9.21626,-10.59623 -3.84422,-1.42926 -6.06203,-2.46424 -6.06203,-5.66775 0,-2.71066 2.02068,-4.68206 5.07633,-4.68206 2.31639,0 4.28778,1.18284 6.5056,3.59779 l 3.15422,-3.44993 c -2.9078,-3.15423 -5.91417,-4.63277 -9.61053,-4.63277 -5.86489,0 -10.15267,4.09063 -10.15267,9.31482 0,5.32276 2.71066,7.63915 8.72341,9.80768 4.33706,1.57711 6.55488,2.61209 6.55488,6.11131 0,3.10495 -2.31639,5.37205 -5.61847,5.37205 -2.2671,0 -4.58349,-1.42926 -6.50559,-4.04136 z"
         style="font-weight:normal;font-family:'ITC Kabel';-inkscape-font-specification:'ITC Kabel';fill:#000000"
         id="path4840" /><path
         d="m 256.49335,-534.32047 4.87919,-0.44357 v -11.18765 h 2.66138 c 7.04773,0 11.53265,-4.5342 11.53265,-11.3355 0,-6.8013 -4.48492,-11.33551 -11.53265,-11.33551 h -7.54057 z m 4.87919,-29.96516 h 2.11925 c 4.48492,0 7.04773,2.66138 7.04773,6.99844 0,4.38634 -2.56281,6.94915 -7.04773,6.94915 h -2.11925 z"
         style="font-weight:normal;font-family:'ITC Kabel';-inkscape-font-specification:'ITC Kabel';fill:#000000"
         id="path4842" /><path
         d="m 280.49503,-551.71801 c 0,5.12562 1.77425,9.46268 5.07633,12.81405 3.30209,3.30208 7.49129,4.92848 12.71548,4.92848 5.22419,0 9.36411,-1.6264 12.6662,-4.92848 3.35136,-3.35137 5.07633,-7.68843 5.07633,-12.81405 0,-5.12562 -1.72497,-9.4134 -5.07633,-12.76476 -3.30209,-3.30209 -7.44201,-4.92848 -12.6662,-4.92848 -5.22419,0 -9.41339,1.62639 -12.71548,4.92848 -3.30208,3.35136 -5.07633,7.63914 -5.07633,12.76476 z m 17.79181,13.25761 c -7.29415,0 -12.71548,-5.47061 -12.71548,-13.25761 0,-7.787 5.42133,-13.25761 12.71548,-13.25761 7.29415,0 12.71548,5.47061 12.71548,13.25761 0,7.787 -5.42133,13.25761 -12.71548,13.25761 z"
         style="font-weight:normal;font-family:'ITC Kabel';-inkscape-font-specification:'ITC Kabel';fill:#000000"
         id="path4844" /><path
         d="m 321.25357,-534.32047 4.8792,-0.44357 v -16.26398 l 11.82835,17.05254 4.78062,-1.97139 -9.80767,-13.50404 c 4.18921,-1.23212 6.60416,-4.43563 6.60416,-8.92055 0,-6.20988 -4.23849,-10.25124 -11.3355,-10.25124 h -6.94916 z m 4.8792,-30.01445 h 1.9221 c 4.13993,0 6.5056,2.36567 6.5056,6.11132 0,3.74564 -2.36567,6.01274 -6.5056,6.01274 h -1.9221 z"
         style="font-weight:normal;font-family:'ITC Kabel';-inkscape-font-specification:'ITC Kabel';fill:#000000"
         id="path4846" /><path
         d="m 352.0073,-534.32047 4.8792,-0.44357 v -29.37374 h 7.93485 v -4.48492 h -19.91106 l -1.67568,4.48492 h 8.77269 z"
         style="font-weight:normal;font-family:'ITC Kabel';-inkscape-font-specification:'ITC Kabel';fill:#000000"
         id="path4848" /><path
         d="m 384.14096,-534.32047 4.8792,-0.44357 v -15.13043 H 405.432 v 15.574 l 4.92848,-0.44357 v -34.3515 l -4.92848,0.49284 v 14.24331 h -16.41184 v -14.73615 l -4.8792,0.49284 z"
         style="font-weight:normal;font-family:'ITC Kabel';-inkscape-font-specification:'ITC Kabel';fill:#000000"
         id="path4850" /><path
         d="m 416.37329,-551.71801 c 0,5.12562 1.77426,9.46268 5.07634,12.81405 3.30208,3.30208 7.49129,4.92848 12.71548,4.92848 5.22419,0 9.36411,-1.6264 12.66619,-4.92848 3.35137,-3.35137 5.07634,-7.68843 5.07634,-12.81405 0,-5.12562 -1.72497,-9.4134 -5.07634,-12.76476 -3.30208,-3.30209 -7.442,-4.92848 -12.66619,-4.92848 -5.22419,0 -9.4134,1.62639 -12.71548,4.92848 -3.30208,3.35136 -5.07634,7.63914 -5.07634,12.76476 z m 17.79182,13.25761 c -7.29415,0 -12.71548,-5.47061 -12.71548,-13.25761 0,-7.787 5.42133,-13.25761 12.71548,-13.25761 7.29415,0 12.71548,5.47061 12.71548,13.25761 0,7.787 -5.42133,13.25761 -12.71548,13.25761 z"
         style="font-weight:normal;font-family:'ITC Kabel';-inkscape-font-specification:'ITC Kabel';fill:#000000"
         id="path4852" /><path
         d="m 462.35603,-534.32047 4.87919,-0.44357 v -29.37374 h 7.93485 v -4.48492 h -19.91106 l -1.67568,4.48492 h 8.7727 z"
         style="font-weight:normal;font-family:'ITC Kabel';-inkscape-font-specification:'ITC Kabel';fill:#000000"
         id="path4854" /><path
         d="m 479.9014,-534.76404 h 18.58037 l 1.42926,-4.68205 h -15.13044 v -10.89195 h 11.13837 v -4.43563 h -11.13837 v -9.41339 h 13.99689 l -1.08427,-4.43564 H 479.9014 Z"
         style="font-weight:normal;font-family:'ITC Kabel';-inkscape-font-specification:'ITC Kabel';fill:#000000"
         id="path4856" /><path
         d="m 505.52951,-534.76404 h 17.29896 l 1.6264,-4.58348 h -13.99688 v -29.76802 l -4.92848,0.49284 z"
         style="font-weight:normal;font-family:'ITC Kabel';-inkscape-font-specification:'ITC Kabel';fill:#000000"
         id="path4858" /></g><g
       id="g26"
       transform="matrix(1.1121602,0,0,1.1121602,313.25832,357.83222)"><path
         d="M 0,0 0.712,-0.361 2.527,-1.806 3.246,-2.529 3.968,-2.885 4.33,-3.251 H 4.689 6.14 L 7.221,-3.61 h 0.721 l 0.725,-0.364 1.081,-0.356 1.087,-0.727 2.531,-1.804 1.081,-0.718 1.084,-0.724 0.722,-0.365 0.722,-0.361 0.724,-0.356 1.084,-0.363 1.813,-0.359 1.078,-0.367 1.08,-0.356 0.728,-0.368 0.722,-0.356 1.447,-0.724 1.447,-0.722 1.081,-0.724 h 0.724 l 0.722,-0.356 h 1.081 0.725 0.725 1.084 0.725 l 2.169,-0.362 h 1.077 l 0.725,-0.364 0.725,-0.358 h 0.715 l 1.091,-0.362 1.077,-0.359 1.088,-0.363 h 2.168 0.721 l 0.726,-0.359 h 0.725 l 1.44,-0.364 1.446,-0.358 h 1.447 0.721 1.081 l 1.091,-0.369 h 1.441 1.446 1.446 1.444 l 1.443,-0.356 h 1.45 l 1.081,-0.354 h 1.088 l 1.084,-0.367 2.165,-0.356 1.806,-0.727 1.808,-0.362 1.444,-0.358 1.806,-0.359 1.447,-0.366 1.446,-0.356 h 0.715 l 0.725,-0.367 1.091,-0.359 0.718,-0.361 1.812,-1.084 1.082,-0.722 0.724,-0.357 0.723,-0.368 0.355,-0.357 1.094,-0.365 1.438,-0.36 1.086,-0.366 h 0.722 0.36 0.359 0.722 l 0.369,0.366 v 0.36 l 0.721,0.365 0.715,0.725 0.365,0.357 0.36,0.363 h 0.362 l 0.726,0.359"
         style="fill:none;stroke:#050301;stroke-width:2.628;stroke-linecap:round;stroke-linejoin:round;stroke-miterlimit:10;stroke-dasharray:none;stroke-opacity:1"
         id="path28" /></g><g
       id="g30"
       transform="matrix(1.1121602,0,0,1.1121602,95.847238,335.344)"><path
         d="M 0,0 0.364,-0.357 H 0.727 L 1.086,0 1.448,0.362 H 1.811 2.168 2.534 2.89 3.252 L 3.618,0 4.337,-0.717 5.422,-1.438 6.144,-1.806 6.505,-2.165 H 7.227 7.95 8.316 9.033 9.4 10.12 l 1.083,0.727 0.725,0.721 1.082,0.717 0.723,0.722 1.805,1.09 0.721,0.355 1.089,0.725 0.719,0.357 h 0.362 l 1.084,0.364 h 1.088 1.084 0.722 L 23.489,3.249 25.293,2.522 27.467,2.167 28.544,1.812 29.268,1.445 30.352,1.089 31.073,0.722 31.797,0 v -0.357 l 0.366,-0.36 v -1.089 -0.72 l 0.358,-1.806 v -1.082 l 0.363,-0.364 v -0.361 l 0.359,-0.366 0.361,-0.356 h 0.363 l 0.359,-0.359 h 0.721 0.725 l 0.724,-0.364 0.721,-0.727 h 0.361 l 0.363,-0.354 h 0.362 0.363 l 0.357,0.354 0.363,0.367 0.721,0.36 1.444,1.079 1.448,0.727 1.445,1.089 1.447,0.72 1.445,0.359 1.804,0.359 1.446,0.363 1.807,0.723 1.802,0.727 1.448,0.721 1.092,0.717 1.078,0.722 1.084,0.367 0.364,0.356 0.724,0.367 h 0.362 l 0.355,-0.367 h 0.721 l 0.369,-0.356 h 0.356 l 0.369,0.356 0.356,0.722 0.357,0.725 0.365,0.357 0.362,0.364 h 0.361 0.359 l 0.366,-0.364 h 0.722 0.359 0.725 0.356 l 0.723,0.364 0.367,0.36 0.722,0.721 0.718,0.72 0.724,0.727 1.087,0.721 1.808,1.446 0.722,0.714 0.728,0.724 0.712,0.727 0.723,0.362 0.725,0.356 0.723,0.361 h 0.722 0.725 1.445 0.716 0.722 0.729 l 0.363,0.365 0.721,0.356 h 0.72 l 0.723,0.368 0.364,0.356 1.086,1.087 1.077,1.08 1.086,1.082 1.447,1.089 1.089,0.717 1.806,0.718 1.443,0.371 0.722,0.356 1.081,0.362 1.086,0.361 1.084,0.359 h 1.441 l 1.449,0.363 3.257,0.361 1.076,0.362 1.449,0.356 h 1.086 l 0.721,0.366 h 0.725 1.084 0.716 0.725 1.092 l 0.723,-0.366 2.16,-0.356 1.806,-0.723 1.088,-0.363 1.082,-0.359 0.725,-0.723 1.082,-0.727 1.447,-1.079 1.809,-1.445 0.717,-0.724 0.724,-0.358 1.083,-1.08 1.446,-0.725 0.36,-0.362 h 0.724 l 0.366,-0.356 h 0.718 0.729 l 0.714,0.356 0.362,0.362 h 0.727 l 1.081,0.361 0.726,0.364 0.724,0.719 1.084,0.361 1.076,0.726 1.449,0.72 1.446,0.725 1.082,0.717 1.449,0.718 1.446,0.727 1.079,0.723 0.725,0.359 0.723,0.363 0.724,0.361 1.083,0.718 1.081,0.366 1.091,0.721 h 0.722 l 0.355,0.361 0.725,0.356 0.363,0.366 0.722,0.725 h 1.087 l 0.359,0.356 h 0.355 l 1.088,-0.356 h 1.084 l 1.084,-0.364 0.723,-0.361 h 0.362 l 0.359,-0.366 0.725,-0.717 0.726,-1.087 0.351,-1.079 0.37,-0.722 v -0.723 l 0.356,-0.727 v -0.356 h 0.368 v -0.362 h 0.357 0.366 v 0.362 l 0.719,0.356 1.084,0.727 0.724,0.362 0.36,0.361 0.362,0.359 0.362,0.363 0.36,0.361 h 0.365 0.359 l 0.359,0.362 h 0.36 1.084 l 0.722,0.356 h 0.725 0.361 l 0.36,0.366 h 0.366 l 0.358,-0.366 h 0.36 l 0.366,-0.356 1.081,-0.723 0.365,-0.363 0.36,-0.359 0.363,-0.361 0.355,-0.362 0.363,-0.356 h 0.721 l 0.366,-0.371 1.44,-0.718 h 0.366 l 0.722,-0.361 h 0.362 0.722 0.366 0.356 l 1.084,0.361 2.168,0.718 1.806,0.727 2.171,1.082 h 1.081 l 1.081,0.363 h 1.088 l 0.721,-0.363 0.728,-0.359"
         style="fill:none;stroke:#050301;stroke-width:2.628;stroke-linecap:round;stroke-linejoin:round;stroke-miterlimit:10;stroke-dasharray:none;stroke-opacity:1"
         id="path32" /></g><g
       id="g34"
       transform="matrix(1.1121602,0,0,1.1121602,154.92208,254.61196)"><path
         d="m 0,0 2.526,-1.08 2.896,-1.089 2.884,-1.079 2.895,-1.081 1.446,-0.362 1.44,-0.727 1.091,-0.719 1.44,-0.715 1.449,-0.726 1.445,-0.722 2.527,-1.446 1.448,-0.717 1.446,-0.726 1.443,-0.719 1.445,-0.361 0.721,-0.356 0.358,-0.37 h 0.728 l 0.722,-0.355 h 0.723 0.725 0.722 0.723 1.804 1.449 l 2.89,0.355 h 1.802 1.449 1.449 l 1.44,-0.355 h 1.81 l 1.446,-0.362 0.72,-0.361 h 0.723 l 0.722,-0.363 h 0.727 l 0.721,-0.359 0.724,-0.362 0.723,-0.362 0.725,-0.353 0.357,-0.369 0.721,-0.357 1.45,-1.087 1.081,-0.718 1.08,-1.086 0.724,-0.356 0.723,-0.364 0.723,-0.361 0.359,-0.364 h 0.726 l 0.719,-0.356 0.725,-0.36 h 0.726 l 1.444,-0.365 1.439,-0.354 h 1.45 l 1.806,-0.367 h 1.45 1.441 3.253 l 3.249,-0.358 h 1.45 1.441 l 1.813,-0.363 1.442,-0.362 2.891,-0.361 2.887,-0.359 3.253,-0.724 h 1.447 l 1.446,-0.355 h 1.447 1.444 1.446 1.443 l 1.806,0.355 h 0.723 0.724 l 0.722,0.363 0.725,0.361 h 0.718 l 0.718,0.359 0.726,0.361 0.724,0.362 0.726,0.363 0.359,0.358 1.446,0.721 1.085,0.725 1.446,1.081 1.088,1.088 2.523,1.799 1.084,0.724 1.444,1.079 0.728,0.362 0.36,0.362 0.718,0.359 h 0.732 l 0.717,0.363 0.723,0.361 h 0.718 l 0.725,0.362 h 0.725 0.722 l 1.446,0.355 h 1.447 1.44 3.253 l 1.446,0.37 h 1.447 1.08 l 0.726,0.356 h 0.725 l 0.718,0.361 h 0.728 l 0.722,0.362 1.44,0.722 1.088,0.361 1.439,0.717 2.894,1.446 1.446,0.722 1.443,0.364 0.367,0.362 0.721,0.355 h 0.722 l 0.725,0.36 h 1.44 l 1.809,0.364 h 1.447 1.443 1.447 1.084 l 1.443,0.355 h 1.45 0.356 0.728 0.357 0.721 l 0.365,0.367 h 0.722 l 0.719,0.36 0.722,0.362 h 0.365 l 0.725,0.356 0.36,0.366 0.724,0.359 h 0.725 l 0.353,0.361 0.725,0.359 1.091,0.359 0.715,0.367 0.724,0.722 1.088,0.361 m 56.726,69.699 v -0.359 -0.362 l -0.362,-0.358 -0.364,-1.089 -0.362,-1.083 -0.359,-0.723 -0.366,-1.08 -0.359,-1.08 -0.355,-1.09 -0.37,-1.083 -0.721,-2.169 -1.081,-2.164 -1.081,-2.167 -0.367,-1.084 -0.358,-1.086 -0.726,-0.722 -0.362,-1.083 -0.712,-0.722 -0.372,-1.079 -0.722,-0.727 -0.355,-1.083 -1.447,-1.804 -1.081,-1.445 -1.45,-1.806 -0.721,-0.723 -0.36,-1.084 -0.721,-0.727 -0.726,-1.084 -1.084,-0.719 -0.722,-1.082 -0.724,-0.723 -0.722,-1.083 -0.724,-1.087 -1.082,-1.081 -0.725,-1.082 -1.08,-0.724 -0.722,-1.083 -1.088,-1.089 -1.084,-1.436 -1.084,-1.091 -1.088,-1.079 -1.077,-1.081 -1.084,-1.446 -1.088,-1.089 -1.443,-1.439 -1.088,-1.09 -1.443,-1.438 -1.444,-1.089 -1.084,-1.44 L 198.369,13 196.926,11.553 195.12,10.471 193.673,9.028 191.867,7.58 190.417,6.136 188.615,4.695 186.809,3.247 185,2.17 183.19,0.725 181.029,-0.719 M 0,0 H -0.725 L -1.086,0.36 -1.445,0.725 -1.808,1.082 V 1.448 H -2.167 L -2.531,1.804 -2.893,2.17 h -0.359 v 0.36 l -0.361,0.355 -0.723,0.362 -0.365,0.362 v 0.363 h -0.356 l -0.359,0.359 v 0.364 h -0.365 v 0.36 l -0.358,0.365 -0.725,0.357 -0.725,0.721 -0.359,0.725 -0.725,0.357 -0.361,0.724 -0.359,0.362 -0.725,0.717 -0.366,0.367 -0.357,0.357 -0.358,0.724 -0.367,0.362 -0.356,0.36 -0.722,0.724 -0.725,0.723 -0.725,0.723 -0.72,0.72 -1.086,1.806 -0.722,0.723 -0.723,0.718 -0.725,0.72 -0.722,1.09 -0.721,0.721 -0.72,1.083 -1.087,1.079 -0.724,0.728 -0.722,1.077 -1.084,1.09 -0.723,1.082 -0.725,1.084 -1.803,2.163 -1.807,2.532 -1.802,2.168 -1.449,2.164 -1.807,2.527 -1.444,2.172 -1.802,2.528 -1.45,2.167 -1.445,2.165 -2.89,4.697 -1.445,2.527 -1.449,2.17 -1.444,2.525 -0.721,1.086 -0.724,1.081 -0.719,1.445 -0.728,1.085 -0.356,1.439 -0.723,1.091 -0.363,1.445 -0.722,1.081 -0.362,1.45 -0.364,1.438"
         style="fill:none;stroke:#050301;stroke-width:2.628;stroke-linecap:round;stroke-linejoin:round;stroke-miterlimit:10;stroke-dasharray:none;stroke-opacity:1"
         id="path36" /></g><g
       id="g38"
       transform="matrix(1.1121602,0,0,1.1121602,-260.34374,-1.9353614)"><g
         id="g40"
         clip-path="url(#clipPath44)"><g
           id="g46"><g
             id="g48" /><g
             id="g60"><g
               clip-path="url(#clipPath52)"
               id="g58"><g
                 transform="translate(365.5215,403.9941)"
                 id="g56"><path
                   d="M 0,0 -1.459,-0.365 H -3.248 L -5.073,-0.73 -6.861,-1.095 h -1.825 l -1.788,-0.365 -1.825,-0.366 -1.788,-0.73 -1.46,-0.328 -1.825,-0.73 -1.788,-0.365 -1.46,-0.73 -1.423,-0.731 -1.825,-0.693 -1.423,-0.731 -1.459,-0.73 -1.46,-1.095 -1.424,-1.059 -1.459,-0.73 -1.059,-1.095 -1.46,-1.059 -1.459,-1.095 -1.059,-1.096 -1.459,-1.424 -1.096,-1.095 -1.423,-1.058 -1.095,-1.461 -1.094,-1.46 -1.424,-1.424 -1.094,-1.095 -1.095,-1.424 -0.694,-1.46 -1.095,-1.789 -1.094,-1.461 -0.73,-1.423 -0.694,-1.826 -1.095,-1.423 -0.73,-1.826 -0.364,-1.424 -0.73,-1.825 -0.73,-1.789 -0.329,-1.461 -0.365,-1.789 -0.365,-1.788 -0.365,-1.826 -0.364,-1.789 -0.366,-1.825 v -1.424 l -0.364,-1.826 v -1.788 l -0.366,-1.826 v -1.789 -1.789 -1.825 -1.424 -1.825 -1.789 l 0.366,-1.79 v -1.788 -1.461 l 0.364,-1.825 0.366,-3.614 0.364,-3.213 0.365,-1.826 0.365,-1.789 0.365,-1.46 0.329,-1.789 0.365,-1.825 0.365,-1.789 0.365,-1.46 0.365,-1.789 0.729,-1.461 0.365,-1.789 0.73,-1.424 0.365,-1.825 0.694,-1.46 0.73,-1.789 0.364,-1.461 0.73,-1.424 0.73,-1.46 0.694,-1.387 0.73,-1.826 1.094,-1.46 1.46,-2.884 1.788,-2.884 1.825,-2.848 1.789,-2.957 1.824,-2.847 1.788,-2.921 2.154,-2.52 1.824,-2.884 2.154,-2.884 2.189,-2.519 2.154,-2.884 2.189,-2.885 2.153,-2.555 2.518,-2.519 2.19,-2.483 2.153,-2.555 2.153,-2.519 2.19,-2.52 2.519,-2.19 1.094,-1.424 1.095,-1.059 1.423,-1.46 1.095,-1.095 1.46,-1.424 1.423,-1.095 1.095,-1.461 1.423,-1.424 2.92,-2.555 1.423,-1.424 1.46,-1.095 1.423,-1.388 1.46,-1.132 1.095,-1.058 1.423,-1.46 1.46,-1.096 1.095,-1.094 2.518,-1.79 2.518,-2.154 2.19,-2.154 1.423,-0.694 1.46,-1.131 2.518,-2.155 2.518,-2.153 2.92,-2.19 2.518,-1.789 2.883,-2.191 2.555,-1.789 1.423,-1.096 1.46,-1.058 1.058,-0.694 1.46,-1.131 2.518,-1.424 1.46,-1.059 1.46,-0.766 1.423,-0.695 1.46,-1.095 1.423,-0.73 1.46,-0.73 1.788,-1.059 1.46,-0.731 1.094,-0.729 0.731,-0.365 1.058,-0.365 0.73,-0.366 1.095,-0.657 1.058,-0.365 0.73,-0.364 1.095,-0.768 1.094,-0.328 1.059,-0.731 1.46,-0.365 1.095,-0.729 1.058,-0.329 1.46,-0.767 1.46,-0.365 1.423,-0.694 1.46,-0.73 1.788,-0.365 0.729,-0.365 0.731,-0.365 1.095,-0.329 0.693,-0.401 1.095,-0.328 0.73,-0.366 1.095,-0.365 h 1.058 l 0.73,-0.365 1.095,-0.365 1.094,-0.366 1.059,-0.364 -10.475,-1.059 -10.473,-0.365 -10.474,0.694 -10.109,1.46 -10.146,2.519 -9.744,3.285 -1.095,0.366 -1.058,0.329 -1.095,0.729 -1.095,0.365 -0.73,0.366 -1.058,0.365 -0.73,0.328 -0.73,0.365 -0.73,0.403 -0.693,0.364 -0.73,0.365 -0.365,0.329 h -0.73 l -0.365,0.328 -0.73,0.366 -0.365,0.365 h -0.328 l -0.73,0.365 -0.73,0.365 -0.73,0.364 -0.73,0.366 -1.423,1.058 -1.095,0.731 -2.518,1.461 -2.555,1.424 -2.518,1.825 -1.423,0.766 -1.095,1.023 -1.46,0.766 -1.423,1.059 -1.095,0.693 -1.46,1.096 -1.423,1.095 -1.459,1.058 -1.789,1.096 -1.46,1.096 -2.883,2.153 -3.248,2.52 -2.883,2.153 -2.92,2.593 -2.518,2.117 -2.883,2.154 -2.518,2.556 -2.919,2.518 -1.424,1.096 -1.095,1.424 -1.459,1.424 -1.424,1.132 -2.555,2.847 -2.518,2.884 -1.423,1.461 -1.459,1.424 -1.096,1.46 -1.058,1.424 -1.46,1.095 -1.094,1.424 -2.154,2.92 -2.189,2.885 -1.059,1.424 -1.459,1.497 -1.095,1.386 -1.059,1.461 -2.554,2.92 -2.154,3.213 -2.152,3.25 -1.096,1.424 -1.094,1.825 -1.058,1.424 -1.096,1.825 -1.094,1.424 -0.73,1.825 -1.058,1.424 -0.73,1.789 -1.095,1.825 -0.73,1.461 -0.73,1.789 -0.694,1.826 -1.094,1.423 -0.73,1.789 -0.73,1.826 -0.694,1.789 -0.73,1.789 -0.364,1.825 -0.73,1.789 -0.73,1.825 -0.365,1.789 -0.693,1.825 -0.366,1.79 -0.73,1.825 -0.364,1.424 -0.366,1.825 -0.364,1.789 -0.365,1.789 -0.73,3.249 -0.329,3.615 -0.364,1.825 -0.366,1.789 -0.364,1.789 -0.365,2.19 v 1.789 l -0.365,1.826 -0.365,2.154 v 1.789 l -0.365,1.825 v 2.155 l -0.365,1.788 v 2.191 1.789 2.154 1.825 2.154 l 0.365,1.789 v 1.826 l 0.365,2.153 v 1.826 l 0.365,1.789 0.365,2.154 0.365,1.825 0.364,1.789 0.73,3.615 0.694,3.979 0.365,1.789 0.729,1.825 0.366,1.789 0.364,1.789 0.73,1.826 0.694,1.789 0.365,1.825 0.729,1.789 0.73,1.826 0.73,1.788 1.095,1.789 0.694,1.461 1.095,1.788 0.73,1.461 1.058,1.789 1.095,1.46 1.095,1.789 1.095,1.46 1.058,1.424 1.094,1.461 1.096,1.423 1.058,1.461 1.094,1.46 1.096,1.424 1.058,1.46 1.094,1.424 1.46,1.46 1.095,1.059 1.423,1.46 1.095,1.424 1.424,1.096 1.459,1.46 1.46,1.059 1.424,1.46 1.459,1.059 1.424,1.095 1.46,1.461 1.459,1.058 1.789,1.095 1.459,1.096 1.423,0.693 1.825,1.096 1.423,1.095 1.825,0.694 1.789,1.095 1.459,0.73 1.825,0.73 1.789,0.694 1.824,1.095 1.424,0.365 1.824,0.73 1.788,0.694 1.825,0.73 1.789,0.365 1.824,0.73 1.788,0.366 1.825,0.365 1.788,0.328 1.825,0.365 1.789,0.365 1.824,0.366 1.788,0.364 h 2.19 l 1.788,0.366 h 1.825 l 1.788,0.365 h 1.825 1.788 2.19 1.788 l 1.825,-0.365 h 1.788 l 1.825,-0.366 1.788,-0.364 1.825,-0.366 2.153,-0.365 1.825,-0.365 1.788,-0.328 3.613,-0.731 3.613,-1.095 3.613,-1.059 3.613,-1.095 3.613,-1.095 3.613,-1.424 1.788,-0.365 1.825,-0.73 1.825,-0.73 1.423,-0.694 1.825,-0.73 1.423,-1.096 1.825,-0.73 1.788,-0.693 1.46,-1.096 1.423,-1.095 1.825,-1.058 1.459,-1.096 1.424,-1.095 1.824,-1.059 2.884,-2.19 2.883,-2.154 3.248,-2.52 2.883,-2.153 1.46,-1.096 1.46,-1.46 1.058,-1.059 1.46,-1.46 1.459,-1.059 1.424,-1.46 1.095,-1.095 1.423,-1.424 1.094,-1.461 1.096,-1.424 1.095,-1.46 1.057,-1.424 1.096,-1.46 1.095,-1.789 2.153,-2.884 h 0.364 l 3.614,9.017 4.342,8.653 5.402,8.287 6.168,7.959 6.86,6.864 7.591,6.462 8.285,5.44 8.32,4.673 9.087,3.505 -0.036,0.109 8.65,2.884 8.685,1.789 8.65,1.096 h 9.05 l 8.686,-1.096 8.649,-1.423 8.686,-2.885 8.321,-3.249 7.554,-4.344 0.365,0.365 8.686,-6.864 7.956,-7.557 7.59,-7.959 6.497,-8.653 6.13,-9.383 5.074,-9.747 3.977,-10.076 3.614,-10.478 2.153,-10.844 1.46,-11.172 0.364,-10.806 -0.729,-10.843 -1.46,-11.172 -2.518,-10.441 -3.248,-10.515 -4.343,-10.441 -5.073,-9.383 -6.131,-9.383 -9.38,-12.997 -10.108,-12.267 -11.204,-11.901 -11.57,-11.172 -12.297,-10.441 -12.628,-9.419 -13.394,-8.982 -14.087,-7.995 -14.452,-7.229 -14.816,-6.498 -15.182,-5.404 -15.511,-4.308 -15.473,-3.577 -0.074,0.328 15.876,7.557 15.911,8.653 15.182,9.383 14.817,10.113 14.087,10.843 13.358,11.537 13.028,12.266 12.262,12.997 0.182,-0.146 8.504,10.661 7.955,11.135 7.227,11.902 6.131,12.267 5.803,12.632 4.306,12.997 3.978,13.362 -0.364,0.365 1.824,11.172 0.729,11.171 -0.364,11.574 -1.46,11.536 -2.153,10.807 -0.366,0.365 -3.248,8.324 -4.707,7.557 -5.073,7.229 -6.131,6.499 -7.226,5.768 -7.153,4.746 -0.073,-0.073 -6.496,3.249 -6.861,2.556 -7.226,1.423 -6.861,0.366 -0.036,0.292 -7.19,-1.388 -7.226,-2.154 -6.898,-2.884 -6.131,-3.979 -6.131,-4.673 -5.073,-5.404 -4.707,-5.804 v -0.366 l -6.861,-11.171 -6.131,-11.902 -5.073,-12.267 -3.467,-12.668 -0.109,0.036 -39.415,-12.632 -6.131,12.267 -0.73,1.46 -0.73,1.424 -1.058,1.461 -0.73,1.423 -1.095,1.46 -0.73,1.424 -1.058,1.461 -1.095,1.46 -1.095,1.424 -1.058,1.059 -1.095,1.46 -1.095,1.095 -1.424,1.424 -1.094,1.095 -1.46,1.059 -1.059,1.46 -1.459,1.096 -1.46,1.059 -1.424,1.095 -1.459,1.424 -1.423,1.095 -1.46,1.095 -1.46,1.059 -1.423,1.095 -1.825,1.096 -1.423,1.058 -1.46,0.73 -1.46,1.095 -1.423,0.731 -1.46,1.058 -1.423,0.731 -1.46,0.73 -1.46,0.694 -1.058,0.73 -2.883,1.46 -2.555,1.059 -2.883,1.46 -1.46,0.73 -1.423,0.731 -1.46,0.328 -1.423,0.73 -1.46,0.73 -1.788,0.366 -1.46,0.729 -1.825,0.366 -1.423,0.328 -1.825,0.73 -1.788,0.366 -1.825,0.365 -1.788,0.365 H 12.627 L 10.839,-0.365 9.014,0 H 7.226 5.401 3.613 1.789 Z"
                   style="fill:#871431;fill-opacity:1;fill-rule:nonzero;stroke:none"
                   id="path54" /></g></g></g></g></g></g><g
       id="g62"
       transform="matrix(1.1121602,0,0,1.1121602,278.28822,356.21936)"><path
         d="M 0,0 H 1.81 Z"
         style="fill:none;stroke:#050301;stroke-width:2.628;stroke-linecap:round;stroke-linejoin:round;stroke-miterlimit:10;stroke-dasharray:none;stroke-opacity:1"
         id="path64" /></g><g
       id="g66"
       transform="matrix(1.1121602,0,0,1.1121602,278.28822,356.21936)"><path
         d="M 0,0 0.725,-0.718 Z"
         style="fill:none;stroke:#050301;stroke-width:2.628;stroke-linecap:round;stroke-linejoin:round;stroke-miterlimit:10;stroke-dasharray:none;stroke-opacity:1"
         id="path68" /></g><g
       id="g70"
       transform="matrix(1.1121602,0,0,1.1121602,296.77355,355.4205)"><path
         d="M 0,0 H 3.978 0.726 Z"
         style="fill:none;stroke:#050301;stroke-width:2.628;stroke-linecap:round;stroke-linejoin:round;stroke-miterlimit:10;stroke-dasharray:none;stroke-opacity:1"
         id="path72" /></g><g
       id="g74"
       transform="matrix(1.1121602,0,0,1.1121602,296.77355,355.4205)"><path
         d="M 0,0 H 4.696 3.978 Z"
         style="fill:none;stroke:#050301;stroke-width:2.628;stroke-linecap:round;stroke-linejoin:round;stroke-miterlimit:10;stroke-dasharray:none;stroke-opacity:1"
         id="path76" /></g><g
       id="g78"
       transform="matrix(1.1121602,0,0,1.1121602,238.10498,351.00767)"><path
         d="M 0,0 H 7.587 Z"
         style="fill:none;stroke:#050301;stroke-width:2.628;stroke-linecap:round;stroke-linejoin:round;stroke-miterlimit:10;stroke-dasharray:none;stroke-opacity:1"
         id="path80" /></g><g
       id="g82"
       transform="matrix(1.1121602,0,0,1.1121602,238.10498,351.00767)"><path
         d="M 0,0 H 7.953 7.587 Z"
         style="fill:none;stroke:#050301;stroke-width:2.628;stroke-linecap:round;stroke-linejoin:round;stroke-miterlimit:10;stroke-dasharray:none;stroke-opacity:1"
         id="path84" /></g><g
       id="g86"
       transform="matrix(1.1121602,0,0,1.1121602,347.40831,342.17344)"><path
         d="M 0,0 H 1.45 Z"
         style="fill:none;stroke:#050301;stroke-width:2.628;stroke-linecap:round;stroke-linejoin:round;stroke-miterlimit:10;stroke-dasharray:none;stroke-opacity:1"
         id="path88" /></g><g
       id="g90"
       transform="matrix(1.1121602,0,0,1.1121602,167.3796,339.36257)"><path
         d="M 0,0 H 3.254 Z"
         style="fill:none;stroke:#050301;stroke-width:2.628;stroke-linecap:round;stroke-linejoin:round;stroke-miterlimit:10;stroke-dasharray:none;stroke-opacity:1"
         id="path92" /></g><g
       id="g94"
       transform="matrix(1.1121602,0,0,1.1121602,412.10912,328.10962)"><path
         d="M 0,0 H 2.887 0.725 Z"
         style="fill:none;stroke:#050301;stroke-width:2.628;stroke-linecap:round;stroke-linejoin:round;stroke-miterlimit:10;stroke-dasharray:none;stroke-opacity:1"
         id="path96" /></g><g
       id="g98"
       transform="matrix(1.1121602,0,0,1.1121602,230.23623,338.43725)"><path
         d="m 0,0 h 0.445 l 14.01,-18.418 z"
         style="fill:#bcbec3;fill-opacity:1;fill-rule:evenodd;stroke:none"
         id="path100" /></g><g
       id="g102"
       transform="matrix(1.1121602,0,0,1.1121602,266.28101,338.4377)"><path
         d="M 0,0 0.878,-18.418 V 0 Z"
         style="fill:#bcbec3;fill-opacity:1;fill-rule:nonzero;stroke:none"
         id="path104" /></g><g
       id="g106"
       transform="matrix(1.1121602,0,0,1.1121602,259.94703,317.95338)"><path
         d="M 0,0 H 6.573 Z"
         style="fill:#bcbec3;fill-opacity:1;fill-rule:nonzero;stroke:none"
         id="path108" /></g><g
       id="g110"
       transform="matrix(1.1121602,0,0,1.1121602,285.7606,316.00665)"><path
         d="M 0,0 3.065,-3.512 H 0 Z"
         style="fill:#bcbec3;fill-opacity:1;fill-rule:evenodd;stroke:none"
         id="path112" /></g><g
       id="g114"
       transform="matrix(1.1121602,0,0,1.1121602,285.7606,316.00665)"><path
         d="M 0,0 H 3.065 V -3.512 Z"
         style="fill:#bcbec3;fill-opacity:1;fill-rule:evenodd;stroke:none"
         id="path116" /></g><g
       id="g118"
       transform="matrix(1.1121602,0,0,1.1121602,246.79807,305.27386)"><path
         d="M 0,0 H 3.064 L 1.751,-2.188 Z"
         style="fill:#bcbec3;fill-opacity:1;fill-rule:evenodd;stroke:none"
         id="path120" /></g><g
       id="g122"
       transform="matrix(1.1121602,0,0,1.1121602,285.7606,305.27386)"><path
         d="M 0,0 3.065,-7.015 H 0 Z"
         style="fill:#bcbec3;fill-opacity:1;fill-rule:evenodd;stroke:none"
         id="path124" /></g><g
       id="g126"
       transform="matrix(1.1121602,0,0,1.1121602,285.7606,305.27386)"><path
         d="M 0,0 H 3.065 V -7.015 Z"
         style="fill:#bcbec3;fill-opacity:1;fill-rule:evenodd;stroke:none"
         id="path128" /></g><g
       id="g130"
       transform="matrix(1.1121602,0,0,1.1121602,285.7606,297.4725)"><path
         d="M 0,0 V 7.015 H -3.94 -8.32 V 0 m -3.062,0 v 8.772 7.893 h 1.75 1.312 V 13.153 9.65 m 8.32,0 v 3.503 3.512 H 1.753 3.065 V 8.327 0 M -23.21,0 v 9.207 9.208 m -20.586,0 V 9.207 0 m -6.129,0 v 18.415 18.418 m 32.41,0 h 0.436 0.441 V 18.415 m -6.572,0 -10.072,-13.589 m 16.644,13.589 V 0 m -16.644,15.786 15.767,21.047 M -23.21,0 h 6.572 M -33.282,4.826 -43.796,18.415 M -49.925,0 h 6.129 M 0,0 h 3.065 m -14.447,0 h 3.062 m -41.159,36.833 h -0.446 m 16.643,-21.047 -16.197,21.047"
         style="fill:none;stroke:#050301;stroke-width:2.628;stroke-linecap:round;stroke-linejoin:round;stroke-miterlimit:10;stroke-dasharray:none;stroke-opacity:1"
         id="path132" /></g><g
       id="g134"
       transform="matrix(1.1121602,0,0,1.1121602,279.91887,338.92115)"><path
         d="M 0,0 H 2.63 Z"
         style="fill:#bcbec3;fill-opacity:1;fill-rule:nonzero;stroke:none"
         id="path136" /></g><g
       id="g138"
       transform="matrix(1.1121602,0,0,1.1121602,277.48157,338.4377)"><path
         d="M 0,0 H 6.133 L 2.192,0.435 Z"
         style="fill:#bcbec3;fill-opacity:1;fill-rule:nonzero;stroke:none"
         id="path140" /></g><g
       id="g142"
       transform="matrix(1.1121602,0,0,1.1121602,279.91887,338.92115)"><path
         d="M 0,0 3.941,-0.435 2.63,0 Z"
         style="fill:#bcbec3;fill-opacity:1;fill-rule:nonzero;stroke:none"
         id="path144" /></g><g
       id="g146"
       transform="matrix(1.1121602,0,0,1.1121602,277.48157,338.4377)"><path
         d="M 0,0 H -0.877 7.444 Z"
         style="fill:#bcbec3;fill-opacity:1;fill-rule:nonzero;stroke:none"
         id="path148" /></g><g
       id="g150"
       transform="matrix(1.1121602,0,0,1.1121602,284.302,338.4377)"><path
         d="M 0,0 H -6.133 1.311 Z"
         style="fill:#bcbec3;fill-opacity:1;fill-rule:nonzero;stroke:none"
         id="path152" /></g><g
       id="g154"
       transform="matrix(1.1121602,0,0,1.1121602,276.5071,338.43725)"><path
         d="M 0,0 H 8.32 L 9.639,-1.313 Z"
         style="fill:#bcbec3;fill-opacity:1;fill-rule:evenodd;stroke:none"
         id="path156" /></g><g
       id="g158"
       transform="matrix(1.1121602,0,0,1.1121602,275.04828,336.97732)"><path
         d="M 0,0 H -0.441 11.826 Z"
         style="fill:#bcbec3;fill-opacity:1;fill-rule:nonzero;stroke:none"
         id="path160" /></g><g
       id="g162"
       transform="matrix(1.1121602,0,0,1.1121602,287.22676,336.97732)"><path
         d="M 0,0 H -10.95 0.876 Z"
         style="fill:#bcbec3;fill-opacity:1;fill-rule:nonzero;stroke:none"
         id="path164" /></g><g
       id="g166"
       transform="matrix(1.1121602,0,0,1.1121602,274.07736,335.50693)"><path
         d="M 0,0 H -0.445 4.818 Z"
         style="fill:#bcbec3;fill-opacity:1;fill-rule:nonzero;stroke:none"
         id="path168" /></g><g
       id="g170"
       transform="matrix(1.1121602,0,0,1.1121602,283.32708,335.02548)"><path
         d="M 0,0 H 3.065 L -2.184,0.433 Z"
         style="fill:#bcbec3;fill-opacity:1;fill-rule:nonzero;stroke:none"
         id="path172" /></g><g
       id="g174"
       transform="matrix(1.1121602,0,0,1.1121602,280.89779,335.50693)"><path
         d="M 0,0 5.25,-0.433 5.691,0 Z"
         style="fill:#bcbec3;fill-opacity:1;fill-rule:nonzero;stroke:none"
         id="path176" /></g><g
       id="g178"
       transform="matrix(1.1121602,0,0,1.1121602,284.302,334.53402)"><path
         d="M 0,0 1.754,-0.878 2.189,0 Z"
         style="fill:#bcbec3;fill-opacity:1;fill-rule:nonzero;stroke:none"
         id="path180" /></g><g
       id="g182"
       transform="matrix(1.1121602,0,0,1.1121602,284.302,334.53402)"><path
         d="M 0,0 H 2.189 L -0.877,0.442 Z"
         style="fill:#bcbec3;fill-opacity:1;fill-rule:nonzero;stroke:none"
         id="path184" /></g><g
       id="g186"
       transform="matrix(1.1121602,0,0,1.1121602,283.32708,335.02548)"><path
         d="M 0,0 3.065,-0.442 V 0 Z"
         style="fill:#bcbec3;fill-opacity:1;fill-rule:nonzero;stroke:none"
         id="path188" /></g><g
       id="g190"
       transform="matrix(1.1121602,0,0,1.1121602,285.27692,325.27128)"><path
         d="M 0,0 H 3.5 Z"
         style="fill:#bcbec3;fill-opacity:1;fill-rule:nonzero;stroke:none"
         id="path192" /></g><g
       id="g194"
       transform="matrix(1.1121602,0,0,1.1121602,275.53173,325.27106)"><path
         d="M 0,0 2.188,-1.313 H -0.876 Z"
         style="fill:#bcbec3;fill-opacity:1;fill-rule:evenodd;stroke:none"
         id="path196" /></g><g
       id="g198"
       transform="matrix(1.1121602,0,0,1.1121602,275.53173,325.27106)"><path
         d="M 0,0 2.188,-1.313 Z"
         style="fill:#bcbec3;fill-opacity:1;fill-rule:evenodd;stroke:none"
         id="path200" /></g><g
       id="g202"
       transform="matrix(1.1121602,0,0,1.1121602,283.32708,323.31844)"><path
         d="M 0,0 H -2.184 4.818 Z"
         style="fill:#bcbec3;fill-opacity:1;fill-rule:nonzero;stroke:none"
         id="path204" /></g><g
       id="g206"
       transform="matrix(1.1121602,0,0,1.1121602,283.32708,323.31844)"><path
         d="M 0,0 H 4.818 Z"
         style="fill:#bcbec3;fill-opacity:1;fill-rule:nonzero;stroke:none"
         id="path208" /></g><g
       id="g210"
       transform="matrix(1.1121602,0,0,1.1121602,273.58189,323.31844)"><path
         d="m 0,0 h 6.578 l -5.7,0.442 z"
         style="fill:#bcbec3;fill-opacity:1;fill-rule:nonzero;stroke:none"
         id="path212" /></g><g
       id="g214"
       transform="matrix(1.1121602,0,0,1.1121602,274.55781,323.8099)"><path
         d="M 0,0 5.701,-0.442 3.064,0 Z"
         style="fill:#bcbec3;fill-opacity:1;fill-rule:nonzero;stroke:none"
         id="path216" /></g><g
       id="g218"
       transform="matrix(1.1121602,0,0,1.1121602,275.53173,320.88114)"><path
         d="m 0,0 h 0.877 9.198 z"
         style="fill:#bcbec3;fill-opacity:1;fill-rule:nonzero;stroke:none"
         id="path220" /></g><g
       id="g222"
       transform="matrix(1.1121602,0,0,1.1121602,275.53173,320.88114)"><path
         d="M 0,0 H 10.075 Z"
         style="fill:#bcbec3;fill-opacity:1;fill-rule:nonzero;stroke:none"
         id="path224" /></g><g
       id="g226"
       transform="matrix(1.1121602,0,0,1.1121602,278.46049,319.90622)"><path
         d="m 0,0 h 5.693 l -7.45,0.877 z"
         style="fill:#bcbec3;fill-opacity:1;fill-rule:nonzero;stroke:none"
         id="path228" /></g><g
       id="g230"
       transform="matrix(1.1121602,0,0,1.1121602,276.50665,320.88114)"><path
         d="M 0,0 7.45,-0.877 9.198,0 Z"
         style="fill:#bcbec3;fill-opacity:1;fill-rule:nonzero;stroke:none"
         id="path232" /></g><g
       id="g234"
       transform="matrix(1.1121602,0,0,1.1121602,280.89779,319.42176)"><path
         d="M 0,0 H 2.625 Z"
         style="fill:#bcbec3;fill-opacity:1;fill-rule:nonzero;stroke:none"
         id="path236" /></g><g
       id="g238"
       transform="matrix(1.1121602,0,0,1.1121602,280.89779,319.42176)"><path
         d="M 0,0 H 2.625 L -2.191,0.436 Z"
         style="fill:#bcbec3;fill-opacity:1;fill-rule:nonzero;stroke:none"
         id="path240" /></g><g
       id="g242"
       transform="matrix(1.1121602,0,0,1.1121602,278.46049,319.90622)"><path
         d="M 0,0 4.817,-0.436 5.693,0 Z"
         style="fill:#bcbec3;fill-opacity:1;fill-rule:nonzero;stroke:none"
         id="path244" /></g><g
       id="g246"
       transform="matrix(1.1121602,0,0,1.1121602,286.25262,333.55743)"><path
         d="m 0,0 1.752,3.075 m -2.194,-25.87 h -8.321 m -3.061,13.153 2.184,2.191 M 1.752,3.075 H 0.876 V 3.509 H 0.435 0 V 3.946 H -0.442 V 4.388 H -0.877 -1.312 L -1.754,4.823 H -2.189 -2.631 -3.065 -3.507 -3.941 -4.383 -4.814 -5.254 -5.695 -6.13 -6.571 -7.006 -7.451 L -7.887,4.388 H -8.328 -8.763 V 3.946 H -9.197 -9.64 V 3.509 h -0.434 V 3.075 h -0.442 v -0.44 h -0.431 V 2.198 L -11.393,1.753 V 1.32 0.878 0.443 0 -0.435 -0.872 -1.31 -1.751 l 0.446,-0.442 v -0.433 h 0.431 v -0.445 h 0.442 v -0.433 h 0.434 v -0.444 h 0.443 l 0.434,-0.435 h 0.435 0.441 l 0.436,-0.435 h 0.445 0.435 0.441 v -0.441 h 0.435 0.441 0.44 0.431 0.442 l 0.876,-0.439 h 0.434 0.442 V -6.14 h 0.435 0.442 v -0.436 h 0.435 V -7.017 -7.451 -7.886 -8.33 h -0.435 v -0.434 h -0.442 l -0.435,-0.443 h -0.442 -0.434 -0.442 -0.434 -0.442 -0.431 -0.44 -0.441 -0.435 l -0.441,0.443 h -0.435 -0.445 l -0.436,0.434 h -0.441 l -0.435,0.444 -0.434,0.435 H -9.64"
         style="fill:none;stroke:#050301;stroke-width:2.628;stroke-linecap:round;stroke-linejoin:round;stroke-miterlimit:10;stroke-dasharray:none;stroke-opacity:1"
         id="path248" /></g><g
       id="g250"
       transform="matrix(1.1121602,0,0,1.1121602,273.58189,275.52135)"><path
         d="M 0,0 H 1.318 L 0.878,0.444 Z"
         style="fill:#bcbec3;fill-opacity:1;fill-rule:nonzero;stroke:none"
         id="path252" /></g><g
       id="g254"
       transform="matrix(1.1121602,0,0,1.1121602,273.10244,274.54743)"><path
         d="M 0,0 H 2.627 L 0.431,0.876 Z"
         style="fill:#bcbec3;fill-opacity:1;fill-rule:nonzero;stroke:none"
         id="path256" /></g><g
       id="g258"
       transform="matrix(1.1121602,0,0,1.1121602,273.58189,275.52135)"><path
         d="M 0,0 2.196,-0.876 1.318,0 Z"
         style="fill:#bcbec3;fill-opacity:1;fill-rule:nonzero;stroke:none"
         id="path260" /></g><g
       id="g262"
       transform="matrix(1.1121602,0,0,1.1121602,237.05255,271.13688)"><path
         d="M 0,0 1.318,-1.313 H -1.31 Z"
         style="fill:#bcbec3;fill-opacity:1;fill-rule:evenodd;stroke:none"
         id="path264" /></g><g
       id="g266"
       transform="matrix(1.1121602,0,0,1.1121602,235.59606,269.67606)"><path
         d="M 0,0 H 2.628 L 4.376,-1.321 Z"
         style="fill:#bcbec3;fill-opacity:1;fill-rule:evenodd;stroke:none"
         id="path268" /></g><g
       id="g270"
       transform="matrix(1.1121602,0,0,1.1121602,273.10211,274.54721)"><path
         d="M 0,0 9.635,-7.891 H 7.01 Z"
         style="fill:#bcbec3;fill-opacity:1;fill-rule:evenodd;stroke:none"
         id="path272" /></g><g
       id="g274"
       transform="matrix(1.1121602,0,0,1.1121602,273.10211,274.54721)"><path
         d="M 0,0 H 2.627 L 9.635,-7.891 Z"
         style="fill:#bcbec3;fill-opacity:1;fill-rule:evenodd;stroke:none"
         id="path276" /></g><g
       id="g278"
       transform="matrix(1.1121602,0,0,1.1121602,224.87995,257.9728)"><path
         d="M 0,0 H 62.623 Z"
         style="fill:#bcbec3;fill-opacity:1;fill-rule:nonzero;stroke:none"
         id="path280" /></g><g
       id="g282"
       transform="matrix(1.1121602,0,0,1.1121602,224.87995,257.48834)"><path
         d="M 0,0 H 62.623 L 0,0.436 Z"
         style="fill:#bcbec3;fill-opacity:1;fill-rule:nonzero;stroke:none"
         id="path284" /></g><g
       id="g286"
       transform="matrix(1.1121602,0,0,1.1121602,224.87995,257.9728)"><path
         d="M 0,0 62.623,-0.436 V 0 Z"
         style="fill:#bcbec3;fill-opacity:1;fill-rule:nonzero;stroke:none"
         id="path288" /></g><g
       id="g290"
       transform="matrix(1.1121602,0,0,1.1121602,271.14938,265.7716)"><path
         d="M 0,0 -7.006,7.455 -11.383,3.511"
         style="fill:none;stroke:#050301;stroke-width:2.628;stroke-linecap:round;stroke-linejoin:round;stroke-miterlimit:10;stroke-dasharray:none;stroke-opacity:1"
         id="path292" /></g><g
       id="g294"
       transform="matrix(1.1121602,0,0,1.1121602,286.73586,262.36127)"><path
         d="M 0,0 -10.95,12.276"
         style="fill:none;stroke:#050301;stroke-width:2.628;stroke-linecap:round;stroke-linejoin:round;stroke-miterlimit:10;stroke-dasharray:none;stroke-opacity:1"
         id="path296" /></g><g
       id="g298"
       transform="matrix(1.1121602,0,0,1.1121602,271.14938,265.7716)"><path
         d="M 0,0 H 8.766"
         style="fill:none;stroke:#050301;stroke-width:2.628;stroke-linecap:round;stroke-linejoin:round;stroke-miterlimit:10;stroke-dasharray:none;stroke-opacity:1"
         id="path300" /></g><g
       id="g302"
       transform="matrix(1.1121602,0,0,1.1121602,224.87962,257.4879)"><path
         d="M 0,0 V 0.436 L 17.085,19.284"
         style="fill:none;stroke:#050301;stroke-width:2.628;stroke-linecap:round;stroke-linejoin:round;stroke-miterlimit:10;stroke-dasharray:none;stroke-opacity:1"
         id="path304" /></g><g
       id="g306"
       transform="matrix(1.1121602,0,0,1.1121602,246.79807,275.52146)"><path
         d="M 0,0 -5.696,-6.577"
         style="fill:none;stroke:#050301;stroke-width:2.628;stroke-linecap:round;stroke-linejoin:round;stroke-miterlimit:10;stroke-dasharray:none;stroke-opacity:1"
         id="path308" /></g><g
       id="g310"
       transform="matrix(1.1121602,0,0,1.1121602,286.73586,262.36127)"><path
         d="M 0,0 H 2.63"
         style="fill:none;stroke:#050301;stroke-width:2.628;stroke-linecap:round;stroke-linejoin:round;stroke-miterlimit:10;stroke-dasharray:none;stroke-opacity:1"
         id="path312" /></g><g
       id="g314"
       transform="matrix(1.1121602,0,0,1.1121602,258.48988,269.67606)"><path
         d="M 0,0 -7.448,8.325"
         style="fill:none;stroke:#050301;stroke-width:2.628;stroke-linecap:round;stroke-linejoin:round;stroke-miterlimit:10;stroke-dasharray:none;stroke-opacity:1"
         id="path316" /></g><g
       id="g318"
       transform="matrix(1.1121602,0,0,1.1121602,240.46287,268.20656)"><path
         d="M 0,0 -3.066,2.635"
         style="fill:none;stroke:#050301;stroke-width:2.628;stroke-linecap:round;stroke-linejoin:round;stroke-miterlimit:10;stroke-dasharray:none;stroke-opacity:1"
         id="path320" /></g><g
       id="g322"
       transform="matrix(1.1121602,0,0,1.1121602,289.66073,262.36127)"><path
         d="M 0,0 H 1.311"
         style="fill:none;stroke:#050301;stroke-width:2.628;stroke-linecap:round;stroke-linejoin:round;stroke-miterlimit:10;stroke-dasharray:none;stroke-opacity:1"
         id="path324" /></g><g
       id="g326"
       transform="matrix(1.1121602,0,0,1.1121602,277.48124,279.42815)"><path
         d="M 0,0 V 0.436"
         style="fill:none;stroke:#050301;stroke-width:2.628;stroke-linecap:round;stroke-linejoin:round;stroke-miterlimit:10;stroke-dasharray:none;stroke-opacity:1"
         id="path328" /></g><g
       id="g330"
       transform="matrix(1.1121602,0,0,1.1121602,259.46736,289.1769)"><path
         d="m 0,0 -11.392,-12.278 -2.623,3.069"
         style="fill:none;stroke:#050301;stroke-width:2.628;stroke-linecap:round;stroke-linejoin:round;stroke-miterlimit:10;stroke-dasharray:none;stroke-opacity:1"
         id="path332" /></g><g
       id="g334"
       transform="matrix(1.1121602,0,0,1.1121602,277.48124,279.42815)"><path
         d="M 0,0 -3.938,-4.389"
         style="fill:none;stroke:#050301;stroke-width:2.628;stroke-linecap:round;stroke-linejoin:round;stroke-miterlimit:10;stroke-dasharray:none;stroke-opacity:1"
         id="path336" /></g><g
       id="g338"
       transform="matrix(1.1121602,0,0,1.1121602,280.89813,265.7716)"><path
         d="M 0,0 -19.27,21.045"
         style="fill:none;stroke:#050301;stroke-width:2.628;stroke-linecap:round;stroke-linejoin:round;stroke-miterlimit:10;stroke-dasharray:none;stroke-opacity:1"
         id="path340" /></g><g
       id="g342"
       transform="matrix(1.1121602,0,0,1.1121602,294.52643,257.4879)"><path
         d="M 0,0 V 0.436 L -15.326,19.728"
         style="fill:none;stroke:#050301;stroke-width:2.628;stroke-linecap:round;stroke-linejoin:round;stroke-miterlimit:10;stroke-dasharray:none;stroke-opacity:1"
         id="path344" /></g><g
       id="g346"
       transform="matrix(1.1121602,0,0,1.1121602,273.10211,322.83387)"><path
         d="M 0,0 0.877,-0.443 V -0.879 H 1.309 V -1.321 H 1.75 2.185 v -0.435 h 0.442 0.435 v -0.437 h 0.434 0.442 l 0.435,-0.44 H 4.818 5.253 5.694 L 6.129,-3.068 H 6.57 7.01 7.441 7.883 8.317 8.759 9.193 9.635 10.07 l 0.442,0.435 h 0.435 0.435 v 0.44 h 0.442 l 0.435,0.437 0.441,0.435 0.435,0.442 h 0.441 V -0.443 0 h 0.436 v 0.436 0.442 h 0.435 V 1.312 1.756 2.191 2.625 3.066 3.502 L 14.012,3.944 V 4.383 L 13.576,4.824 V 5.259 H 13.135 V 5.694 H 12.7 V 6.138 H 12.259 L 11.824,6.571 H 11.382 L 10.947,7.016 H 10.512 10.07 L 9.635,7.449 H 9.193 8.759 8.317 L 7.01,7.891 H 6.129 L 5.694,8.332 H 5.253 4.818 V 8.771 H 4.373 3.938 v 0.436 0.435 0.443 0.436 l 0.435,0.441 h 0.445 v 0.433 H 5.253 5.694 6.129 6.57 7.01 7.441 7.883 8.317 8.759 9.193 v -0.433 h 0.442 0.435 v -0.441 h 0.442 l 0.435,-0.436 0.877,-0.443"
         style="fill:none;stroke:#050301;stroke-width:2.628;stroke-linecap:round;stroke-linejoin:round;stroke-miterlimit:10;stroke-dasharray:none;stroke-opacity:1"
         id="path348" /></g><g
       id="g350"
       transform="matrix(1.1121602,0,0,1.1121602,224.87962,257.4879)"><path
         d="M 0,0 H 62.623"
         style="fill:none;stroke:#050301;stroke-width:2.628;stroke-linecap:round;stroke-linejoin:round;stroke-miterlimit:10;stroke-dasharray:none;stroke-opacity:1"
         id="path352" /></g></g></svg>
