<?xml version="1.0" encoding="UTF-8" standalone="no"?>
<!-- Created with Inkscape (http://www.inkscape.org/) -->

<svg
   version="1.1"
   id="svg827"
   width="1400"
   height="350"
   viewBox="0 0 1400 350"
   sodipodi:docname="logo-ink.svg"
   inkscape:version="1.1.2 (0a00cf5339, 2022-02-04)"
   xmlns:inkscape="http://www.inkscape.org/namespaces/inkscape"
   xmlns:sodipodi="http://sodipodi.sourceforge.net/DTD/sodipodi-0.dtd"
   xmlns="http://www.w3.org/2000/svg"
   xmlns:svg="http://www.w3.org/2000/svg">
  <defs
     id="defs831" />
  <sodipodi:namedview
     id="namedview829"
     pagecolor="#505050"
     bordercolor="#eeeeee"
     borderopacity="1"
     inkscape:pageshadow="0"
     inkscape:pageopacity="0"
     inkscape:pagecheckerboard="0"
     showgrid="false"
     fit-margin-top="0"
     fit-margin-left="0"
     fit-margin-right="0"
     fit-margin-bottom="0"
     inkscape:zoom="0.85834194"
     inkscape:cx="689.70182"
     inkscape:cy="259.80322"
     inkscape:window-width="1920"
     inkscape:window-height="1131"
     inkscape:window-x="0"
     inkscape:window-y="32"
     inkscape:window-maximized="1"
     inkscape:current-layer="g833" />
  <g
     inkscape:groupmode="layer"
     inkscape:label="Image"
     id="g833"
     transform="translate(-67.943204,-25.225265)">
    <path
       style="fill:#8a1332;fill-opacity:1"
       d="m 406.56763,363.51478 c 0,-0.26749 5.7375,-3.3562 12.75,-6.8638 40.91299,-20.46435 81.03167,-53.3039 103.51399,-84.73242 12.5889,-17.59828 25.66008,-47.8216 28.74113,-66.45553 2.47234,-14.95247 0.93787,-38.2046 -3.26628,-49.49443 -7.63474,-20.50237 -30.62233,-39.28673 -49.76211,-40.66321 -13.54533,-0.97415 -28.47975,5.66965 -38.81777,17.26865 -8.30848,9.3219 -19.63782,31.08804 -23.36485,44.88899 l -1.35029,5 -15.97191,5.23798 c -8.78455,2.88088 -17.09137,5.35588 -18.4596,5.5 -2.20709,0.23246 -3.04707,-0.80955 -7.44676,-9.23798 -8.352,-15.99982 -23.80171,-29.5813 -45.04339,-39.59659 -11.52948,-5.43606 -19.31022,-7.40341 -29.28001,-7.40341 -16.67982,0 -28.36181,4.54372 -39.0785,15.1996 -16.60117,16.50699 -20.82615,39.14 -13.11685,70.2664 7.39585,29.86088 43.85524,72.65413 90.11813,105.77379 9.54617,6.83412 25.51654,15.10459 37.33507,19.33447 l 9,3.22112 -4.84194,0.72964 c -8.56471,1.29063 -30.38308,-0.0534 -39.48969,-2.43257 -18.96237,-4.9541 -38.52002,-16.19644 -61.1203,-35.13386 -19.60717,-16.4294 -38.94749,-39.8747 -48.41786,-58.69456 -7.27229,-14.45176 -12.06742,-33.87115 -13.29296,-53.83402 -1.03188,-16.80835 3.73125,-39.6434 10.7711,-51.63806 16.31927,-27.80514 38.53489,-43.1037 67.92436,-46.77543 10.69374,-1.33601 20.83397,-0.0814 35.54255,4.39756 17.14935,5.22219 19.58362,6.41313 32.92474,16.10798 11.56339,8.403 19.05775,15.34144 22.99198,21.28645 1.52558,2.30532 3.06693,4.19149 3.42521,4.19149 0.35827,0 1.44189,-2.1375 2.40804,-4.75 5.00751,-13.54048 20.92067,-32.53848 34.11037,-40.7228 14.95151,-9.277542 31.0183,-14.532682 44.40237,-14.523172 0,0 22.8743,2.6009 30.47271,5.46094 10.90748,4.10556 17.44685,8.375592 27.40197,17.892742 12.05763,11.52717 21.48146,25.41133 27.23352,40.1232 5.60005,14.3231 7.06,21.41427 7.72452,37.51909 1.31485,31.86601 -7.95442,56.58282 -32.83482,87.55503 -8.2409,10.25864 -26.20989,28.24141 -36.33587,36.36375 -19.58339,15.70839 -49.21727,32.43256 -70.92096,40.02493 -11.82052,4.13505 -36.57904,10.63825 -36.57904,9.60804 z m -4.5,-46.63126 c -2.75,-0.46435 -8.825,-1.11188 -13.5,-1.43895 -7.49543,-0.52441 -9.20911,-1.02976 -14.5,-4.27597 -5.66189,-3.47382 -6.59169,-3.71143 -16.5,-4.21657 -9.40546,-0.4795 -11.17621,-0.88564 -16.98691,-3.89613 -3.56779,-1.84846 -9.37549,-4.4481 -12.90599,-5.77698 -7.68006,-2.89077 -8.87071,-3.78543 -17.05569,-12.81589 -9.45435,-10.43095 -16.14016,-19.0436 -24.57917,-31.66292 -9.71671,-14.52991 -14.22235,-23.48697 -12.6204,-25.08892 0.89038,-0.89038 1.8873,-0.74275 4.19668,0.62143 l 3.0289,1.78922 4.79884,-3.07941 c 5.52504,-3.5454 6.16768,-3.6245 12.34555,-1.51949 3.94882,1.3455 4.66417,2.01876 5.20435,4.89817 0.80895,4.3121 4.11115,5.31282 8.76108,2.65503 1.82202,-1.04141 5.11276,-2.45693 7.31276,-3.14559 2.2,-0.68865 4.88763,-1.86307 5.97251,-2.60981 1.08487,-0.74674 2.77237,-1.35771 3.75,-1.35771 0.97762,0 1.77749,-0.49814 1.77749,-1.10699 0,-0.60884 0.72089,-0.83036 1.60197,-0.49225 1.0202,0.39148 3.34035,-0.84072 6.38878,-3.39302 3.26475,-2.7334 5.746,-4.00774 7.80342,-4.00774 1.97151,0 4.43966,-1.18893 7.1242,-3.4318 4.49758,-3.75762 12.03643,-5.95901 20.58163,-6.00996 5.22593,-0.0312 7.70807,0.97466 14.61049,5.92049 l 4.15712,2.97873 11.1162,-5.77376 c 11.07414,-5.75191 13.76721,-6.51313 16.61619,-4.69673 1.04661,0.66729 0.4421,0.79131 -2,0.41032 -2.8955,-0.45173 -5.10309,0.32847 -12.78168,4.51724 -12.80389,6.98468 -13.31435,7.0573 -18.91813,2.69143 -5.43793,-4.23665 -10.83925,-5.94017 -16.06501,-5.06672 -8.20368,1.37119 -14.84714,3.79089 -17.99393,6.5538 -1.98962,1.74691 -4.44201,2.90696 -6.14542,2.90696 -1.81121,0 -4.68023,1.46953 -7.94678,4.0704 -2.81172,2.23872 -5.51951,3.81868 -6.01732,3.51101 -0.49782,-0.30766 -1.45709,0.1057 -2.13173,0.91859 -0.67464,0.81289 -1.54757,1.27962 -1.93984,1.03718 -0.39228,-0.24244 -2.89255,0.66251 -5.55617,2.01101 -2.66362,1.3485 -5.46503,2.45181 -6.22535,2.45181 -0.76032,0 -3.1103,0.99445 -5.22216,2.20989 -3.24564,1.86795 -4.23736,2.02872 -6.4094,1.03908 -1.58965,-0.7243 -2.88546,-2.3896 -3.39776,-4.3666 -0.70746,-2.73021 -1.5334,-3.40145 -5.66926,-4.60741 l -4.84115,-1.41161 -4.9359,3.06833 c -5.69239,3.53858 -6.06304,3.59927 -9.24559,1.51398 -3.56137,-2.3335 -3.76025,-0.461 -0.6136,5.77727 6.71262,13.30784 21.97442,34.35515 36.40374,50.20379 6.0541,6.64962 8.30271,8.40659 12.75135,9.96342 2.9706,1.03958 9.39965,3.85208 14.28678,6.25 8.3782,4.11085 9.37768,4.36111 17.5,4.38182 8.78552,0.0224 9.91382,0.36064 20.11431,6.02974 1.925,1.06986 4.85,1.9378 6.5,1.92877 1.65,-0.009 9.30453,0.737 17.01006,1.65786 7.70553,0.92085 15.66377,1.36404 17.68497,0.98486 2.02121,-0.37918 6.48918,-2.76116 9.92884,-5.2933 5.80818,-4.27573 6.86414,-4.67079 14.81503,-5.5427 5.611,-0.6153 10.85872,-1.94647 15.22871,-3.863 4.9162,-2.15608 8.22841,-2.92419 12.60954,-2.92419 4.70227,0 7.21269,-0.65539 12.03301,-3.14142 14.34603,-7.39882 41.86328,-36.07758 49.07439,-51.14584 4.63787,-9.69124 4.70844,-10.39152 1.05758,-10.49532 -1.70263,-0.0484 -4.27282,-0.8593 -5.71153,-1.80198 -3.92763,-2.57349 -15.42541,-5.26058 -27.45932,-6.41741 -5.9008,-0.56724 -11.89259,-1.47385 -13.3151,-2.01469 -1.42251,-0.54084 -4.12005,-0.98334 -5.99453,-0.98334 -3.09877,0 -8.3441,-1.87158 -15.71165,-5.60607 -12.92611,-6.55203 -14.82865,-7.39393 -16.70892,-7.39393 -0.98826,0 -3.36799,0.65647 -5.28828,1.45882 -3.19002,1.33288 -3.82316,1.28971 -7.33357,-0.5 -4.63946,-2.36533 -7.24748,-2.46785 -10.19848,-0.40089 -2.24277,1.5709 -4.22075,1.2244 -4.22075,-0.73939 0,-0.71645 0.44613,-0.69317 1.36732,0.0713 1.03521,0.85915 1.64986,0.79434 2.53054,-0.26682 2.00868,-2.42032 6.30506,-2.61477 9.3809,-0.42457 2.15641,1.5355 3.69257,1.85745 6.52108,1.36672 9.99612,-1.73427 10.80655,-1.74441 12.12836,-0.15173 0.72418,0.87258 1.96843,1.58651 2.76501,1.58651 0.79658,0 4.00398,1.33328 7.12756,2.96284 9.0413,4.71681 14.38404,6.82861 18.67923,7.38321 2.2,0.28407 8.05,1.02259 13,1.64117 14.44123,1.80464 28.64872,4.90297 32.26404,7.03607 3.78827,2.23513 7.27117,2.5415 9.01929,0.79338 4.98558,-4.98558 -1.04196,11.41222 -8.04205,21.87822 -5.67459,8.48421 -24.92688,28.89342 -34.26471,36.32376 -8.72447,6.94227 -15.60778,9.9595 -22.74853,9.97158 -4.2827,0.007 -7.50785,0.79686 -12.49984,3.06034 -4.83943,2.1943 -8.9154,3.21926 -14.52123,3.65155 -6.47996,0.49969 -8.56902,1.12314 -12.39606,3.69943 -10.88539,7.3278 -11.48119,7.57068 -18.31091,7.46438 -3.575,-0.0556 -8.75,-0.48109 -11.5,-0.94544 z m -22.54219,-26.67049 c 0.56549,-0.9625 4.1369,-5.10447 7.93646,-9.20438 5.76853,-6.22452 7.1529,-7.25136 8.39089,-6.22392 1.23261,1.02298 2.24459,0.38295 6.00149,-3.79562 2.48538,-2.76435 4.95797,-5.02608 5.49464,-5.02608 0.53667,0 3.12026,2.51016 5.74132,5.57814 l 4.76555,5.57814 1.99984,-1.99984 1.99984,-1.99984 6.52028,8.1717 c 3.58616,4.49444 6.95149,8.7342 7.47853,9.4217 0.76148,0.99333 -5.02889,1.25 -28.19939,1.25 -27.49419,0 -29.09897,-0.0998 -28.12945,-1.75 z m 54.04219,-0.75 c -0.68469,-0.825 -2.03469,-1.5 -3,-1.5 -0.96531,0 -2.26047,-0.60892 -2.87813,-1.35315 -0.76347,-0.91993 -2.64361,-1.21206 -5.87244,-0.91245 -4.39488,0.40781 -5.00582,0.17379 -8.18396,-3.13484 -3.25334,-3.38692 -3.53247,-3.48691 -5.29112,-1.89535 -1.75827,1.59121 -2.04575,1.49106 -5.42759,-1.89079 l -3.57099,-3.57098 -3.56258,3.94334 c -2.71671,3.00707 -4.08788,3.8115 -5.77502,3.38806 -1.73984,-0.43667 -2.9985,0.40399 -5.89226,3.93543 l -3.67981,4.49073 h 27.1894 c 24.05496,0 27.04588,-0.17292 25.9445,-1.5 z m -6.58117,-8.5 c -2.59262,-3.3 -4.85665,-6 -5.03116,-6 -0.17452,0 -0.77368,0.85275 -1.33147,1.89499 -0.77582,1.44963 -0.60782,2.21346 0.71481,3.25 1.58568,1.2427 1.61326,1.18924 0.33271,-0.64499 -0.76796,-1.1 0.58204,0.0889 3,2.64207 6.32418,6.67776 7.86252,5.91889 2.31511,-1.14207 z m -4.41883,3.23839 c 0,-0.41889 -3.43712,-4.49695 -7.63805,-9.06236 l -7.63806,-8.30075 -3.36194,3.25853 c -1.84907,1.79219 -3.34984,3.50775 -3.33505,3.81236 0.0148,0.30461 1.32616,2.12104 2.91415,4.03651 l 2.88724,3.48269 2.14086,-1.93745 2.14086,-1.93745 3.39401,3.70476 c 2.21504,2.41785 4.28015,3.70477 5.945,3.70477 1.40304,0 2.55098,-0.34273 2.55098,-0.76161 z m -28.43686,-4.69441 c 2.37131,-3.61907 0.76668,-5.03894 -2.02577,-1.79253 -2.25861,2.62579 -2.45013,4.24855 -0.50141,4.24855 0.50487,0 1.6421,-1.10521 2.52718,-2.45602 z m -10.85056,-20.16474 c -0.95509,-0.95509 -0.91867,-34.38673 0.0374,-34.35198 0.4125,0.015 3.81075,4.06499 7.55166,9 3.74091,4.93501 7.12493,8.97274 7.52004,8.97274 0.39511,0 3.78832,-4.09854 7.54047,-9.10787 4.22396,-5.63923 7.17759,-8.75237 7.75556,-8.1744 0.52545,0.52545 0.81301,8.11272 0.65788,17.35788 l -0.27559,16.42439 -2.87182,0.32818 c -1.5795,0.1805 -3.31621,-0.11621 -3.85934,-0.65934 -0.65003,-0.65003 -0.0103,-0.93306 1.87182,-0.82818 1.57264,0.0876 2.97184,-0.17816 3.10934,-0.59066 0.1375,-0.4125 0.25,-7.58305 0.25,-15.93455 v -15.18456 l -6.75,9.14805 c -3.7125,5.03143 -7.02841,9.16448 -7.36868,9.18455 -0.34028,0.0201 -3.71528,-4.05273 -7.5,-9.0507 l -6.88132,-9.0872 -0.27791,14.79327 c -0.15286,8.1363 -0.0417,15.4088 0.24697,16.16111 0.28869,0.75232 1.31375,1.21764 2.27792,1.03406 1.45598,-0.27723 1.83774,-1.76093 2.25302,-8.75618 l 0.5,-8.42239 4.28239,5.68227 c 2.35532,3.12525 4.63914,5.68227 5.07515,5.68227 0.43602,0 2.55894,-2.4653 4.71761,-5.47843 2.15867,-3.01314 4.16713,-5.48814 4.46324,-5.5 0.29611,-0.0119 0.66408,3.35343 0.8177,7.47843 0.19258,5.17104 -0.0798,7.5 -0.87721,7.5 -0.78453,0 -1.04754,-1.93044 -0.8177,-6.00182 0.18635,-3.301 0.11382,-5.99089 -0.16118,-5.97753 -0.275,0.0134 -2.075,2.25407 -4,4.97935 -1.925,2.72528 -3.79917,4.96517 -4.16483,4.97753 -0.36566,0.0124 -2.39066,-2.33388 -4.5,-5.21385 l -3.83517,-5.23633 -0.5,7.48633 -0.5,7.48632 -2.53742,0.29591 c -1.39559,0.16275 -2.85809,-0.0247 -3.25,-0.41667 z m 34.70691,-0.72845 c -0.28476,-0.74207 -0.38314,-4.45457 -0.21862,-8.25 0.23123,-5.33442 0.63961,-6.90079 1.79913,-6.90079 0.96704,0 1.61288,1.17546 1.81771,3.30831 0.29404,3.06193 0.5547,3.28535 3.5,3 2.78244,-0.26957 3.22166,-0.71666 3.49565,-3.55831 0.1941,-2.01311 0.86012,-3.25 1.75,-3.25 1.12115,0 1.43664,1.64701 1.43664,7.5 0,4.125 0.0805,7.8375 0.17889,8.25 0.0984,0.4125 -0.54608,0.88962 -1.43215,1.06026 -1.17342,0.22598 -1.69738,-0.58893 -1.92889,-3 -0.28083,-2.92472 -0.69637,-3.34676 -3.56785,-3.62362 l -3.25,-0.31336 v 3.56336 c 0,2.53322 -0.44271,3.56336 -1.53138,3.56336 -0.84227,0 -1.76437,-0.60715 -2.04913,-1.34921 z m 6.88932,-6.45518 c 3.74216,0.2724 4.24848,0.61966 4.81808,3.30439 0.3984,1.87781 0.62087,0.38156 0.59476,-4 -0.023,-3.85 -0.22322,-5.5375 -0.44505,-3.75 l -0.40332,3.25 h -4.43664 -4.43664 v -3.55902 c 0,-2.11803 -0.40488,-3.30878 -1,-2.94098 -1.155,0.71383 -1.37175,12.78926 -0.25,13.92808 0.4125,0.41878 0.89112,-0.8807 1.06361,-2.88772 l 0.31361,-3.64914 z m -4.17928,-11.73713 c -2.71514,-1.17874 -3.14501,-1.73491 -2.21088,-2.86046 0.80561,-0.9707 2.41542,-1.22877 5.27355,-0.84541 2.96025,0.39705 3.91427,0.22867 3.40187,-0.60041 -0.39166,-0.63371 -1.33937,-1.1522 -2.10603,-1.1522 -3.4075,0 -6.48804,-2.35527 -6.48804,-4.96052 0,-3.68468 1.74248,-5.04197 6.45,-5.02417 5.4345,0.0206 6.97076,1.027 5.22076,3.42027 -1.12532,1.53898 -1.67837,1.63072 -3.60728,0.59839 -1.47616,-0.79001 -2.62064,-0.87681 -3.25089,-0.24656 -0.63025,0.63025 0.55171,1.45498 3.35736,2.34264 3.77581,1.1946 4.36924,1.77365 4.63624,4.52389 0.22948,2.3637 -0.26474,3.55383 -1.9725,4.75 -2.77291,1.94222 -4.33349,1.952 -8.70416,0.0545 z m 9.37047,-3.95848 c 0,-2.65749 -0.49115,-3.1554 -4.30192,-4.36115 -3.07874,-0.97412 -4.20511,-1.82712 -3.96143,-3 0.25328,-1.21907 1.30233,-1.58118 4.09558,-1.41369 2.23623,0.13408 3.51132,-0.16928 3.15242,-0.75 -0.73816,-1.19437 -6.48509,-1.26118 -8.32214,-0.0968 -0.73562,0.46628 -1.18562,1.90925 -1,3.2066 0.2559,1.78853 1.30455,2.62902 4.33749,3.47644 2.20005,0.61471 4.13809,1.82638 4.30687,2.69266 0.40806,2.0944 -3.18373,3.14976 -5.85474,1.72028 -2.44359,-1.30777 -4.13581,-0.34786 -1.92317,1.0909 0.80907,0.5261 3.27104,0.83913 5.47104,0.69563 3.7198,-0.24263 4,-0.47106 4,-3.26091 z M 185.56452,63.713028 c -0.007,-2.85799 4.40507,-24.75 4.98819,-24.75 0.34886,0 2.5236,4.13633 4.83277,9.19184 2.3835,5.21825 4.55618,8.78468 5.02592,8.25 0.45509,-0.51801 2.56412,-4.86663 4.68674,-9.6636 2.12261,-4.79697 3.99323,-8.58782 4.15693,-8.42412 0.34048,0.34047 5.31256,24.47146 5.31256,25.7834 0,0.47437 -0.63772,0.86248 -1.41714,0.86248 -1.34108,0 -2.17036,-2.66963 -4.11589,-13.25 -0.37926,-2.0625 -0.97698,-3.74617 -1.32827,-3.7415 -0.35129,0.005 -2.1878,3.64621 -4.08114,8.0923 l -3.44243,8.0838 -4.14939,-8.25273 c -2.28217,-4.53901 -4.37972,-7.84304 -4.66123,-7.3423 -0.2815,0.50074 -1.09133,4.39793 -1.79963,8.66043 -0.86933,5.23162 -1.72926,7.75 -2.64634,7.75 -0.7472,0 -1.35994,-0.5625 -1.36165,-1.25 z m 40.41829,-0.17141 c -9.25217,-4.0284 -10.8005,-16.34739 -2.9635,-23.57859 2.29768,-2.12006 3.67504,-2.5 9.06322,-2.5 5.67445,0 6.68325,0.31566 9.43539,2.95238 11.6673,11.17799 -0.69841,29.58611 -15.53511,23.12621 z m 13.18482,-4.97859 c 3.66141,-3.6614 4.52297,-8.53563 2.28296,-12.91574 -3.89933,-7.62475 -14.86659,-7.62475 -18.76592,0 -2.24001,4.38011 -1.37845,9.25434 2.28296,12.91574 4.73043,4.73043 9.46957,4.73043 14.2,0 z m 12.43581,-7.35 0.0358,-13.75 8.92838,9.5 8.92838,9.5 0.0358,-9.14301 c 0.0281,-7.18118 0.35767,-9.26652 1.53581,-9.71861 1.28875,-0.49454 1.49836,1.35647 1.48834,13.14301 l -0.0117,13.71861 -8.94025,-9.5 -8.94026,-9.5 -0.0481,9.75 c -0.0393,7.97864 -0.3206,9.75 -1.54808,9.75 -1.26234,0 -1.49433,-2.17852 -1.46419,-13.75 z m 24.96419,12.76018 c 0,-1.34784 12.32634,-26.01018 13,-26.01018 0.67366,0 13,24.66234 13,26.01018 0,2.57542 -2.75313,0.50338 -5,-3.76307 l -2.5,-4.74711 h -5.5 -5.5 l -2.5,4.74711 c -2.24687,4.26645 -5,6.33849 -5,3.76307 z m 17,-11.47625 c 0,-1.08429 -3.42431,-7.53393 -4,-7.53393 -0.57569,0 -4,6.44964 -4,7.53393 0,0.25634 1.8,0.46607 4,0.46607 2.2,0 4,-0.20973 4,-0.46607 z m 19.06166,10.63881 c -11.99515,-6.43307 -7.41199,-26.15515 6.08135,-26.169 2.3184,-0.002 3.8523,0.54167 4.21862,1.49626 0.45088,1.17499 -0.26767,1.5 -3.31629,1.5 -8.01026,0 -13.18561,8.28859 -9.71702,15.56231 2.15262,4.51409 5.80258,6.75797 10.16442,6.24875 2.27743,-0.26588 3.50726,0.009 3.50726,0.78276 0,2.83679 -6.12394,3.16091 -10.93834,0.57892 z m 23.1792,-0.16733 c -12.33912,-7.52326 -7.59386,-26.00541 6.67683,-26.00541 8.41988,0 14.07483,5.62489 14.07483,14 0,5.64627 -2.64819,10.1342 -7.27559,12.33004 -4.67734,2.21955 -9.49357,2.10352 -13.47607,-0.32463 z m 14.35914,-4.40541 c 2.7873,-2.7873 3.4,-4.15686 3.4,-7.6 0,-8.81613 -10.57247,-14.27053 -17.34107,-8.94635 -8.31949,6.54411 -3.53878,19.77808 7.19107,19.90632 2.50773,0.03 4.20484,-0.8148 6.75,-3.35997 z m 26.75233,5.4067 c -2.57052,-1.03715 -3.70114,-2.63329 -2.8457,-4.01742 0.3954,-0.63977 1.41627,-0.45626 2.78152,0.5 3.17701,2.22527 6.43597,1.8614 8.25987,-0.92222 2.20993,-3.37277 0.67044,-5.83001 -5.01227,-8.00025 -4.87271,-1.86091 -6.53575,-3.8968 -6.53575,-8.00106 0,-3.79438 3.29608,-6.56575 7.80887,-6.56575 4.75362,0 8.28349,2.2648 6.44113,4.13268 -0.97222,0.9857 -1.51667,1.00066 -2.45,0.0673 -1.93309,-1.93308 -6.59309,-1.45513 -7.8,0.8 -1.594,2.97841 0.20401,5.4243 5.46425,7.4332 2.50722,0.95751 5.00344,2.57217 5.54716,3.58813 3.86744,7.22638 -3.5812,14.2446 -11.65908,10.98537 z m 17.86894,-12.67784 0.27873,-13.82886 5.74728,0.0251 c 7.06612,0.0308 10.15272,2.45532 10.15272,7.97494 0,4.59006 -2.9008,7.48923 -8.20534,8.20072 l -4.09883,0.54977 -0.29791,5.11539 c -0.23101,3.96659 -0.69739,5.19135 -2.07665,5.45362 -1.64619,0.31302 -1.75797,-0.69225 -1.5,-13.49064 z m 10.84447,-1.36404 c 1.34505,-0.71985 1.93426,-2.09817 1.93426,-4.52475 0,-2.82569 -0.488,-3.67511 -2.5651,-4.46482 -5.54361,-2.10767 -6.4349,-1.48096 -6.4349,4.52475 v 5.5 h 2.56574 c 1.41116,0 3.43616,-0.46583 4.5,-1.03518 z m 16.23859,13.07919 c -12.33577,-7.5216 -7.63237,-26.04401 6.61336,-26.04401 8.41988,0 14.07483,5.62489 14.07483,14 0,5.64627 -2.64819,10.1342 -7.27559,12.33004 -4.6551,2.20899 -9.48974,2.10589 -13.4126,-0.28603 z m 14.29567,-4.44401 c 2.7873,-2.7873 3.4,-4.15686 3.4,-7.6 0,-8.81613 -10.57247,-14.27053 -17.34107,-8.94635 -8.31949,6.54411 -3.53878,19.77808 7.19107,19.90632 2.50773,0.03 4.20484,-0.8148 6.75,-3.35997 z m 11.4,-7.52667 v -14.07333 l 4.25,0.0147 c 8.164,0.0283 12.78518,4.7173 10.65928,10.81566 -0.59204,1.69833 -1.93883,3.36159 -2.99286,3.69613 -2.61262,0.82921 -2.45757,1.47715 1.63669,6.83923 3.37829,4.42441 3.76281,6.65929 1.13787,6.61344 -0.65504,-0.0114 -3.21598,-3.04895 -5.69098,-6.75 l -4.5,-6.7292 -0.5,6.49103 c -0.39646,5.14689 -0.86238,6.55984 -2.25,6.82332 -1.59951,0.30373 -1.75,-0.87793 -1.75,-13.74102 z m 9.77749,-1.63003 c 4.5619,-3.19528 2.10607,-9.4433 -3.71175,-9.4433 -1.83726,0 -2.06574,0.60833 -2.06574,5.5 0,6.07385 1.38556,7.01953 5.77749,3.9433 z m 16.22251,3.0567 v -12.5 h -3.46862 c -2.67237,0 -3.33648,-0.34433 -2.89301,-1.5 0.82147,-2.1407 16.36163,-2.20088 16.36163,-0.0633 0,0.88988 -1.23689,1.5559 -3.25,1.75 l -3.25,0.31335 -0.28078,12.25 c -0.22877,9.98077 -0.55294,12.25 -1.75,12.25 -1.21394,0 -1.46922,-2.17193 -1.46922,-12.5 z m 26,-1.42667 v -14.07333 h 2 c 1.77778,0 2,0.66667 2,6 v 6 h 7 7 v -6 c 0,-4.66666 0.33333,-6 1.5,-6 1.2619,0 1.5,2.22223 1.5,14 0,11.77778 -0.2381,14 -1.5,14 -1.17949,0 -1.5,-1.38888 -1.5,-6.5 v -6.5 h -6.95228 -6.95229 l -0.29771,6.23996 c -0.23883,5.00561 -0.64389,6.3059 -2.04772,6.57333 -1.59956,0.3047 -1.75,-0.87647 -1.75,-13.73996 z m 33.9844,12.06358 c -4.6208,-2.47073 -7.31481,-7.23446 -7.23088,-12.78613 0.12759,-8.44033 6.19841,-13.72443 15.01861,-13.07234 6.10198,0.45113 10.43085,3.77653 12.30382,9.45169 3.90711,11.83867 -8.96948,22.35371 -20.09155,16.40678 z m 13.36451,-4.13839 c 1.88018,-1.65082 3.64412,-4.18174 3.91988,-5.62426 1.33708,-6.99451 -3.8019,-13.37426 -10.77316,-13.37426 -5.48787,0 -10.49563,5.24841 -10.49563,11 0,3.44314 0.6127,4.8127 3.4,7.6 4.51819,4.51819 9.10753,4.64931 13.94891,0.39852 z m 16.72168,-6.16503 0.17609,-12.33349 -3.12334,-0.31335 c -1.903,-0.19093 -3.12334,-0.87468 -3.12334,-1.75 0,-1.12914 1.71236,-1.43665 8,-1.43665 6.44444,0 8,0.29167 8,1.5 0,0.99655 -0.99658,1.5 -2.96922,1.5 h -2.96922 l -0.28078,12.23783 c -0.24938,10.86921 -0.48239,12.27648 -2.08354,12.58348 -1.66574,0.31939 -1.78937,-0.59169 -1.62665,-11.98782 z m 14.92941,-2.33349 v -13.5 h 6.89301 c 5.20463,0 7.034,0.36742 7.46862,1.5 0.47202,1.23009 -0.49842,1.5 -5.39301,1.5 h -5.96862 v 4.5 4.5 h 4.5 c 3.33333,0 4.5,0.38889 4.5,1.5 0,1.11112 -1.16667,1.5 -4.5,1.5 h -4.5 v 4.5 4.5 h 6 c 4.66667,0 6,0.33334 6,1.5 0,1.2 -1.5,1.5 -7.5,1.5 h -7.5 z m 21,0 c 0,-11.33333 0.24074,-13.5 1.5,-13.5 1.25,0 1.5,2 1.5,12 v 12 h 5.5 c 4.22222,0 5.5,0.34849 5.5,1.5 0,1.19048 -1.44444,1.5 -7,1.5 h -7 z"
       id="path1264"
       sodipodi:nodetypes="sssssssscssssssssscsssssssssssssssssssssssssssssssscsssssssssssssscsssssssssssssssssscssssssssssssssssssssssssssssssssssssssssscsssssssssssscccssssssssssscssscssssssssssscssscccssssssscsssssscssssscssscsssscssssssssssscccscsssssssssssscssssssscccsssscsssssssssssssssssssssssssssssscsssssssscscsssscssssssssssccccsssccccsccsssscccsssssssscssssssssssssssssssssssssssssssccssscssscsssscssssssssssssccsssssscssscssssccsssscssscscsscccssssscccssssssssssssssscssssscsssccssscccssscccsssccssscssscs" />
    <path
       style="fill:#000000;stroke-width:1.26716"
       d="m 1349.3708,357.97929 c 25.4229,-38.79576 38.7108,-86.48636 35.1444,-126.1343 -1.1758,-13.07159 -2.8827,-23.23286 -4.1025,-24.42286 -0.2997,-0.29237 -3.9096,0.59775 -8.0219,1.97806 -4.1124,1.3803 -7.7289,2.26405 -8.0366,1.96388 -1.0302,-1.00512 1.109,-3.21546 3.1122,-3.21546 3.7381,0 22.8889,-9.63477 30.8475,-15.51944 8.9697,-6.63229 16.7889,-15.61305 21.0233,-24.14647 4.0358,-8.13283 4.7446,-21.5385 1.5757,-29.79683 -2.1333,-5.55965 -2.8656,-6.30186 -6.5625,-6.65184 -7.3944,-0.70002 -17.5488,5.0319 -28.9798,16.35834 -5.7277,5.67534 -13.958,12.98217 -18.2895,16.23742 l -7.8756,5.91862 -3.4689,-10.92495 c -7.2224,-22.74556 -17.1633,-40.45846 -29.0401,-51.74417 -28.5514,-27.130499 -74.9769,-47.92147 -132.3772,-59.283272 -8.4215,-1.66693 -15.523,-3.236951 -15.7813,-3.488932 -0.2584,-0.251993 7.1706,-1.168964 16.5085,-2.037736 14.6151,-1.35973 19.8352,-1.295624 37.5051,0.460544 59.7802,5.941455 95.8611,13.239986 117.1447,23.696369 14.7432,7.243147 21.1678,13.150996 31.8536,29.291121 9.0949,13.737496 17.6428,24.020556 19.9671,24.020556 0.5624,0 1.0226,-2.7401 1.0226,-6.08911 0,-7.46576 2.947,-11.56004 10.4206,-14.47732 7.0279,-2.743291 11.1625,-1.69836 17.2179,4.35144 3.8704,3.86667 5.92,4.95077 9.3603,4.95077 h 4.4048 l -3.1672,3.08977 c -1.742,1.69937 -3.8576,5.338 -4.7015,8.08582 -0.844,2.74782 -3.6035,7.6406 -6.1326,10.87286 -5.1616,6.59675 -5.2083,7.82099 -0.975,25.51162 1.6557,6.91894 2.2624,14.98081 2.3079,30.66373 0.1,34.57924 -4.8486,51.11716 -26.8263,89.65055 -22.2382,38.99013 -44.5089,72.51467 -57.6768,86.82236 -3.8407,4.17308 -3.408,3.17592 2.5991,-5.99114 z M 895.88983,344.13441 c 0.29404,-0.24008 15.77052,-11.2496 34.39235,-24.4656 41.48066,-29.43902 51.35892,-36.75425 51.41412,-38.07417 0.023,-0.56266 -0.9675,-0.73604 -2.2023,-0.38527 -1.2348,0.35075 -18.18715,1.02756 -37.67175,1.50401 l -35.42652,0.86627 -17.815,-3.46298 c -9.79824,-1.90464 -18.27352,-3.8638 -18.8339,-4.35368 -0.56038,-0.4899 7.81072,-1.26894 18.60246,-1.73123 26.88414,-1.1516 59.11579,-4.14368 76.19913,-7.07358 23.82538,-4.08621 49.48258,-13.94439 62.55268,-24.0344 3.9634,-3.05979 5.1737,-3.47601 6.0742,-2.08892 0.6185,0.95273 1.1334,2.25109 1.1441,2.88525 0.013,0.63417 0.8527,2.05094 1.8708,3.14841 1.6599,1.78931 0.5955,2.61995 -10.3056,8.04377 -15.6716,7.79727 -21.0527,12.61831 -21.0527,18.86149 0,13.91185 13.1383,16.66099 39.45,8.25475 12.4035,-3.96272 20.0609,-4.79412 21.6114,-2.34643 0.5793,0.91418 0.3507,1.10442 -0.6221,0.5179 -0.8457,-0.50986 -2.9554,-0.0206 -4.6884,1.08707 -4.3651,2.79019 -4.256,8.43618 0.2294,11.8782 6.38,4.89582 14.6836,2.10978 19.2203,-6.44876 2.4102,-4.54708 2.8176,-19.25935 0.6429,-23.22342 l -1.4867,-2.70992 -4.1431,2.4644 c -4.0955,2.43614 -10.3654,3.18759 -14.3016,1.71406 -3.1607,-1.18329 -2.3972,-5.33175 1.7208,-9.34922 4.6417,-4.52819 12.0945,-5.01712 17.165,-1.12607 l 3.3,2.53238 4.2499,-2.5277 c 8.7427,-5.20006 17.7206,-1.2969 17.7206,7.70412 0,3.86631 -5.2402,9.78409 -8.6637,9.78409 -1.2823,0 -1.5821,0.69194 -0.9492,2.19027 0.5088,1.20465 1.769,5.28793 2.8006,9.07396 2.6114,9.58402 5.0104,12.90439 8.8112,12.19558 1.6802,-0.31336 2.7498,-0.0879 2.3767,0.50103 -1.2946,2.04345 -9.0622,1.12211 -11.3522,-1.34653 -1.2333,-1.32952 -3.2357,-6.25678 -4.4496,-10.94946 -2.7801,-10.74685 -5.5212,-11.90888 -7.7473,-3.28429 -3.9615,15.34819 -25.6073,23.87034 -32.0753,12.62837 -1.7117,-2.97506 -1.6835,-3.77963 0.2734,-7.78296 1.2004,-2.4557 1.9737,-4.4649 1.7185,-4.4649 -0.2552,0 -2.5582,0.8536 -5.1176,1.8969 -7.3852,3.01031 -19.5149,5.38826 -35.2631,6.91313 -18.5596,1.79709 -23.2972,3.2356 -34.944,10.61032 -20.1339,12.74877 -33.23568,20.00143 -57.78258,31.98642 -21.95514,10.71953 -28.94389,13.86357 -26.64629,11.98734 z m 198.15477,-72.72043 c 5.5541,-2.26391 7.7828,-7.10131 5.6194,-12.1966 -1.9348,-4.55687 -6.5519,-5.70824 -12.2538,-3.05569 l -4.3899,2.04226 1.9595,3.69654 c 1.0777,2.03309 1.9595,5.41414 1.9595,7.51343 0,4.32187 0.8336,4.55654 7.1053,2.00006 z m -17.031,-10.52793 c 2.4794,-2.41885 -2.6286,-6.42895 -8.189,-6.42895 -5.7737,0 -8.9565,3.71522 -6.0798,7.09675 1.8559,2.18151 11.8265,1.71487 14.2688,-0.6678 z m 68.6196,41.76834 c 5.0032,-2.12144 5.2505,-4.21639 0.9622,-8.1467 -1.764,-1.61673 -3.2073,-3.88045 -3.2073,-5.03052 0,-2.88485 4.6078,-6.69762 7.0082,-5.799 3.313,1.24022 2.2615,3.43855 -1.235,2.5824 -2.3044,-0.56422 -3.2073,-0.28 -3.2073,1.00958 0,0.98718 1.4432,3.11765 3.2073,4.73438 1.764,1.61673 3.2073,3.96775 3.2073,5.22448 0,3.18415 -4.5581,7.30106 -8.0183,7.24234 -2.4215,-0.041 -2.2147,-0.33387 1.2829,-1.81696 z m 107.6863,-3.94812 c -0.3882,-0.37872 -0.3951,-1.47832 -0.015,-2.44358 0.9277,-2.3583 -1.4277,-2.23477 -3.4843,0.18277 -2.6093,3.06721 -6.9368,1.7665 -7.4084,-2.22674 -0.5374,-4.55201 4.695,-9.72368 9.8382,-9.72368 3.5809,0 3.8041,0.30987 4.2816,5.94501 0.4601,5.43051 -1.348,10.08428 -3.2116,8.26622 z m -0.7216,-6.995 c 1.0385,-1.89327 0.9292,-2.93433 -0.4494,-4.27928 -3.6772,-3.58727 -9.485,2.50175 -6.1383,6.43558 1.823,2.14298 4.7556,1.18304 6.5877,-2.1563 z m -127.3632,1.69808 c -0.1052,-2.83776 -0.2502,-5.81665 -0.3208,-6.61975 -0.071,-0.80309 0.533,-1.67521 1.3412,-1.93804 2.1339,-0.69391 2.8635,10.72853 0.7925,12.40536 -1.257,1.01768 -1.6637,0.15454 -1.8129,-3.84757 z m 42.529,-1.30053 c 0,-3.75181 -0.6259,-6.39999 -1.6036,-6.78488 -0.9917,-0.39039 -0.7801,-0.66898 0.555,-0.73009 1.1872,-0.0543 2.5085,-1.17437 2.9362,-2.48894 0.4277,-1.31458 1.7158,-3.14502 2.8623,-4.06764 1.868,-1.50305 1.9296,-1.39318 0.5919,1.05627 -2.0525,3.75825 -1.8756,5.12043 0.7521,5.79033 2.0568,0.52436 2.0485,0.58456 -0.099,0.71757 -1.8966,0.11752 -2.2765,1.04633 -1.9933,4.87349 0.1925,2.60058 -0.086,5.41663 -0.6191,6.25791 -2.0162,3.18269 -3.3833,1.31425 -3.3833,-4.62402 z m 22.547,3.75367 c -3.3911,-3.65543 -2.088,-7.86799 3.305,-10.68505 3.9427,-2.05947 5.0084,-2.18373 6.7354,-0.78544 2.8418,2.30093 2.5678,8.3606 -0.5142,11.36727 -3.2322,3.15323 -6.6624,3.19039 -9.5262,0.10326 z m 8.2292,-1.32912 c 1.9312,-3.52024 0.3019,-8.78675 -2.7184,-8.78675 -3.4174,0 -5.669,5.13931 -3.769,8.60276 1.831,3.33779 4.7125,3.41952 6.4874,0.18399 z m 19.0611,-2.68826 c -0.3065,-4.42421 0.071,-6.6102 1.2144,-7.03831 2.5407,-0.95105 3.2707,0.47084 3.051,5.94286 -0.1596,3.9745 0.2608,5.02778 2.0347,5.09758 1.9013,0.0748 1.8519,0.24891 -0.33,1.16361 -4.7972,2.01105 -5.5161,1.38909 -5.9701,-5.16574 z m 84.225,4.83174 c -1.3228,-3.72565 -1.1443,-11.71633 0.3001,-13.43339 0.8685,-1.03255 2.5034,-3.00379 3.6327,-4.38053 2.0786,-2.53374 2.0372,-1.66992 -0.1746,3.64528 -0.4408,1.05932 0.202,2.00439 1.6037,2.35796 2.2042,0.55599 2.2,0.59847 -0.073,0.73527 -2.0807,0.12525 -2.3237,0.90886 -1.7696,5.70549 0.4702,4.06879 0.1577,5.74178 -1.1646,6.23681 -0.9939,0.37207 -2.0536,-0.018 -2.3551,-0.86689 z m 21.4286,0.0837 c -1.7016,-1.66004 -2.0298,-7.11119 -0.5576,-9.26208 0.5184,-0.75741 2.2895,-2.06953 3.9359,-2.91581 2.5182,-1.29452 3.3939,-1.18488 5.5186,0.69095 l 2.5254,2.22965 -4.639,2.32186 c -5.2645,2.63486 -5.3034,5.33644 -0.076,5.25117 3.1815,-0.0519 3.2958,0.0931 1.2331,1.56448 -2.8424,2.02771 -5.9374,2.07439 -7.9409,0.11978 z m 4.8644,-7.22622 c 1.4465,-0.89218 1.5521,-1.53304 0.4325,-2.62527 -1.7562,-1.71332 -4.2705,-0.51203 -4.2705,2.04039 0,2.08226 1.1308,2.25459 3.838,0.58488 z m -55.8062,1.2461 c 0,-3.45696 0.4277,-6.28538 0.9622,-6.28538 2.1437,0 2.8782,0.62782 2.5191,2.15328 -0.5236,2.22446 0.6753,2.01252 5.678,-1.00378 l 4.321,-2.60524 v 5.7342 c 0,3.15381 0.031,6.1566 0.068,6.67288 0.037,0.51627 -0.7983,1.11508 -1.8569,1.33066 -1.5189,0.30932 -1.7738,-0.51495 -1.2093,-3.90852 0.3934,-2.36528 0.1685,-4.63022 -0.4999,-5.03322 -2.1486,-1.29541 -6.9128,2.96369 -6.5055,5.81556 0.2281,1.59594 -0.3934,2.82204 -1.5426,3.04372 -1.5046,0.29025 -1.9264,-0.99968 -1.9339,-5.91416 z m -45.8687,-1.41869 c 0.6081,-2.26878 0.3314,-2.63028 -1.4912,-1.94799 -1.4856,0.55619 -2.0601,0.31166 -1.7093,-0.72758 0.2907,-0.86092 1.8249,-1.75077 3.4096,-1.97742 2.4676,-0.35295 2.8214,0.0822 2.4653,3.03243 -0.2286,1.89449 -1.0919,3.66092 -1.9184,3.92542 -0.9819,0.31421 -1.2439,-0.48461 -0.756,-2.30486 z m -101.017,-11.75034 c 0,-1.03256 0.866,-1.87737 1.9244,-1.87737 1.0584,0 1.9244,0.84481 1.9244,1.87737 0,1.03255 -0.866,1.87737 -1.9244,1.87737 -1.0584,0 -1.9244,-0.84482 -1.9244,-1.87737 z m -18.6025,-30.69509 c -4.9392,-1.31046 -16.7503,-4.93717 -26.2466,-8.05935 -9.4964,-3.12217 -18.7772,-5.67668 -20.624,-5.67668 -3.4092,0 -7.4052,3.34098 -10.1046,8.44817 -0.8185,1.54883 -2.3191,2.81605 -3.3346,2.81605 -4.3478,0 -7.5228,-13.22355 -4.4986,-18.73633 0.6944,-1.26567 4.0545,-3.97723 7.4671,-6.02569 7.5288,-4.51939 12.1834,-9.82941 37.5369,-42.82334 33.0008,-42.9457 48.6703,-64.15881 48.6703,-65.88917 0,-1.9209 0.2408,-1.8644 -25.6585,-6.0204 -23.7357,-3.8088 -32.1057,-3.96832 -39.3709,-0.75041 -5.1623,2.28643 -13.2292,11.13476 -13.2292,14.51059 0,0.85301 -1.1355,2.88055 -2.5233,4.50565 l -2.5231,2.95471 -0.042,-3.61981 c -0.065,-5.55766 4.6082,-19.56152 8.4654,-25.36486 7.5667,-11.38453 19.0553,-13.321977 44.7334,-7.543891 17.9514,4.03944 35.6804,6.130393 39.6127,4.671901 1.6447,-0.610046 4.218,-3.13909 5.7186,-5.620086 4.6285,-7.653042 9.6087,-7.105726 11.2121,1.232181 1.0216,5.312736 -2.5253,16.044495 -6.2861,19.019455 -1.5339,1.21338 -11.8582,14.59679 -22.9431,29.74092 -11.0848,15.14413 -28.6209,37.94164 -38.9692,50.66113 -19.548,24.02722 -22.3321,28.13162 -20.3192,29.95419 0.6511,0.58962 11.5757,4.35766 24.2766,8.37342 20.2876,6.41448 24.3619,7.30634 33.5405,7.34219 13.0581,0.0509 14.8261,-1.28585 18.8595,-14.2601 2.779,-8.93916 3.1723,-9.50097 6.9028,-9.86236 4.789,-0.46395 8.051,3.2965 8.051,9.28132 0,8.58382 -14.3573,23.2274 -26.8493,27.38455 -7.6062,2.53125 -20.5531,2.26678 -31.524,-0.64395 z m 234.1345,-9.98129 c 0,-8.927 -0.8782,-10.38789 -4.0125,-6.67578 -0.9684,1.14691 -4.5549,4.24457 -7.9698,6.88369 -6.5289,5.04541 -13.4672,6.3353 -18.8791,3.50973 -3.7736,-1.97023 -6.3436,-7.93856 -6.3436,-14.73193 0,-6.92765 3.539,-12.67095 13.8064,-22.40594 8.985,-8.51907 14.5725,-10.81617 24.4316,-10.04412 10.1365,0.79378 13.1432,2.99188 10.0279,7.331 -2.9194,4.06604 -3.0491,28.40723 -0.1561,29.28893 1.0585,0.32258 2.887,0.88661 4.0635,1.25339 1.6725,0.52144 0.534,2.15938 -5.2191,7.50949 -4.0471,3.76343 -7.8963,6.8426 -8.5538,6.8426 -0.6575,0 -1.1954,-3.94248 -1.1954,-8.76106 z m -7.2535,-8.76004 c 6.7921,-5.81774 9.0674,-19.05553 4.2714,-24.85014 -5.9977,-7.24644 -20.8818,-0.65279 -24.5545,10.87764 -1.3972,4.38653 0.265,10.75538 3.7699,14.44484 4.4127,4.64497 10.7507,4.46368 16.5132,-0.47234 z m -149.7453,-1.60044 c 0.7075,-12.91348 0.506,-16.00068 -1.2626,-19.33735 -1.1576,-2.18379 -2.1047,-4.79518 -2.1047,-5.80308 0,-1.67646 10.3683,-8.30442 12.9908,-8.30442 0.6167,0 1.1214,7.92198 1.1214,17.60441 0,9.68243 0.537,18.58336 1.1934,19.77983 1.4505,2.64417 0.7665,3.71086 -5.1633,8.05172 -7.5174,5.50303 -7.7146,5.15405 -6.775,-11.99111 z m 33.3745,11.47883 c 0.6075,-2.33601 1.1046,-9.90549 1.1046,-16.82105 0,-10.23826 -0.452,-13.24609 -2.4332,-16.1935 l -2.4331,-3.61975 4.999,-4.12607 c 7.9521,-6.56358 9.4893,-5.81882 9.4893,4.59775 0,4.81859 0.4527,8.76107 1.0063,8.76107 0.5534,0 1.973,-1.59659 3.1546,-3.54798 3.0841,-5.09351 13.3245,-13.97415 16.1136,-13.97415 1.3039,0 3.7048,1.38527 5.3353,3.07839 3.3856,3.5158 3.9723,10.7273 1.3712,16.8536 -1.5755,3.7105 -8.8533,10.10595 -11.5003,10.10595 -2.2221,0 -1.5635,-3.47782 0.9937,-5.24826 3.5131,-2.43222 5.1733,-6.2775 4.0081,-9.28372 -2.3469,-6.0554 -9.6014,-4.14282 -16.4955,4.34887 -3.2372,3.98753 -3.987,6.06815 -3.987,11.06268 0,7.8575 2.1091,10.60682 8.8438,11.52819 7.4434,1.01831 7.1806,3.08999 -0.5048,3.97907 -3.5281,0.40815 -9.5097,1.19301 -13.2924,1.74415 l -6.8778,1.00207 z m 59.215,-12.3505 c 0.503,-13.59297 0.2599,-16.74629 -1.4925,-19.35547 -3.2999,-4.91327 -2.5425,-6.69569 4.2785,-10.06767 3.5045,-1.73253 6.6798,-3.15004 7.0561,-3.15004 0.3762,0 0.6842,8.13332 0.6842,18.07405 0,10.69932 0.5234,18.38968 1.2829,18.84758 2.5556,1.54086 1.176,4.24062 -4.1015,8.027 -2.9616,2.12466 -6.0425,3.86302 -6.8466,3.86302 -1.0501,0 -1.2929,-4.57729 -0.8611,-16.23847 z m -89.2567,-49.54049 c -1.5682,-1.07159 -2.8513,-3.23715 -2.8513,-4.81235 0,-2.96883 3.57,-7.0067 6.1949,-7.0067 2.1444,0 6.6344,4.65863 6.6344,6.88369 0,1.95371 -4.3897,6.8837 -6.1292,6.8837 -0.5487,0 -2.2807,-0.87676 -3.8488,-1.94834 z m 92.0854,-0.55483 c -3.088,-3.01245 -3.2082,-4.80629 -0.5687,-8.48257 2.4251,-3.37788 5.8525,-3.57184 8.7089,-0.49284 2.9565,3.18719 2.6482,7.22313 -0.7281,9.53024 -3.6694,2.50733 -4.3235,2.45837 -7.4121,-0.55483 z M 920.973,154.23979 c -6.56398,-5.0371 -2.94009,-14.22064 7.42379,-18.81263 3.7772,-1.67362 8.31324,-2.32607 16.30935,-2.34592 l 11.0768,-0.0275 6.69509,-15.33186 c 10.46472,-23.964417 16.60637,-31.955887 26.63437,-34.657099 3.7963,-1.022591 5.6196,-0.847132 9.2548,0.890588 7.3939,3.534602 8.4083,10.966339 2.4975,18.297191 -3.5141,4.35824 -4.4746,3.48263 -1.5791,-1.43941 4.2339,-7.196928 -2.2634,-14.013576 -11.7095,-12.28478 -3.5197,0.644164 -5.6981,2.249629 -9.1292,6.728048 -4.4501,5.808602 -19.80046,34.877912 -19.80046,37.496532 0,1.32484 6.60759,3.76588 17.83826,6.58999 3.1079,0.78149 9.1164,1.40471 13.3524,1.38495 6.3005,-0.0294 8.8368,-0.72422 13.9393,-3.81856 4.3949,-2.66525 5.8836,-3.14639 5.0397,-1.62882 -1.6215,2.91595 -7.7567,8.36419 -11.6818,10.37365 -5.4581,2.79422 -18.7109,1.97393 -31.10577,-1.92531 l -11.22036,-3.52974 -5.15147,5.70937 c -9.12328,10.11132 -21.63016,13.74405 -28.6837,8.33135 z m 16.28266,-0.36363 c 5.45322,-2.22284 15.67084,-13.3721 13.47049,-14.69876 -3.15831,-1.90424 -13.65933,-2.52586 -18.99439,-1.12439 -5.70326,1.4982 -11.57317,6.14837 -11.57317,9.16825 0,0.971 1.19646,3.24946 2.65887,5.06321 3.03515,3.76422 7.81547,4.29121 14.4382,1.59169 z m 90.66894,-8.10618 v -3.99068 l -5.1144,3.3018 -5.1143,3.30178 -3.2248,-2.0613 c -4.1351,-2.64328 -4.0879,-6.29541 0.1518,-11.71801 3.8995,-4.98752 9.9332,-7.84954 14.6816,-6.96399 l 3.3036,0.6161 -0.5878,6.91584 c -0.3758,4.4197 -0.058,7.23509 0.8792,7.80039 0.9867,0.59487 0.4122,1.85135 -1.7539,3.83666 l -3.221,2.95207 z m -1.8127,-5.82341 c 2.3086,-3.43724 1.6622,-8.70422 -1.1998,-9.77563 -2.812,-1.05268 -7.7481,2.02801 -9.0541,5.6507 -2.4434,6.77787 6.1503,10.2349 10.2539,4.12493 z m 63.3932,-64.987254 c 0,-0.286938 6.6289,-3.965384 14.731,-8.174323 8.1021,-4.208954 18.4994,-10.169508 23.1051,-13.245693 9.4616,-6.31932 11.788,-6.80273 13.3642,-2.776995 0.6063,1.548831 4.0563,7.556081 7.6665,13.349449 3.6101,5.793365 6.293,10.797761 5.9619,11.12087 -0.7916,0.7722 -6.3054,-2.734404 -13.6896,-8.706145 -3.2733,-2.647068 -6.5203,-4.812841 -7.2157,-4.812841 -0.6954,0 -9.8066,3.097662 -20.2469,6.883692 -16.9731,6.154937 -23.6765,7.9562 -23.6765,6.361986 z"
       id="path1384" />
    <rect
       style="fill:#000000;stroke:#000000;stroke-width:0.985497"
       id="rect1533"
       width="9.0145035"
       height="349.0145"
       x="763.43597"
       y="25.718018" />
    <path
       style="fill:#8a1332;fill-opacity:1;stroke:#000000;stroke-width:1.16504"
       d="m 1089.3413,58.058429 c -6.334,3.36087 -8.3458,14.416834 -16.881,11.593308 -22.5839,-0.0789 -44.6371,-10.388191 -67.261,-6.455314 -13.16423,4.928765 -17.52225,20.429247 -20.31082,32.880435 -2.46103,7.151852 2.78833,0.213985 3.96614,-2.35738 2.36828,-6.833505 8.86058,-12.019061 14.76998,-15.687038 17.2834,-3.590025 35.0762,1.281581 52.2556,3.655314 3.6483,1.436234 9.436,0.302417 11.9762,3.455506 -4.1449,10.54762 -12.9157,18.83153 -19.1111,28.25426 -19.9977,25.53351 -37.9724,52.86955 -60.55363,76.22899 -4.16803,4.80614 -11.47605,7.05579 -14.189,12.92835 -0.38989,5.0409 -0.6645,12.40022 3.83871,15.50272 5.89103,-2.90145 9.73952,-13.32653 17.69999,-9.64459 18.75313,4.29499 36.68183,12.33314 55.77473,14.97373 12.4682,1.15322 25.513,-2.1141 34.2684,-11.47516 5.9782,-5.78891 15.109,-15.09178 8.5194,-23.58972 -2.9449,-4.01783 -9.4108,-1.83864 -9.896,3.06732 -2.8663,7.04185 -4.6568,19.0876 -14.7109,18.38573 -22.2615,1.32429 -43.0298,-8.25143 -63.6743,-15.1705 -2.9848,-3.25947 2.6226,-7.64747 3.9298,-10.64234 27.036,-34.7717 54.0913,-69.60713 80.5104,-104.835113 3.6436,-6.156948 5.8332,-16.252779 -0.9216,-21.068508 z"
       id="path2246"
       transform="translate(67.943204,25.225265)" />
    <path
       style="fill:#8a1332;fill-opacity:1;stroke:#000000;stroke-width:1.16504"
       d="m 923.79459,58.124417 c -13.96992,1.742305 -19.21291,17.057054 -25.5678,27.501788 -0.84532,2.557262 -4.42108,7.003268 -3.19633,9.096753 7.8094,-9.826189 10.88056,-24.163174 22.27906,-30.734674 6.20858,-2.699182 16.64102,0.209454 15.72117,8.507954 0.20827,4.578789 3.45628,-1.84046 2.66457,-3.426846 0.69934,-6.869306 -5.43455,-11.51495 -11.90067,-10.944975 z"
       id="path2285"
       transform="translate(67.943204,25.225265)" />
    <path
       style="fill:#8a1332;fill-opacity:1;stroke:#000000;stroke-width:1.16504"
       d="m 1124.6224,169.05777 c -3.8727,1.56247 -9.7684,3.43154 -10.904,7.81621 5.4317,11.77488 1.6127,24.7149 2.578,37.09687 1.4913,4.44936 6.1079,-1.6213 7.9407,-2.86999 6.7183,-4.0461 1.5668,-13.05587 2.6507,-19.44364 -0.7397,-7.40509 -0.019,-15.60223 -1.9651,-22.58352 -0.099,-0.0145 -0.1997,-0.0282 -0.3003,-0.0159 z"
       id="path2324"
       transform="translate(67.943204,25.225265)" />
    <path
       style="fill:#8a1332;fill-opacity:1;stroke:#000000;stroke-width:1.16504"
       d="m 1122.0488,139.92502 c -5.0017,1.11714 -6.6135,9.23647 -0.9875,11.10426 4.6055,2.49682 10.2839,-5.53712 5.2699,-8.58987 -1.092,-1.22338 -2.5102,-2.58799 -4.2824,-2.51439 z"
       id="path2363"
       transform="translate(67.943204,25.225265)" />
    <path
       style="fill:#8a1332;fill-opacity:1;stroke:#000000;stroke-width:1.16504"
       d="m 1179.7568,168.74148 c -7.7013,3.31594 -11.7228,12.42468 -19.1662,15.65973 -3.0097,-4.37815 1.016,-11.47408 -2.6896,-15.44356 -4.5159,0.29056 -7.8868,4.86976 -11.4251,7.06531 6.8143,10.77935 4.1454,24.30537 3.304,36.30728 -0.8052,1.63129 -1.1093,5.45374 1.7316,3.97751 6.6254,-1.90579 14.8525,-0.80343 20.75,-4.18002 -3.3692,-2.3046 -9.1786,-0.86447 -10.9314,-5.82519 -5.7867,-10.67868 3.1955,-23.92056 13.9441,-26.68662 5.9738,-0.71423 7.533,6.82411 4.1277,10.58772 -0.6736,2.15038 -5.4509,4.77306 -3.6726,6.9743 9.4861,-3.41362 17.5848,-17.64132 8.7423,-25.87656 -1.2822,-1.19946 -2.8476,-2.58942 -4.7148,-2.5599 z"
       id="path2402"
       transform="translate(67.943204,25.225265)" />
    <path
       style="fill:#8a1332;fill-opacity:1;stroke:#000000;stroke-width:1.16504"
       d="m 1217.748,168.74376 c -3.9821,2.09031 -10.4693,3.66414 -11.6322,8.54891 5.5512,12.0018 1.1707,25.96792 4.048,38.42346 3.6803,-2.10997 9.3008,-4.36801 10.3898,-8.87885 -2.4189,-12.45852 -0.5148,-25.79193 -2.6532,-38.10718 z"
       id="path2441"
       transform="translate(67.943204,25.225265)" />
    <path
       style="fill:#8a1332;fill-opacity:1;stroke:#000000;stroke-width:1.16504"
       d="m 1269.1097,168.75286 c -6.6307,0.32082 -13.5971,4.21169 -17.6462,9.15646 4.4763,-0.58347 9.2703,-4.21941 14.3559,-2.70097 8.286,1.54127 7.6542,12.76487 5.9093,18.99783 -2.0811,8.88404 -14.221,17.58525 -22.1357,9.91192 -6.5499,-5.53672 -5.6148,-14.93473 -2.0388,-21.74205 -2.7518,-0.44131 -4.8618,4.61071 -6.7058,6.50555 -6.2195,7.6429 -6.3768,21.4141 2.8785,26.6707 11.2442,3.63799 19.6624,-7.94115 28.5047,-12.62882 2.3184,4.77821 -0.6144,11.4232 2.2846,15.74165 5.2275,-1.99302 9.6536,-6.90031 12.8996,-11.416 -0.2992,-2.137 -4.505,-0.71387 -4.6511,-3.73858 -2.022,-10.08625 -1.1298,-20.77535 1.4768,-30.6027 -1.6991,-5.32958 -10.9299,-3.426 -15.1318,-4.15499 z"
       id="path2480"
       transform="translate(67.943204,25.225265)" />
    <path
       style="fill:#8a1332;fill-opacity:1;stroke:#000000;stroke-width:1.16504"
       d="m 1215.1699,139.85221 c -6.6101,0.63907 -6.65,11.97093 0.3663,11.67767 6.9735,-0.98978 6.666,-11.39311 -0.3663,-11.67767 z"
       id="path2519"
       transform="translate(67.943204,25.225265)" />
    <path
       style="fill:#8a1332;fill-opacity:1;stroke:#000000;stroke-width:1.16504"
       d="m 889.08923,106.71009 c -4.85333,2.91584 -12.10917,0.52422 -17.7213,1.85906 -5.90121,0.96344 -14.76178,1.78325 -17.24118,7.93226 6.39213,-3.00397 13.33446,-5.36122 20.67258,-4.42122 4.05491,-0.50577 9.13087,0.62438 8.52843,5.49524 2.3439,-1.75099 5.17573,-3.97797 8.25083,-1.67019 12.3506,3.67605 26.84479,8.61387 39.24263,2.72373 1.90618,-1.76176 7.2493,-4.08834 6.38494,-6.95609 -3.43174,1.42287 -6.96378,3.68297 -11.07467,3.74086 -11.78705,0.49336 -24.69771,-0.76091 -34.80775,-7.27693 -0.64284,-0.54909 -1.32452,-1.38816 -2.23451,-1.42672 z"
       id="path2558"
       transform="translate(67.943204,25.225265)" />
    <path
       style="fill:#8a1332;fill-opacity:1;stroke:#000000;stroke-width:1.16504"
       d="m 1069.5949,23.150557 c -14.6316,8.49031 -29.7815,16.464453 -43.9187,25.633086 5.4126,-0.196419 11.7491,-3.751141 17.3586,-5.167696 7.6443,-2.123492 15.2899,-6.358739 23.0695,-7.031059 6.5639,3.074856 12.0547,9.441801 18.52,11.816477 -4.1952,-8.717577 -9.0874,-17.647367 -14.8952,-25.291767 z"
       id="path2597"
       transform="translate(67.943204,25.225265)" />
    <path
       style="fill:#000000;fill-opacity:1;stroke:#000000;stroke-width:1.16504"
       d="m 419.97986,64.277268 c -32.37329,2.82178 -61.65825,24.511456 -75.02428,53.964872 -1.50939,1.47038 -2.67913,8.91955 -5.0629,4.45308 -11.36525,-14.48539 -26.21543,-26.53777 -42.71727,-34.69853 -21.90563,-9.048828 -47.31805,-14.523801 -70.05238,-4.996915 -34.77092,13.063773 -59.85472,48.901815 -58.29281,86.328775 -0.1559,28.29022 7.63301,56.97179 25.15463,79.53721 21.72046,29.21745 49.7994,54.8724 83.37803,69.61298 16.51782,6.49486 34.88386,9.33794 52.49045,7.13996 1.22223,-2.32836 -4.18348,-2.61328 -5.5726,-3.55655 -39.13132,-14.94887 -69.8332,-44.81684 -97.21335,-75.51514 -17.55102,-19.87326 -31.91717,-44.48741 -31.94076,-71.68818 -2.624,-23.35175 9.028,-48.71481 31.07484,-58.46437 19.46786,-8.71016 42.34361,-5.15538 60.25653,5.6477 18.19274,8.98256 32.97251,23.84389 42.40097,41.74564 2.42222,7.06453 10.53161,0.90651 15.04284,0.39602 7.58016,-2.42417 15.2893,-4.64148 22.78672,-7.20648 6.06023,-20.57194 15.01421,-41.75931 31.53791,-56.14249 9.17024,-7.716609 20.97165,-11.790556 32.95781,-10.326049 15.54225,0.283564 29.06003,11.094629 38.83393,22.388559 15.80881,18.05709 16.19726,43.46929 13.94998,66.04502 -3.92788,23.32756 -14.46353,45.30424 -26.97368,65.23884 -27.71884,40.11917 -68.83876,68.58164 -111.32894,91.21742 -4.09752,2.519 2.93549,0.90328 4.08501,0.37339 35.35625,-8.82165 68.48307,-25.82596 96.87498,-48.56769 26.10026,-23.17048 51.04653,-49.61738 63.06901,-83.06348 6.52707,-19.03089 5.64766,-39.92371 2.8075,-59.5773 -7.1111,-28.51501 -24.89844,-55.3047 -50.40563,-70.444916 -12.92064,-6.570985 -27.79226,-8.962763 -42.11654,-9.841376 z"
       id="path12600"
       transform="translate(67.943204,25.225265)" />
  </g>
</svg>
