<?xml version="1.0" encoding="UTF-8" standalone="no"?>
<!-- Created with Inkscape (http://www.inkscape.org/) -->

<svg
   version="1.1"
   id="svg4316"
   width="1107.6639"
   height="253"
   viewBox="0 0 1107.6639 253"
   sodipodi:docname="signature.png.svg"
   inkscape:version="1.1.2 (0a00cf5339, 2022-02-04)"
   xmlns:inkscape="http://www.inkscape.org/namespaces/inkscape"
   xmlns:sodipodi="http://sodipodi.sourceforge.net/DTD/sodipodi-0.dtd"
   xmlns="http://www.w3.org/2000/svg"
   xmlns:svg="http://www.w3.org/2000/svg">
  <defs
     id="defs4320" />
  <sodipodi:namedview
     id="namedview4318"
     pagecolor="#505050"
     bordercolor="#eeeeee"
     borderopacity="1"
     inkscape:pageshadow="0"
     inkscape:pageopacity="0"
     inkscape:pagecheckerboard="0"
     showgrid="false"
     fit-margin-top="0"
     fit-margin-left="0"
     fit-margin-right="0"
     fit-margin-bottom="0"
     inkscape:zoom="0.70427157"
     inkscape:cx="401.83363"
     inkscape:cy="-35.497671"
     inkscape:window-width="1920"
     inkscape:window-height="1131"
     inkscape:window-x="0"
     inkscape:window-y="32"
     inkscape:window-maximized="1"
     inkscape:current-layer="g4322" />
  <g
     inkscape:groupmode="layer"
     inkscape:label="Image"
     id="g4322"
     transform="translate(-25.95376,-16)">
    <path
       style="fill:#000000"
       d="m 284.80498,266.47132 c -0.92246,-2.02459 -0.79449,-3.66922 0.64198,-8.25 5.13321,-16.3694 16.69515,-32.81883 40.79031,-58.03328 11.47687,-12.01001 14.02492,-15.39474 25.75,-34.20536 12.31501,-19.75704 14.03795,-22.98584 12.26273,-22.98037 -0.4125,0.001 -9.75,7.48981 -20.75,16.64119 -28.54553,23.74829 -39.80215,31.32116 -46.59501,31.34673 -3.48663,0.0131 -5.91062,-2.90142 -5.87917,-7.06897 0.022,-2.91336 2.79631,-12.22412 5.4008,-18.12528 0.55765,-1.26351 -1.09989,-0.75385 -6.4118,1.97152 -5.67157,2.90989 -8.57434,3.75524 -13.93487,4.05814 -6.39884,0.36157 -6.88941,0.23206 -8.92547,-2.35638 -1.18496,-1.50644 -2.15412,-4.14079 -2.15369,-5.85412 9.9e-4,-3.90358 4.71249,-13.97197 9.9812,-21.32964 2.26837,-3.16774 4.01801,-6.76507 4.01801,-8.2612 0,-2.86225 -3.30587,-6.48735 -8.75678,-9.60238 l -3.25679,-1.86115 -3.06602,3.71962 C 260.76252,130.11145 257,131.26055 257,128.39392 c 0,-0.88334 1.125,-2.491 2.5,-3.57258 3.10822,-2.44492 3.10319,-4.24066 -0.0261,-9.32134 -2.82688,-4.58971 -3.1618,-9.07289 -0.91721,-12.27749 2.17408,-3.10394 6.81873,-2.93799 10.11824,0.36152 2.39581,2.39581 2.53801,3.03319 1.95226,8.7505 l -0.63178,6.16648 4.53677,2.40674 c 2.49522,1.32372 5.87125,3.92665 7.50229,5.7843 4.3759,4.98388 3.97966,8.35575 -2.06368,17.56129 -5.36941,8.17896 -7.9708,14.29829 -7.9708,18.74994 0,6.3171 5.52434,6.30828 17.92917,-0.0286 9.97695,-5.09663 12.61543,-6.96483 15.61743,-11.05802 4.53825,-6.18787 15.83386,-17.07434 22.88122,-22.05245 C 342.59568,119.8563 360,118.04486 360,126.57814 c 0,3.48661 -4.25413,5.40684 -6.82468,3.08052 -9.55738,-8.6493 -45.3199,20.40265 -54.14245,43.98303 -2.42052,6.46944 -2.59303,10.20613 -0.5081,11.00619 2.0078,0.77046 7.58646,-2.97811 20.97523,-14.09425 C 346.63918,148.02108 367.58697,132 369.90941,132 c 0.93958,0 2.51778,0.59188 3.5071,1.31529 1.70243,1.24485 1.62547,1.65991 -1.43698,7.75 -1.77966,3.53909 -7.24886,13.51301 -12.15377,22.16426 -7.3199,12.9108 -8.73425,16.07292 -7.89254,17.64567 0.86808,1.62203 0.0694,2.89139 -5.20387,8.27045 -4.24413,4.32928 -9.3851,11.61268 -16.13166,22.85433 -22.76667,37.9356 -37.00686,57 -42.57629,57 -1.23772,0 -2.52561,-1.01251 -3.21642,-2.52868 z M 295.85077,256.75 c 3.33732,-4.4747 11.03927,-17.19057 20.92805,-34.55207 3.11344,-5.4662 1.94635,-6.77848 -1.95475,-2.19793 -7.14981,8.39505 -24.76158,37.32517 -24.80736,40.75 -0.0338,2.52542 2.01481,1.12086 5.83406,-4 z M 266,110.62244 c 0,-3.90866 -2.56711,-6.91411 -3.60205,-4.2171 C 261.6958,108.23511 263.76303,114 265.12132,114 265.60459,114 266,112.4801 266,110.62244 Z m 621.98843,156.86362 c -2.96276,-3.5699 2.08442,-18.02332 11.22554,-32.14616 5.67715,-8.77109 16.38788,-21.55395 31.38634,-37.45843 10.30013,-10.92234 13.61355,-15.36487 24.64969,-33.04948 7.0125,-11.23702 12.75,-20.74618 12.75,-21.13147 0,-1.93022 -3.37666,0.47858 -19.72923,14.07417 -34.82416,28.95295 -44.22814,34.96056 -51.24112,32.73472 -6.01923,-1.91043 -4.42159,-11.91687 4.75143,-29.75941 0.21207,-0.4125 -0.74477,-0.75 -2.12632,-0.75 -1.38155,0 -3.20137,-0.68947 -4.04405,-1.53215 -1.89508,-1.89508 -3.04292,-7.60964 -2.20172,-10.96128 1.33466,-5.3177 -3.80236,-2.22642 -20.37839,12.26301 -4.65816,4.07179 -10.4295,8.55196 -12.82519,9.95593 -3.92502,2.30022 -4.50834,2.40013 -5.89819,1.01029 -1.38984,-1.38985 -1.29788,-2.07117 0.92989,-6.88909 1.35975,-2.94069 6.11767,-11.5495 10.57316,-19.1307 4.45548,-7.58119 7.87108,-14.38283 7.59021,-15.11475 -0.28086,-0.73192 0.89674,-2.51501 2.61689,-3.96242 2.49802,-2.10195 3.51552,-2.42401 5.05509,-1.60006 1.06014,0.56737 1.92754,1.38628 1.92754,1.8198 0,0.43351 -3.04804,5.93018 -6.77343,12.21481 -14.26977,24.07274 -13.98935,23.16187 -4.72657,15.35301 8.02894,-6.7687 19.68294,-14.42768 21.92806,-14.41109 4.29229,0.0317 5.08796,1.49 4.81302,8.82108 -0.44704,11.91984 3.27469,11.83406 13.4614,-0.31029 12.4585,-14.85274 27.87644,-24.93767 40.01139,-26.17161 4.93443,-0.50175 6.74869,-0.28143 8.81127,1.07003 3.31883,2.17457 2.95765,5.47067 -0.82643,7.54206 -2.56916,1.40635 -2.88403,1.3884 -3.79969,-0.21658 -1.37736,-2.41425 -6.18484,-2.20209 -12.92318,0.57031 -18.27419,7.51868 -40.43894,32.94455 -43.51649,49.91913 C 898.09036,187.7903 903.833,185.736 918.5,173.42805 943.2287,152.67675 970.08755,132 972.31455,132 c 2.62608,0 4.68545,1.15837 4.68545,2.63551 0,1.9859 -4.80504,11.35895 -14.68928,28.65394 -6.72953,11.77501 -8.33407,15.34191 -7.87222,17.5 0.4962,2.31856 -0.2528,3.52807 -5.17921,8.36358 -3.81383,3.74346 -8.77942,10.66826 -14.7,20.5 -12.13911,20.15824 -28.93013,45.80499 -33.80668,51.6366 -3.6569,4.37311 -8.23644,7.71037 -10.58051,7.71037 -0.50996,0 -1.49262,-0.68127 -2.18367,-1.51394 z m 8.17726,-8.23606 c 1.39693,-1.5125 3.88591,-4.775 5.53108,-7.25 C 906.92603,244.13305 921,219.31125 921,217.95552 c 0,-2.42042 -5.09806,3.39759 -11.98189,13.67395 -13.77968,20.5707 -21.33258,36.80227 -12.85242,27.62053 z m 89.2043,-24.7282 c -0.79594,-2.07419 4.56221,-11.63167 25.45401,-45.40307 9.9968,-16.1597 18.176,-29.58567 18.176,-29.8355 0,-0.24982 -2.1375,0.74973 -4.75,2.22122 -7.5164,4.23361 -20.2402,9.22402 -26.39879,10.35389 -13.46901,2.47105 -18.46622,-4.21127 -12.34113,-16.50272 5.18733,-10.40961 20.85862,-24.39616 29.05842,-25.93445 4.1306,-0.7749 8.4315,1.5944 8.4315,4.64472 0,3.05689 -8.5628,11.5731 -14.6124,14.53288 -3.7717,1.84536 -6.4442,2.49669 -9.01356,2.19673 -3.41611,-0.39881 -3.83968,-0.13126 -6.55279,4.13906 -3.60853,5.67968 -4.4009,8.66208 -2.81047,10.57843 2.83416,3.41495 15.19882,0.31143 33.54722,-8.4203 l 10.058,-4.78647 8.3345,-14.40311 c 28.4463,-49.159372 64.7381,-105.178747 75.8967,-117.15311 3.5759,-3.837292 5.0691,-4.75 7.7706,-4.75 2.6824,0 3.4616,0.468083 3.9379,2.365712 0.7466,2.974817 -0.9329,9.297976 -4.6451,17.488944 -13.0503,28.794838 -64.6564,101.767144 -78.9989,111.706544 -2.8902,2.00293 -8.9937,11.20337 -27.6992,41.7539 -13.1957,21.5517 -24.70007,40.59287 -25.56533,42.31372 -2.12725,4.23073 -6.15014,5.82999 -7.27718,2.89298 z m 21.18881,-90.07574 c 3.2677,-1.95467 7.2912,-4.92533 8.9412,-6.60147 2.9595,-3.0064 2.9663,-3.03752 0.5,-2.30544 C 1011.1036,136.99259 996.66406,148 999.65384,148 c 0.53006,0 3.63736,-1.59927 6.90496,-3.55394 z m 57.5248,-24.88524 c 25.7526,-34.75585 59.0211,-88.032202 58.8748,-94.282303 -0.1267,-5.414315 -20.781,25.257143 -49.9809,74.221483 -11.1517,18.7 -20.4998,34.45 -20.7734,35 -1.1899,2.39177 2.1528,-1.81183 11.8795,-14.93918 z M 35,229.38487 C 35,226.20505 47.381651,216.4217 64.152133,206.35034 69.29346,203.26277 86.55,193.31389 102.5,184.24172 c 30.51197,-17.35483 52.80678,-31.33733 58.25,-36.53229 4.67256,-4.45944 4.30691,-6.42839 -1.35137,-7.2769 -6.34214,-0.95106 -15.79382,0.003 -44.89863,4.53136 -37.494522,5.83391 -42.730293,6.41004 -58.5,6.43712 -16.731585,0.0287 -23.242175,-1.52324 -27.47048,-6.5483 -3.476657,-4.13177 -3.432104,-10.60691 0.123206,-17.90637 3.295198,-6.76541 19.389907,-22.91963 31.280835,-31.396502 C 87.617823,75.814126 129.36065,55.240739 161.28256,45.59893 c 17.41166,-5.259083 27.02263,-6.982122 39.28815,-7.043516 10.395,-0.05203 11.42606,0.127691 16.89297,2.944586 9.72617,5.011532 11.77559,12.177114 6.56264,22.945627 C 217.10329,78.746698 192.03495,96.637177 173.5,100.50466 161.4388,103.02134 157,102.26683 157,97.7 c 0,-1.984464 6.04288,-8.7 7.82857,-8.7 1.78209,0 4.11077,2.994492 3.52195,4.528939 -0.76617,1.996602 1.17804,1.869589 8.16189,-0.533208 18.45235,-6.348541 38.71486,-22.168584 43.09979,-33.650349 1.55122,-4.061823 1.5888,-4.893224 0.32198,-7.124743 C 215.20855,43.896379 202.2085,42.193226 180,46.988815 128.67831,58.070956 47.163148,104.50758 33.9127,130.21016 c -2.450848,4.75404 -2.475212,9.9708 -0.05679,12.15944 5.53056,5.00509 24.73841,4.37195 72.21733,-2.38046 43.1376,-6.13499 56.59664,-6.31926 62.06617,-0.84973 3.05879,3.05879 1.69596,6.51359 -5.16085,13.08284 -10.43213,9.99462 -25.33952,19.271 -67.690911,42.12182 C 62.834384,211.85433 52.3196,218.17547 43.8777,225.25 36.690625,231.27296 35,232.06038 35,229.38487 Z M 634.21679,221.4393 C 623.3866,213.85353 630.318,183.94157 649.72841,154.5 c 23.22724,-35.23092 52.12649,-56.359961 74.08192,-54.16335 6.30406,0.63072 16.38066,5.20971 20.98357,9.53533 2.78004,2.61257 3.12555,3.41001 2.21481,5.11174 C 746.36848,116.18 744.9129,117 743.42963,117 740.34111,117 736,114.27061 736,112.32876 c 0,-0.79267 -2.127,-2.38209 -4.72666,-3.53205 -13.48124,-5.96339 -31.45157,0.35059 -49.83817,17.51092 -14.67121,13.69274 -28.24587,32.26483 -37.41736,51.19237 -8.81389,18.18954 -11.87989,33.67996 -7.60187,38.40712 9.38021,10.36501 52.68071,-17.9796 139.52425,-91.33295 C 787.52308,114.79055 797,106.38397 797,105.89289 797,105.4018 796.50718,105 795.90484,105 c -2.29216,0 -30.50969,7.05871 -32.6463,8.16658 -2.69633,1.3981 -7.25854,-0.24831 -7.25854,-2.61946 0,-2.57014 4.75766,-4.15029 29.88902,-9.92695 13.41395,-3.083314 25.11395,-6.171374 26,-6.862356 C 812.77506,93.066832 820.025,87.072673 828,80.437459 874.28955,41.924475 892.79064,29.399143 905.14128,28.212403 909.74263,27.770272 910,27.87369 910,30.164735 c 0,2.959423 -6.95093,15.211893 -19.66809,34.669129 -5.27215,8.066375 -9.77742,15.165193 -10.01171,15.775152 -0.29949,0.779704 1.0002,0.885188 4.37691,0.355236 9.1601,-1.437615 21.81798,-2.041381 24.80289,-1.18307 1.65,0.474458 3.13791,1.578375 3.30646,2.45315 0.24985,1.296712 -0.39665,1.496919 -3.5,1.083873 -4.02304,-0.535453 -25.72091,2.087523 -30.80646,3.724078 -2.33616,0.751787 -4.57771,3.453981 -10.12986,12.211566 C 864.44872,105.43923 854.06374,121.75 845.2924,135.5 c -20.8053,32.61451 -40.38437,65.09511 -41.89408,69.5 -0.78203,2.28173 -1.93031,3.61123 -3.29894,3.81955 -1.8282,0.27827 -2.09938,-0.18412 -2.09938,-3.57963 0,-3.16234 2.05593,-7.38696 10.87947,-22.35569 13.67865,-23.20517 25.57952,-42.47302 43.24576,-70.0161 C 859.75635,100.9706 866,90.958096 866,90.618126 c 0,-1.260282 -4.66204,-0.49896 -27.30889,4.459608 -15.7328,3.444723 -24.15592,5.760326 -26.19111,7.200216 -1.65,1.16736 -9.75,8.00854 -18,15.20263 C 704.71844,195.77104 649.08586,231.854 634.21679,221.4393 Z M 871.64323,81.716594 c 1.19957,-1.271425 23.62421,-35.840539 26.879,-41.435827 3.68122,-6.328355 0.20994,-5.590389 -12.25904,2.606174 C 881.44344,46.055237 873.45,51.730719 868.5,55.499124 856.30223,64.785211 826,90.057848 826,90.944932 c 0,1.110337 44.34869,-7.856267 45.64323,-9.228338 z M 554.84418,189.60632 c -2.0107,-0.71824 -5.68248,-2.49359 -8.15952,-3.94524 l -4.50371,-2.63934 -9.84048,1.48323 C 508.05175,188.16597 494,184.56544 494,174.68087 c 0,-7.69267 9.86303,-19.85056 28.65655,-35.32416 10.08841,-8.30627 10.16091,-8.39758 10.80548,-13.60954 2.79148,-22.57182 8.9688,-37.033293 18.51855,-43.353017 C 563.01183,75.094018 579,81.066204 579,92.486928 c 0,3.545383 -0.72717,5.253414 -3.99847,9.391922 -3.98157,5.03707 -19.5839,18.96601 -30.34709,27.0923 L 539,133.24029 v 8.24887 c 0,14.85996 4.67068,34.52677 8.19377,34.50146 2.43587,-0.0175 11.43987,-5.81295 16.16316,-10.40346 4.6449,-4.51433 4.68116,-4.5994 3.03271,-7.11525 -1.59562,-2.43523 -1.56748,-2.65371 0.6453,-5.0091 2.77822,-2.95729 5.51821,-3.16627 6.92988,-0.52855 4.04785,7.56348 -3.14983,18.0059 -17.62176,25.56574 -3.15863,1.65 -5.72387,3.45 -5.70054,4 0.0951,2.24094 6.91919,4.49691 13.60748,4.49845 7.00737,0.002 8.77616,1.28071 4.1849,3.0263 -3.49646,1.32935 -9.18842,1.15411 -13.59072,-0.41843 z M 532.5,178.92234 c 3.3,-0.61321 6.29432,-1.29647 6.65404,-1.51834 0.35972,-0.22188 -0.1581,-2.54105 -1.1507,-5.15371 -2.3337,-6.14256 -3.95824,-14.64118 -4.81653,-25.19719 L 532.5,138.6062 525,144.95806 c -16.05332,13.59579 -26,24.88028 -26,29.49696 0,2.46031 2.39973,5.03237 5.5,5.89497 2.88334,0.80225 20.95979,-0.11943 28,-1.42765 z m 20.49913,-64.0032 C 567.05239,103.64997 575,95.614238 575,92.674314 c 0,-2.685904 -3.25238,-6.068379 -7.3151,-7.607702 -9.56382,-3.623632 -19.99402,3.194649 -24.10196,15.755588 -2.00142,6.11977 -4.73714,22.11929 -3.98908,23.32966 0.34116,0.55201 1.06718,0.5794 1.74517,0.0658 0.63853,-0.48368 5.88558,-4.66803 11.6601,-9.29856 z M 423.91334,173.7182 C 421.33578,171.73921 420,168.40791 420,163.95875 c 0,-3.59421 -0.24263,-4.06833 -1.75,-3.41976 -4.63076,1.99248 -23.3157,7.31355 -27.75,7.90261 -6.49581,0.86292 -8.8887,-0.72208 -8.69923,-5.76217 0.15944,-4.24098 5.64311,-15.59781 11.81895,-24.47734 C 396.02887,134.73824 398,131.29074 398,130.54098 398,128.84572 403.63628,124 405.60811,124 c 3.62417,0 2.28839,3.58201 -5.88619,15.78437 -4.68514,6.9936 -9.34293,14.44583 -10.35064,16.56053 -1.79558,3.76803 -1.79262,3.87424 0.14826,5.31285 2.55328,1.89255 7.80247,1.1906 21.03442,-2.81282 9.88729,-2.99147 10.09369,-3.11678 12.45001,-7.55849 5.5961,-10.54875 15.59509,-21.64574 20.64632,-22.91352 6.30911,-1.58348 5.28941,4.88152 -1.22441,7.76289 -3.19654,1.41398 -5.59658,3.64639 -8.90562,8.2836 C 422.86213,159.35543 421.58912,171 430.6144,171 c 3.00496,0 7.49846,-3.94242 11.36982,-9.97542 l 3.18944,-4.9703 -2.67388,-5.4652 C 439.39208,144.23717 439.76784,141 443.61284,141 c 3.52924,0 6.95323,3.88486 7.73546,8.77666 0.47281,2.95679 1.43233,4.68872 3.26171,5.88738 2.63358,1.72558 2.76378,1.70967 9.75632,-1.19266 1.62563,-0.67473 1.72729,-0.51482 0.78822,1.23984 -2.07455,3.87633 -8.82235,5.21731 -14.33696,2.84916 -1.24885,-0.5363 -2.10095,0.0869 -3.30657,2.41831 -2.22574,4.3041 -8.27632,10.84858 -11.63621,12.58605 -3.36528,1.74025 -9.78741,1.82264 -11.96147,0.15346 z m -229.41218,-1.79973 c -8.99638,-2.63577 -6.82414,-14.59052 5.03173,-27.69168 6.3809,-7.05113 16.0766,-13.8753 21.03563,-14.80562 4.13054,-0.7749 8.43148,1.5944 8.43148,4.64472 0,3.05689 -8.56279,11.5731 -14.61235,14.53288 -3.77179,1.84536 -6.44429,2.49669 -9.01361,2.19673 -3.41611,-0.39881 -3.83968,-0.13126 -6.55279,4.13906 -3.60853,5.67968 -4.4009,8.66208 -2.81047,10.57843 2.91419,3.51138 15.3345,0.28066 34.86217,-9.0682 C 242.64012,150.81127 244,150.34584 244,151.95196 c 0,1.44711 -7.83671,6.53237 -17.67484,11.46926 -14.47659,7.26453 -25.75394,10.27566 -31.824,8.49725 z m 18.05767,-27.47241 c 3.26764,-1.95467 7.29117,-4.92533 8.94117,-6.60147 2.95951,-3.0064 2.96626,-3.03752 0.5,-2.30544 C 217.10359,136.99259 202.66406,148 205.65384,148 c 0.5301,0 3.63734,-1.59927 6.90499,-3.55394 z m 851.10787,21.88727 c -1.7644,-1.7644 -0.4027,-6.48679 3.1701,-10.99353 12.9298,-16.30982 34.7245,-28.0569 44.487,-23.97789 3.8679,1.61613 7.5543,7.15997 5.8766,8.83766 -1.7946,1.79464 -5.5836,0.45017 -6.1989,-2.19957 -0.9552,-4.11367 -6.4633,-3.91735 -14.9307,0.53214 -10.9305,5.74382 -29.8006,22.0714 -27.8095,24.06252 0.7526,0.75254 11.3413,-5.35994 25.3662,-14.64292 11.8598,-7.84994 13.8818,-8.87103 15.1182,-7.63461 1.2364,1.23642 1.1832,2.1145 -0.3976,6.5654 -2.5427,7.15927 -1.471,8.62634 6.2749,8.58956 4.2451,-0.0202 7.5032,-0.78193 11.7333,-2.74333 6.0327,-2.79723 8.7555,-2.78499 6.4423,0.029 -3.5945,4.3726 -20.1195,9.38249 -26.0436,7.89565 -2.6282,-0.65964 -4.755,-4.32754 -4.755,-8.20042 0,-1.34912 -0.2603,-2.45295 -0.5784,-2.45295 -0.318,0 -4.9846,2.7078 -10.3702,6.01732 -14.03,8.62179 -24.9611,12.7396 -27.3847,10.31601 z M 407.08442,120.07334 c -1.13799,-0.72033 -0.79543,-1.51617 1.74699,-4.05859 3.32277,-3.32278 6.41891,-3.66901 6.97528,-0.78003 0.20673,1.07348 -0.90763,2.46611 -2.98852,3.73478 -3.78275,2.30627 -3.82214,2.31385 -5.73375,1.10384 z"
       id="path4383" />
  </g>
</svg>
